<svg width="103" height="32" fill="none" xmlns="http://www.w3.org/2000/svg">
  <path d="M47.0107 13.123c1.8799 0 3.0762-1.497 3.0762-3.83491 0-2.3584-1.1894-3.8418-3.0762-3.8418-1.0185 0-1.8935.49902-2.29 1.30566h-.1162V2.66406h-1.4697V13h1.415v-1.1758h.1094c.4443.8203 1.3125 1.2988 2.3515 1.2988zm-.4238-6.4189c1.2442 0 1.9893.97754 1.9893 2.58399 0 1.60641-.7451 2.57711-1.9893 2.57711-1.2373 0-2.0029-.9843-2.0098-2.57711.0069-1.59278.7793-2.58399 2.0098-2.58399zM51.7074 13h1.4697V8.56348c0-1.0459.7862-1.76368 1.9004-1.76368.2598 0 .6973.04786.8204.08204V5.50098c-.1573-.03418-.4375-.05469-.6563-.05469-.9707 0-1.7978.52637-2.0098 1.25781h-.1093V5.57617h-1.4151V13zM59.1658 13.123c.9776 0 1.791-.4238 2.2354-1.1757h.1162V13h1.415V7.9209c0-1.5586-1.0527-2.48828-2.9189-2.48828-1.6885 0-2.8916.81347-3.042 2.06445h1.4219c.164-.54004.7314-.84766 1.5517-.84766 1.0049 0 1.5244.45801 1.5244 1.27149v.64941l-2.0166.12305c-1.7705.10937-2.7685.88184-2.7685 2.21484 0 1.3535 1.0459 2.2148 2.4814 2.2148zm.376-1.1826c-.7998 0-1.3809-.4033-1.3809-1.0937 0-.6768.4649-1.03908 1.4903-1.10744l1.8183-.12305v.64259c0 .957-.8203 1.6816-1.9277 1.6816zM64.8742 13h1.4697V8.64551c0-1.19629.6905-1.93457 1.7774-1.93457s1.6064.60156 1.6064 1.83203V13h1.4698V8.19434c0-1.77051-.9161-2.76172-2.5772-2.76172-1.1211 0-1.8594.49902-2.2217 1.31933h-.1093V5.57617h-1.4151V13zM75.8395 13.123c1.0253 0 1.8935-.4853 2.3378-1.2988h.1163V13h1.4082V2.66406H78.232v4.08789h-.1093c-.4034-.81347-1.2647-1.30566-2.2832-1.30566-1.8799 0-3.0899 1.49707-3.0899 3.83496 0 2.35155 1.1963 3.84175 3.0899 3.84175zm.4169-6.4189c1.2305 0 2.003.99805 2.003 2.58399 0 1.59961-.7656 2.57711-2.003 2.57711-1.2441 0-1.9892-.9638-1.9892-2.57711 0-1.60645.7519-2.58399 1.9892-2.58399z" fill="#111"/>
  <path d="M42.6738 25.791c.1114 1.459 1.3477 2.4082 3.1407 2.4082 1.9335 0 3.1582-.9902 3.1582-2.543 0-1.2421-.7032-1.9218-2.4551-2.3613l-.8848-.2344c-1.166-.2988-1.6289-.6796-1.6289-1.3417 0-.8555.7441-1.418 1.8691-1.418 1.0547 0 1.7696.5156 1.9161 1.3828h1.0605c-.0879-1.3652-1.3066-2.3379-2.9414-2.3379-1.7871 0-2.9883.9727-2.9883 2.4082 0 1.2012.6621 1.8926 2.1914 2.2793l1.084.2813c1.166.2929 1.6934.75 1.6934 1.4707 0 .8378-.8379 1.4531-1.9746 1.4531-1.2012 0-2.045-.5625-2.1739-1.4473h-1.0664zM53.5977 21.5723c-.8613 0-1.6172.4394-2.0214 1.166h-.0938v-1.0547h-.9609v8.4258h1.0078v-3.0586h.0937c.3457.668 1.0723 1.0605 1.9746 1.0605 1.6055 0 2.6543-1.2949 2.6543-3.2695 0-1.9863-1.0429-3.2695-2.6543-3.2695zm-.2402 5.6308c-1.1367 0-1.8574-.914-1.8574-2.3613 0-1.4531.7207-2.3613 1.8633-2.3613 1.1543 0 1.8457.8847 1.8457 2.3613s-.6914 2.3613-1.8516 2.3613zM60.3498 28.1113c1.7988 0 2.9121-1.2422 2.9121-3.2695 0-2.0332-1.1133-3.2695-2.9121-3.2695-1.7989 0-2.9121 1.2363-2.9121 3.2695 0 2.0273 1.1132 3.2695 2.9121 3.2695zm0-.9082c-1.1953 0-1.8692-.8672-1.8692-2.3613 0-1.5.6739-2.3613 1.8692-2.3613s1.8691.8613 1.8691 2.3613c0 1.4941-.6738 2.3613-1.8691 2.3613zM64.7639 28h1.0078v-3.7383c0-1.1074.6504-1.7812 1.6582-1.7812s1.4883.539 1.4883 1.6757V28h1.0078v-4.0898c0-1.5-.791-2.3379-2.209-2.3379-.9668 0-1.582.4101-1.8984 1.1074h-.0938v-.9961h-.9609V28zM71.5452 23.4121c0 .9141.5391 1.4238 1.7227 1.7109l1.084.2637c.6738.1641 1.0019.4571 1.0019.8906 0 .5801-.6093.9844-1.459.9844-.8085 0-1.3125-.3398-1.4824-.873h-1.0371c.1113 1.0488 1.0781 1.7226 2.4844 1.7226 1.4355 0 2.5312-.7793 2.5312-1.9101 0-.9082-.5742-1.4239-1.7636-1.711l-.9727-.2343c-.7441-.1817-1.0957-.4512-1.0957-.8848 0-.5625.5859-.9434 1.3359-.9434.7618 0 1.254.334 1.3887.8379h.9961c-.1348-1.0371-1.0547-1.6933-2.3789-1.6933-1.3418 0-2.3555.791-2.3555 1.8398zM80.4887 28.1113c1.7988 0 2.9121-1.2422 2.9121-3.2695 0-2.0332-1.1133-3.2695-2.9121-3.2695-1.7989 0-2.9121 1.2363-2.9121 3.2695 0 2.0273 1.1132 3.2695 2.9121 3.2695zm0-.9082c-1.1953 0-1.8692-.8672-1.8692-2.3613 0-1.5.6739-2.3613 1.8692-2.3613s1.8691.8613 1.8691 2.3613c0 1.4941-.6738 2.3613-1.8691 2.3613zM84.9028 28h1.0078v-3.9141c0-.8906.6973-1.5351 1.6582-1.5351.1992 0 .5625.0351.6446.0586v-1.0078c-.1289-.0176-.3399-.0293-.5039-.0293-.8379 0-1.5645.4336-1.752 1.0488h-.0937v-.9375h-.961V28zM93.4009 26.3652c-.2636.5567-.8144.8555-1.6289.8555-1.0722 0-1.7695-.791-1.8222-2.0391v-.0468h4.541v-.3868c0-1.9628-1.0371-3.1757-2.7422-3.1757-1.7344 0-2.8477 1.289-2.8477 3.2754 0 1.998 1.0957 3.2636 2.8477 3.2636 1.3828 0 2.3672-.6679 2.6601-1.7461h-1.0078zm-1.664-3.9023c1.0019 0 1.6699.7383 1.6933 1.8574h-3.4804c.0761-1.1191.7793-1.8574 1.7871-1.8574zM98.3307 28.1113c.8731 0 1.6231-.416 2.0213-1.1191h.094V28h.961v-8.8242h-1.008v3.5039h-.088c-.3572-.6914-1.1014-1.1074-1.9803-1.1074-1.6055 0-2.6543 1.289-2.6543 3.2695 0 1.9863 1.0371 3.2695 2.6543 3.2695zm.2344-5.6308c1.1426 0 1.8579.914 1.8579 2.3613 0 1.459-.7095 2.3613-1.8579 2.3613-1.1543 0-1.8457-.8847-1.8457-2.3613 0-1.4707.6972-2.3613 1.8457-2.3613z" fill="#767676"/>
  <circle cx="16" cy="16" r="16" fill="#111"/>
</svg>