<svg style="opacity: .4;" version="1.1" viewBox="0 0 655.4 510.1"  xmlns="http://www.w3.org/2000/svg"><defs><linearGradient id="svgGradient" x1="50%" y1="0%" x2="50%" y2="100%"><stop offset="0%" stop-color="#b8d8ff"><animate attributeName="stop-color" values="#b8d8ff; #ffcc9e; #b8d8ff" dur="4s" repeatCount="indefinite"></animate></stop><stop offset="100%" stop-color="#ffcc9e"><animate attributeName="stop-color" values="#ffcc9e; #b8d8ff; #ffcc9e" dur="4s" repeatCount="indefinite"></animate></stop></linearGradient></defs><path fill="url('#svgGradient')" d="M182.6 434.4c.5.1 1 .2 1.4.2h.3c1.2 0 2.5-.9 3.8-2.6 4.7-6.3 11.1-27.5 5.3-50.2-6.6-25.7-32.4-41.6-32.7-41.8l-.7-.4-.4.7c-.2.3-15.1 26.7-8.5 52.4 6.1 23.3 23.7 39.5 31.5 41.7zm-22.1-92.6c4.1 2.7 25.5 17.6 31.3 40.4 3.3 12.8 3.4 37.6-5.1 48.9-1.3 1.7-2.2 2-2.7 2.1-.2 0-.7-.1-1.1-.2-6.1-1.7-24.1-16.3-30.4-40.6-5.8-22.9 5.8-46.3 8-50.6zm371 39c1.4 1 2.7 1.5 3.7 1.5.3 0 .5 0 .8-.1 6.1-1.9 19.8-24 17.8-50.4-2.2-26.5-24.8-46.6-25.1-46.8l-.6-.5-.5.6c-.2.2-19.4 23.7-17.3 50.2 1.7 21.2 13.4 40 21.2 45.5zm-3.2-94.2c3.5 3.3 22.1 21.7 24 45.3 2.1 25.9-11.5 47.3-16.7 48.9-.4.1-1.4.1-3.2-1.2-6.3-4.4-18.8-21.9-20.6-44.5-1.8-23.6 13.6-44.7 16.5-48.5zm-57.2 148h.3c.5 0 .9-.1 1.4-.2 3.5-1 9.8-5.2 16.1-12.6 5.1-5.9 11.8-15.7 15.3-29.1 6.6-25.7-8.3-52.2-8.5-52.4l-.4-.7-.7.4c-.3.2-26.1 16-32.7 41.8-5.8 22.6.6 43.8 5.3 50.2 1.5 1.7 2.7 2.6 3.9 2.6zm-7.6-52.4c5.9-22.8 27.3-37.8 31.3-40.4 2.3 4.3 13.8 27.8 7.9 50.6-6.3 24.3-24.3 38.9-30.4 40.6-.4.1-.9.2-1.1.2h-.1c-.4 0-1.3-.3-2.6-2-8.3-11.4-8.2-36.2-5-49zM73.9 310.6c.3.2.6.4.8.5l.3.1c.3.1.7.1 1.2.1 7.4 0 28-13.1 38.5-35.4 11.3-24 1.6-52.8 1.5-53.1l-.2-.7-.7.3c-.3.1-28.6 10.9-40 34.8-11.3 23.9-6.4 49.3-1.4 53.4zm2.8-52.8c10.1-21.3 33.9-31.9 38.4-33.8 1.4 4.6 8.3 29.9-1.7 51.2-10.7 22.6-32.4 36-37.9 34.5l-.2-.1c-.1-.1-.3-.1-.3-.1l-.1-.1c-3.6-2.8-9.9-27 1.8-51.6zm30.9-46.2c16.6-20.8 14-51 14-51.3l-.1-.8-.8.1c-.3 0-30.4 3.8-47.1 24.5-16.6 20.6-17.8 46.6-13.8 51.6.4.5 1.1.9 1.9 1.2.7.2 1.5.3 2.5.3 9.2.1 29.6-8.4 43.4-25.6zm-45.4 23.9c-.5-.1-.9-.4-1.1-.7-3.4-4.2-2.5-29.5 13.8-49.8 14.8-18.4 40.5-23.1 45.3-23.8.3 4.8 1.1 31-13.7 49.4-15.3 19-38.3 26.6-44.3 24.9zm57.1 146.7c.3.1.5.1.8.1 1.1 0 2.3-.5 3.8-1.5 7.8-5.5 19.5-24.3 21.2-45.5 2.1-26.5-17.1-49.9-17.3-50.2l-.5-.6-.6.5c-.2.2-22.9 20.3-25.1 46.8-2.1 26.3 11.6 48.5 17.7 50.4zm-16.2-50.3c1.9-23.5 20.4-41.9 24-45.3 3 3.8 18.4 24.9 16.5 48.5-1.6 20.8-13 39.1-20.5 44.4-1.9 1.3-2.9 1.3-3.3 1.2-4.4-1.3-18.8-21.7-16.7-48.8zm437.1-109.6l-.7-.3-.2.7c-.4 1.2-9.7 29.1 1.5 53.1 10.5 22.3 31.1 35.4 38.6 35.4.5 0 .9 0 1.2-.1l.2-.1c.3-.1.6-.2.8-.4 5.1-3.9 10-29.5-1.4-53.4-11.4-24-38.9-34.4-40-34.9zm38.6 35.5c11.7 24.6 5.3 48.9 1.7 51.7 0 0-.2.1-.3.1l-.1.1c-5.6 1.5-27.3-11.9-38-34.4-10.1-21.6-3.2-46.5-1.7-51.2 4.5 1.8 28.2 12.2 38.4 33.7zM73.1 156.9c.4.7 1.3 1.3 2.7 1.7 1.1.3 2.5.5 4.2.5 9.9 0 28.8-5.4 43.8-19.4 19.4-18.1 21.1-48.4 21.1-48.7v-.8h-.8c-.3 0-30.6-.6-50 17.6-19.4 18-24.2 43.5-21 49.1zm70.3-65.2c-.4 4.8-3.3 30.8-20.6 46.9-16.9 15.7-39.6 20.5-46.6 18.6-1.3-.4-1.7-.8-1.8-1-2.7-4.6 1.7-29.5 20.8-47.3 17.2-16.2 43.3-17.2 48.2-17.2zm466.8 89c-7.7 20.1-5.3 42.2-.6 50.4 1.1 1.9 2.2 2.9 3.5 3.1h.6c.6 0 1.4-.1 2.4-.4 7.1-2 25.8-14.2 34.7-37.5 9.6-24.8-2.2-52.7-2.3-53l-.3-.7-.7.3c-.2.2-27.7 13-37.3 37.8zm37.3-36c1.8 4.5 10.5 29.2 2 51.2-8.2 21.4-26 34.4-33.8 36.5-1.2.4-2 .3-2.4.3-.4-.1-1.3-.5-2.4-2.3-3.8-6.6-7.6-27.8.7-49.1 8.5-22.1 31.5-34.4 35.9-36.6zM593.7 237c.8-.2 1.4-.6 1.9-1.2 4-5 2.8-31.1-13.8-51.6-16.7-20.7-46.8-24.5-47.1-24.5l-.8-.1-.1.8c0 .3-2.7 30.5 14 51.3 13.8 17.2 34.2 25.6 43.3 25.6 1 0 1.9-.1 2.6-.3zM549 210.7c-14.8-18.4-14-44.6-13.7-49.4 4.8.7 30.5 5.5 45.3 23.8 16.3 20.2 17.2 45.5 13.8 49.7-.2.3-.6.5-1.1.7-6.1 1.7-29.1-5.9-44.3-24.8zm24.6-116.6c.4 0 .7 0 1-.1l.1-.1s.1 0 .2-.1c.1 0 .2-.1.3-.1 5.5-3.2 14.1-27.8 6.3-53.1C573.8 15.2 547.3.5 547 .4l-.7-.4-.3.7c-.1.3-13.8 27.4-6 52.8 7.1 23.2 26.2 40.6 33.6 40.6zM547 2.1c4.2 2.5 26.3 16.4 33.2 39 8 26-1.7 49.1-5.6 51.3 0 0-.1 0-.2.1-.1 0-.1.1-.2.1-4.8 1.2-25.2-14.9-32.8-39.5-6.9-22.6 3.5-46.6 5.6-51zm-15.3 137.6c15 13.9 33.9 19.4 43.8 19.4 1.7 0 3.1-.2 4.2-.5 1.4-.4 2.3-1 2.7-1.7 3.2-5.5-1.6-31.1-21-49.1-19.4-18.1-49.7-17.6-50-17.6h-.8v.8c-.1.3 1.6 30.5 21.1 48.7zm28.6-30.9c19.1 17.7 23.5 42.6 20.7 47.3-.1.2-.5.6-1.8 1-6.9 2-29.7-2.8-46.6-18.6-17.3-16.1-20.2-42.1-20.6-46.9 4.9.1 31 1.1 48.3 17.2zm39.2 43.9c.4 0 1-.1 1.5-.2 7.7-2.2 25-18.7 30.5-42.5 6-25.9-9.7-51.9-9.8-52.2l-.4-.7-.6.4c-.3.2-25.6 16.8-31.6 42.6-4.8 20.9.8 42.5 6.6 49.9 1.3 1.8 2.6 2.7 3.8 2.7zm-9-52.2c5.3-23 26.3-38.5 30.3-41.3 2.4 4.2 14.6 27.4 9.3 50.4-5.6 24.6-23.6 39.8-29.5 41.4-.4.1-.8.2-1 .2-.4 0-1.3-.3-2.7-2-4.8-6-11.6-26.5-6.4-48.7zm-138.6 366c-9 .3-18.3 2.5-26.9 6.2-12.5 5.3-22.1 13.4-21 17.7 1.7 6 21.9 19.7 46.9 19.7.9 0 1.8 0 2.7-.1 6.7-.2 13.6-1.9 21.1-5 15.7-6.7 26.5-18 26.6-18.1l.5-.6-.6-.5c-.1-.1-22.8-20.3-49.3-19.3zm22.3 37.2c-7.3 3-14 4.6-20.6 4.9-25.8 1-46.6-13.4-48.1-18.6-.7-2.7 6.8-10.2 20.1-15.9 8.4-3.7 17.5-5.8 26.3-6.1h1.9c22.7 0 42.2 15.5 45.8 18.5-2.3 2.3-12 11.4-25.4 17.2zm-36.7-62.1c12.4-23.5 3.9-52.7 3.9-53l-.2-.7-.7.2c-.1 0-1.8.6-4.6 1.8-7.9 3.4-27.1 13.1-36.8 31.4-10 19-10.1 41.2-6.4 50 .8 2 1.9 3.2 3.1 3.5.4.1.8.1 1.3.1 1.9 0 4.7-.7 7.8-2.1 10-4.4 24-14.9 32.6-31.2zM396 473.3c-.7-.2-1.4-1.1-2.1-2.6-3-7.1-4.3-28.6 6.3-48.7 9.4-17.8 28.3-27.4 36-30.7 1.7-.7 3-1.2 3.8-1.5 1.2 4.7 7 30.2-4 51.1-8.4 16-22.1 26.3-32.1 30.6-4 1.8-6.7 2.1-7.9 1.8zm128.1-59.7c-.1 0-.2 0-.2.1h-.2c-20.6 5.9-36.7 21-40.4 29.6-.8 1.9-.9 3.4-.4 4.5 2.2 4.2 16.2 10.4 33.6 10.4 6.1 0 12.5-.7 19.1-2.6.1 0 .2 0 .2-.1 25.4-7.3 40.7-33.2 40.8-33.5l.4-.7-.7-.4c0-.1-26.6-14.4-52.2-7.3zm11.5 40.4c-.1 0-.2 0-.2.1-26.2 7.3-49-3.1-51.1-7-.2-.4-.4-1.2.4-3.2 5.4-12.8 26.7-25.1 39.3-28.8.1 0 .2 0 .2-.1h.1c22.7-6.3 46.3 4.7 50.7 6.9-2.5 4.1-16.9 25.7-39.4 32.1zm-315.8-64.1c-2.8-1.2-4.6-1.8-4.7-1.8l-.7-.2-.2.7c-.1.3-8.5 29.4 3.9 53 8.6 16.3 22.6 26.9 32.8 31.2 3.1 1.4 5.8 2.1 7.8 2.1.5 0 .9 0 1.3-.1 1.2-.3 2.2-1.5 3.1-3.5 3.8-8.7 3.6-30.9-6.4-50-9.7-18.2-29-28-36.9-31.4zm41.8 80.8c-.9 2-1.7 2.5-2.1 2.6-1.2.3-3.9 0-8.1-1.9-10-4.3-23.6-14.6-32-30.6-11-20.9-5.2-46.4-3.9-51.1.8.3 2.1.7 3.8 1.5 7.7 3.3 26.7 12.9 36 30.7 10.5 20.3 9.3 41.8 6.3 48.8zm335-133.7c-6.4 1.8-12.2 4.5-17.3 8-17.7 12.2-28.1 31.8-28.8 41.3-.2 2.1.2 3.7 1.1 4.5 1.7 1.5 6.3 2.7 12.8 2.7 5.2 0 11.6-.8 18.6-2.7 7.5-2.1 14.8-5.5 21.1-9.9 21.8-15.1 27.9-44.8 27.9-45.1l.1-.8-.8-.1c-.1 0-17.1-2.8-34.7 2.1zm6.6 42.6c-6.2 4.3-13.3 7.6-20.7 9.7-15.2 4.3-27.6 2.6-29.9.4-.3-.3-.8-1.1-.6-3.3.6-7.6 9.4-27.2 28.2-40.1 4.9-3.4 10.6-6 16.9-7.8 8.1-2.3 16-2.9 22.2-2.9 5.4 0 9.5.5 11.2.7-1.3 4.7-7.9 30-27.3 43.3zm51.4-146.4l-.1-.8-.8.2c-.1 0-1.6.3-4.2 1.1-8.4 2.4-29.1 9.8-40.9 26.8-12.2 17.8-15 39.8-12.3 48.9.6 2 1.5 3.3 2.6 3.8.6.3 1.5.4 2.5.4 1.7 0 3.9-.4 6.5-1.1 10.2-2.9 25.9-11.7 36.6-27.1 15.1-22 10.2-51.9 10.1-52.2zm-11.3 51.2c-10.5 15.1-25.8 23.8-35.7 26.6-4.3 1.2-6.9 1.2-8 .7-.4-.2-1.1-.7-1.7-2.8-4-13.5 4.6-36.7 12.1-47.6 11.5-16.6 31.9-23.9 40.1-26.2 1.5-.4 2.6-.7 3.3-.9.5 4.8 3.2 30.8-10.1 50.2zM54.5 152.5c.5.1 1 .2 1.5.2 1.2 0 2.5-.9 3.8-2.6 5.9-7.5 11.5-29 6.6-49.9-6-25.9-31.3-42.5-31.6-42.6l-.6-.4-.4.7C33.7 58.1 18 84 24 110c5.5 23.8 22.8 40.3 30.5 42.5zM34.7 59.3c4 2.8 25 18.3 30.3 41.3 5.1 22.2-1.6 42.7-6.4 48.7-1.4 1.7-2.3 2-2.7 2-.2 0-.6 0-1-.2-5.9-1.6-23.8-16.9-29.5-41.4-5.2-23.1 6.9-46.2 9.3-50.4zm4.6 174.5c1 .3 1.8.4 2.4.4h.6c1.2-.2 2.4-1.2 3.4-3.1 4.7-8.2 7.2-30.3-.6-50.4-9.6-24.8-37-37.6-37.3-37.7l-.7-.3-.3.7c-.1.3-11.9 28.3-2.3 53 9 23.2 27.7 35.4 34.8 37.4zM8 144.7c4.3 2.2 27.4 14.5 35.8 36.6 8.2 21.3 4.5 42.5.7 49.1-1.1 1.9-1.9 2.3-2.3 2.3-.4 0-1.2.1-2.4-.3-7.8-2.2-25.6-15.1-33.8-36.6-8.5-21.9.2-46.6 2-51.1zm45.9 168.8c1 0 1.9-.1 2.5-.4 1.1-.5 2-1.7 2.6-3.8 2.7-9.1-.1-31.2-12.3-48.9-11.8-17-32.5-24.4-40.9-26.8-2.5-.7-4.1-1-4.2-1.1l-.8-.2-.1.8c-.1.3-4.9 30.2 10.1 52.1 10.7 15.5 26.4 24.3 36.6 27.1 2.6.8 4.8 1.2 6.5 1.2zm-41.7-29.1C-1.2 265 1.5 239 2.2 234.2c.7.2 1.8.4 3.3.9 8.2 2.4 28.5 9.6 40.1 26.2 7.5 10.9 16.1 34.1 12.1 47.6-.6 2.1-1.3 2.6-1.7 2.8-1.1.4-3.7.5-8-.7-10.1-2.8-25.4-11.4-35.8-26.6zM80.1 93.7c.1.1.2.1.3.1.1 0 .1 0 .2.1l.1.1c.3.1.7.1 1 .1 7.5 0 26.5-17.4 33.7-40.6 7.8-25.4-5.9-52.5-6-52.8l-.3-.7-.7.4c-.3.1-26.8 14.8-34.6 40.3-7.7 25.2.8 49.8 6.3 53zm-4.8-52.6c6.9-22.5 29-36.5 33.2-39 2.1 4.4 12.5 28.4 5.6 51-7.6 24.6-28 40.6-32.8 39.5-.1 0-.1-.1-.2-.1s-.1 0-.2-.1C77 90.1 67.3 67 75.3 41.1zm97.2 406.7c.6-1.1.4-2.6-.4-4.5-3.7-8.7-19.7-23.8-40.4-29.6h-.1c-.1 0-.1 0-.3-.1-25.6-7.1-52.2 7.3-52.4 7.4l-.7.4.4.7c.2.3 15.4 26.2 40.8 33.5.1 0 .1.1.2.1 6.6 1.8 13 2.6 19.1 2.6 17.6-.1 31.5-6.3 33.8-10.5zm-1.4-.7c-2.1 4-24.9 14.4-51.1 7-.1 0-.1-.1-.2-.1-22.5-6.5-36.9-28-39.5-32.1 4.3-2.2 27.9-13.2 50.7-6.9h.1c.1 0 .1 0 .3.1 12.7 3.6 33.9 15.9 39.3 28.8.8 1.9.6 2.8.4 3.2zm59.3 25.5c-8.7-3.7-18-5.9-26.9-6.2-26.5-1.1-49.2 19.1-49.4 19.3l-.6.5.5.6c.1.1 10.9 11.4 26.6 18.1 7.2 3.1 14.3 4.7 21.1 5 .9 0 1.8.1 2.7.1 25.1 0 45.3-13.8 46.9-19.7 1.2-4.3-8.4-12.3-20.9-17.7zm19.6 17.2c-1.2 4.3-21 19.6-48.1 18.6-6.6-.2-13.6-1.9-20.6-4.9-13.4-5.7-23.2-14.9-25.5-17.2 3.7-3.1 24.2-19.3 47.7-18.4 8.7.4 17.8 2.5 26.3 6.1 13.3 5.7 20.9 13.2 20.2 15.8zm-146.1-99c.9-.8 1.3-2.3 1.1-4.5-.7-9.5-11.1-29.1-28.8-41.3-5.1-3.5-10.9-6.2-17.3-8-17.6-5-34.6-2.1-34.8-2.1l-.8.1.1.8c.1.3 6.1 30 27.9 45.1 6.3 4.4 13.6 7.8 21.1 9.9 6.9 2 13.3 2.7 18.6 2.7 6.5 0 11.2-1.2 12.9-2.7zm-31-1.5c-7.4-2.1-14.5-5.4-20.7-9.7-19.4-13.4-26-38.6-27.2-43.4 3.5-.5 18.2-2.1 33.3 2.2 6.3 1.8 11.9 4.4 16.9 7.8 18.8 12.9 27.6 32.5 28.2 40.1.2 2.2-.3 3-.6 3.3-2.3 2.2-14.6 4-29.9-.3z"></path></svg>