<svg width="1200" height="1020" fill="none" xmlns="http://www.w3.org/2000/svg">
  <path fill="#111" d="M0 0h1200v1020H0z"/>
  <g filter="url(#filter0_i)">
    <path d="M192 355.861c-19.376 0-35.139 15.763-35.139 35.139 0 19.376 15.763 35.139 35.139 35.139 19.376 0 35.139-15.763 35.139-35.139 0-19.376-15.763-35.139-35.139-35.139z" fill="#FFDA1A"/>
    <path d="M192 355.861c-19.376 0-35.139 15.763-35.139 35.139 0 19.376 15.763 35.139 35.139 35.139 19.376 0 35.139-15.763 35.139-35.139 0-19.376-15.763-35.139-35.139-35.139z" fill="url(#paint0_linear)" fill-opacity=".7"/>
  </g>
  <path d="M192 359c-17.645 0-32 14.355-32 32s14.355 32 32 32 32-14.355 32-32-14.355-32-32-32z" fill="url(#paint1_linear)" fill-opacity=".3"/>
  <g filter="url(#filter1_i)">
    <path d="M202.496 408.819c0-3.96-5.858-7.171-10.494-7.171-4.637 0-10.495 3.21-10.495 7.171 0 3.962 5.59 1.413 10.227 1.413 4.637 0 10.762 2.547 10.762-1.413z" fill="#634B3E"/>
  </g>
  <g filter="url(#filter2_i)">
    <path d="M183 387.5c0 3.038-2.017 5.5-4.5 5.5s-4.5-2.462-4.5-5.5c0-3.034 2.017-5.5 4.5-5.5s4.5 2.466 4.5 5.5z" fill="#634B3E"/>
  </g>
  <g filter="url(#filter3_i)">
    <path d="M210 387.5c0 3.038-2.017 5.5-4.5 5.5s-4.5-2.462-4.5-5.5c0-3.034 2.017-5.5 4.5-5.5s4.5 2.466 4.5 5.5z" fill="#634B3E"/>
  </g>
  <g filter="url(#filter4_i)">
    <path d="M396 355.861c-19.376 0-35.139 15.763-35.139 35.139 0 19.376 15.763 35.139 35.139 35.139 19.376 0 35.139-15.763 35.139-35.139 0-19.376-15.763-35.139-35.139-35.139z" fill="#FFDA1A"/>
    <path d="M396 355.861c-19.376 0-35.139 15.763-35.139 35.139 0 19.376 15.763 35.139 35.139 35.139 19.376 0 35.139-15.763 35.139-35.139 0-19.376-15.763-35.139-35.139-35.139z" fill="url(#paint2_linear)" fill-opacity=".7"/>
  </g>
  <path d="M396 359c-17.645 0-32 14.355-32 32s14.355 32 32 32 32-14.355 32-32-14.355-32-32-32z" fill="url(#paint3_linear)" fill-opacity=".3"/>
  <g filter="url(#filter5_i)">
    <path d="M375.428 374.544c7.794-.093 11.111-2.875 12.807-5.112" stroke="#4D3E2D" stroke-width="2.5" stroke-miterlimit="10" stroke-linecap="round" stroke-linejoin="round"/>
  </g>
  <g filter="url(#filter6_i)">
    <path d="M411.644 408.661c0-3.96-4.38-10.879-15.659-10.587-10.655.276-15.614 6.902-15.614 10.864 0 3.961 6.525-2.462 15.354-2.28 9.651.199 15.935 5.963 15.935 2.003h-.016z" fill="#553131"/>
  </g>
  <g filter="url(#filter7_i)">
    <path d="M377.383 381.496c7.968 2.197 8.56 1.39 12.534 1.844 1.632.186-3.101 4.079-11.125 6.718" stroke="#4D3E2D" stroke-width="2.5" stroke-miterlimit="10" stroke-linecap="round" stroke-linejoin="round"/>
  </g>
  <g filter="url(#filter8_i)">
    <path d="M416.572 374.544c-7.794-.093-11.111-2.875-12.807-5.112" stroke="#4D3E2D" stroke-width="2.5" stroke-miterlimit="10" stroke-linecap="round" stroke-linejoin="round"/>
  </g>
  <g filter="url(#filter9_i)">
    <path d="M414.617 381.496c-7.968 2.197-8.561 1.39-12.534 1.844-1.632.186 3.101 4.079 11.125 6.718" stroke="#4D3E2D" stroke-width="2.5" stroke-miterlimit="10" stroke-linecap="round" stroke-linejoin="round"/>
  </g>
  <g filter="url(#filter10_i)">
    <path d="M598 355.861c-19.376 0-35.139 15.763-35.139 35.139 0 19.376 15.763 35.139 35.139 35.139 19.376 0 35.139-15.763 35.139-35.139 0-19.376-15.763-35.139-35.139-35.139z" fill="#FFDA1A"/>
    <path d="M598 355.861c-19.376 0-35.139 15.763-35.139 35.139 0 19.376 15.763 35.139 35.139 35.139 19.376 0 35.139-15.763 35.139-35.139 0-19.376-15.763-35.139-35.139-35.139z" fill="url(#paint4_linear)" fill-opacity=".7"/>
  </g>
  <path d="M598 359c-17.645 0-32 14.355-32 32s14.355 32 32 32 32-14.355 32-32-14.355-32-32-32z" fill="url(#paint5_linear)" fill-opacity=".3"/>
  <g filter="url(#filter11_i)">
    <path d="M579.139 373.667l10.694 6.111" stroke="#4D3E2D" stroke-width="2.5" stroke-linecap="round" stroke-linejoin="round"/>
  </g>
  <g filter="url(#filter12_i)">
    <path d="M616.861 373.667l-10.694 6.111" stroke="#4D3E2D" stroke-width="2.5" stroke-linecap="round" stroke-linejoin="round"/>
  </g>
  <g filter="url(#filter13_i)">
    <path d="M582 404c5.734-2.292 11.816-3.287 17.895-2.929 5.486-.191 10.954.803 16.105 2.929" stroke="#4D3E2D" stroke-width="2.5" stroke-linecap="round" stroke-linejoin="round"/>
  </g>
  <g filter="url(#filter14_i)">
    <path d="M578.375 386.535c2.102 1.737 4.776 2.629 7.5 2.5 2.296-.147 4.486-1.023 6.25-2.5" stroke="#4D3E2D" stroke-width="2.5" stroke-linecap="round" stroke-linejoin="round"/>
  </g>
  <g filter="url(#filter15_i)">
    <path d="M603.875 386.535c2.102 1.737 4.776 2.629 7.5 2.5 2.296-.147 4.486-1.023 6.25-2.5" stroke="#4D3E2D" stroke-width="2.5" stroke-miterlimit="10" stroke-linecap="round" stroke-linejoin="round"/>
  </g>
  <g filter="url(#filter16_di)">
    <path d="M602.085 394.287l17.79 14.753s7.355-4.954 11.209 1.812c1.994 3.206 1.012 7.422-2.194 9.417h-.001c-.041.026-.083.052-.126.077-.063.038 3.793 6.269-2.115 9.681-3.044 1.833-6.988.993-9.02-1.922 0 0-5.207 4.546-8.896-2.723-3.69-7.269 4.127-10.63 4.127-10.63l-10.774-20.465z" fill="#fff"/>
    <path d="M602.085 394.287l17.79 14.753s7.355-4.954 11.209 1.812c1.994 3.206 1.012 7.422-2.194 9.417h-.001c-.041.026-.083.052-.126.077-.063.038 3.793 6.269-2.115 9.681-3.044 1.833-6.988.993-9.02-1.922 0 0-5.207 4.546-8.896-2.723-3.69-7.269 4.127-10.63 4.127-10.63l-10.774-20.465z" fill="url(#paint6_linear)" fill-opacity=".7"/>
  </g>
  <g filter="url(#filter17_di)">
    <path d="M595.803 393.942l-17.79 14.753s-7.354-4.953-11.208 1.812c-1.995 3.206-1.012 7.422 2.194 9.417.042.026.084.052.126.077.064.038-3.793 6.269 2.116 9.681 3.043 1.834 6.988.993 9.02-1.922 0 0 5.206 4.547 8.896-2.723 3.689-7.27-4.128-10.63-4.128-10.63l10.774-20.465z" fill="#fff"/>
    <path d="M595.803 393.942l-17.79 14.753s-7.354-4.953-11.208 1.812c-1.995 3.206-1.012 7.422 2.194 9.417.042.026.084.052.126.077.064.038-3.793 6.269 2.116 9.681 3.043 1.834 6.988.993 9.02-1.922 0 0 5.206 4.547 8.896-2.723 3.689-7.27-4.128-10.63-4.128-10.63l10.774-20.465z" fill="url(#paint7_linear)" fill-opacity=".7"/>
  </g>
  <g filter="url(#filter18_i)">
    <path d="M1008 355.861c-19.376 0-35.139 15.763-35.139 35.139 0 19.376 15.763 35.139 35.139 35.139 19.38 0 35.14-15.763 35.14-35.139 0-19.376-15.76-35.139-35.14-35.139z" fill="#DF6106"/>
    <path d="M1008 355.861c-19.376 0-35.139 15.763-35.139 35.139 0 19.376 15.763 35.139 35.139 35.139 19.38 0 35.14-15.763 35.14-35.139 0-19.376-15.76-35.139-35.14-35.139z" fill="url(#paint8_linear)" fill-opacity=".7"/>
  </g>
  <path d="M1008 359c-17.645 0-32 14.355-32 32s14.355 32 32 32c17.64 0 32-14.355 32-32s-14.36-32-32-32z" fill="url(#paint9_linear)" fill-opacity=".3"/>
  <g filter="url(#filter19_i)">
    <path d="M1003 386.5c0 3.59-2.02 6.5-4.5 6.5-2.483 0-4.5-2.91-4.5-6.5 0-3.586 2.017-6.5 4.5-6.5 2.48 0 4.5 2.914 4.5 6.5z" fill="#553131"/>
  </g>
  <g filter="url(#filter20_i)">
    <path d="M1022 386.5c0 3.59-2.02 6.5-4.5 6.5s-4.5-2.91-4.5-6.5c0-3.586 2.02-6.5 4.5-6.5s4.5 2.914 4.5 6.5z" fill="#553131"/>
  </g>
  <g filter="url(#filter21_i)">
    <path d="M992.139 371.311l10.691 6.111" stroke="#4D3E2D" stroke-width="2.5" stroke-miterlimit="10" stroke-linecap="round" stroke-linejoin="round"/>
  </g>
  <g filter="url(#filter22_i)">
    <path d="M1023.86 371.311l-10.69 6.111" stroke="#4D3E2D" stroke-width="2.5" stroke-miterlimit="10" stroke-linecap="round" stroke-linejoin="round"/>
  </g>
  <path fill="#1D1D1D" d="M981 398h54v20h-54z"/>
  <path d="M992.004 413h1.919l-1.882-2c.579-.856.879-2.021.879-3.544v-.345h-1.428v.293c0 1.179-.154 1.956-.454 2.549l-2.425-2.607c1.582-.835 2.242-1.656 2.242-2.74 0-1.398-1.172-2.395-2.791-2.395-1.611 0-2.812 1.018-2.812 2.403 0 .769.351 1.443 1.325 2.453-.095.052-.359.191-.432.227-1.391.74-2.051 1.663-2.051 2.908 0 1.78 1.465 2.996 3.618 2.996 1.29 0 2.513-.44 3.377-1.187l.915.989zm-4.204-6.489c-.791-.784-1.076-1.26-1.076-1.817 0-.761.564-1.303 1.347-1.303.799 0 1.348.527 1.348 1.296 0 .71-.439 1.223-1.619 1.824zm-.747 1.648c.096-.052.271-.139.345-.169l2.79 3.04c-.52.549-1.428.893-2.322.893-1.318 0-2.204-.739-2.204-1.845 0-.762.461-1.429 1.391-1.919zm12.196 5.896h.871v-1.231c1.85-.139 3.3-1.15 3.3-2.944 0-1.56-1.04-2.351-2.97-2.798l-.33-.081v-3.061c.92.124 1.58.659 1.67 1.575h1.52c-.06-1.656-1.37-2.754-3.19-2.901v-1.245h-.871v1.245c-1.831.139-3.142 1.216-3.142 2.857 0 1.487 1.003 2.321 2.864 2.754l.278.073v3.193c-1.165-.124-1.714-.754-1.846-1.611h-1.523c.058 1.75 1.516 2.798 3.369 2.944v1.231zm-1.59-8.709c0-.666.542-1.274 1.59-1.406v2.856c-1.157-.293-1.59-.783-1.59-1.45zm4.221 4.68c0 .784-.53 1.37-1.76 1.473v-3.003c1.34.322 1.76.769 1.76 1.53zm4.87-7.602l.15 7.075h1.48l.15-7.075h-1.78zm.9 10.737c.67 0 1.12-.439 1.12-1.091 0-.659-.45-1.099-1.12-1.099-.68 0-1.13.44-1.13 1.099 0 .652.45 1.091 1.13 1.091zm7.85-.161h1.26l.58-2.893h1.87l.23-1.238h-1.86l.5-2.424h1.81l.23-1.231h-1.78l.56-2.783h-1.25l-.57 2.783h-2.21l.55-2.783h-1.24l-.58 2.783h-1.77l-.25 1.231h1.77l-.48 2.424h-1.71l-.24 1.238h1.69l-.58 2.893h1.25l.58-2.893h2.22l-.58 2.893zm-1.44-4.072l.51-2.534h2.31l-.52 2.534h-2.3zm9.62-1.663c1.49 0 2.38-.937 2.38-2.519 0-1.553-.9-2.513-2.38-2.513-1.46 0-2.37.96-2.37 2.513 0 1.582.89 2.519 2.37 2.519zm.7 5.735l7.2-10.569h-1.37L1023 413h1.38zm-.7-6.804c-.66 0-1.04-.528-1.04-1.443 0-.901.39-1.436 1.04-1.436.66 0 1.04.535 1.04 1.436 0 .908-.37 1.443-1.04 1.443zm7.23 6.914c1.48 0 2.37-.938 2.37-2.52 0-1.56-.9-2.512-2.37-2.512-1.47 0-2.38.96-2.38 2.512 0 1.575.9 2.52 2.38 2.52zm0-1.077c-.66 0-1.04-.52-1.04-1.435 0-.901.38-1.443 1.04-1.443s1.04.542 1.04 1.443c0 .908-.38 1.435-1.04 1.435z" fill="#fff"/>
  <g filter="url(#filter23_i)">
    <path d="M804 355.861c-19.376 0-35.139 15.763-35.139 35.139 0 19.376 15.763 35.139 35.139 35.139 19.376 0 35.139-15.763 35.139-35.139 0-19.376-15.763-35.139-35.139-35.139z" fill="#E86F18"/>
    <path d="M804 355.861c-19.376 0-35.139 15.763-35.139 35.139 0 19.376 15.763 35.139 35.139 35.139 19.376 0 35.139-15.763 35.139-35.139 0-19.376-15.763-35.139-35.139-35.139z" fill="url(#paint10_linear)" fill-opacity=".7"/>
  </g>
  <path d="M804 359c-17.645 0-32 14.355-32 32s14.355 32 32 32 32-14.355 32-32-14.355-32-32-32z" fill="url(#paint11_linear)" fill-opacity=".3"/>
  <g filter="url(#filter24_i)">
    <path d="M799 388.5c0 3.59-2.017 6.5-4.5 6.5s-4.5-2.91-4.5-6.5c0-3.586 2.017-6.5 4.5-6.5s4.5 2.914 4.5 6.5z" fill="#553131"/>
  </g>
  <g filter="url(#filter25_i)">
    <path d="M818 388.5c0 3.59-2.017 6.5-4.5 6.5s-4.5-2.91-4.5-6.5c0-3.586 2.017-6.5 4.5-6.5s4.5 2.914 4.5 6.5z" fill="#553131"/>
  </g>
  <g filter="url(#filter26_i)">
    <path d="M788.139 372.667l10.694 6.111" stroke="#4D3E2D" stroke-width="2.5" stroke-miterlimit="10" stroke-linecap="round" stroke-linejoin="round"/>
  </g>
  <g filter="url(#filter27_i)">
    <path d="M819.861 372.667l-10.694 6.111" stroke="#4D3E2D" stroke-width="2.5" stroke-miterlimit="10" stroke-linecap="round" stroke-linejoin="round"/>
  </g>
  <g filter="url(#filter28_i)">
    <path d="M794.069 404.695c1.962-.975 6.088-1.575 10.454-1.525 4.008.045 7.623.633 9.408 1.525" stroke="#4D3E2D" stroke-width="2.5" stroke-miterlimit="10" stroke-linecap="round" stroke-linejoin="round"/>
  </g>
  <g filter="url(#filter29_d)">
    <path transform="matrix(-1 0 0 1 1090 412)" fill="url(#paint12_linear)" d="M0 0h164v110H0z"/>
  </g>
  <path d="M1001.91 477h4.39l-6.863-19.729h-4.853L987.734 477h4.238l1.504-4.785h6.934l1.5 4.785zm-5.016-15.955h.096l2.529 8.08h-5.154l2.529-8.08zm11.786-3.774V477h7.54c5.92 0 9.4-3.678 9.4-9.939 0-6.262-3.48-9.79-9.4-9.79h-7.54zm4.13 3.405h2.91c3.64 0 5.69 2.269 5.69 6.398 0 4.266-1.99 6.508-5.69 6.508h-2.91v-12.906zM1063 426.41l1.41-1.41 5.59 5.59 5.59-5.59 1.41 1.41-5.59 5.59 5.59 5.59-1.41 1.41-5.59-5.59-5.59 5.59-1.41-1.41 5.59-5.59-5.59-5.59z" fill="#fff"/>
  <g filter="url(#filter30_d)">
    <path transform="matrix(-1 0 0 1 886 412)" fill="url(#paint13_linear)" d="M0 0h164v110H0z"/>
  </g>
  <path d="M797.912 477h4.388l-6.863-19.729h-4.853L783.734 477h4.238l1.504-4.785h6.932l1.504 4.785zm-5.018-15.955h.096l2.529 8.08h-5.154l2.529-8.08zm11.79-3.774V477h7.533c5.92 0 9.406-3.678 9.406-9.939 0-6.262-3.486-9.79-9.406-9.79h-7.533zm4.129 3.405h2.912c3.637 0 5.687 2.269 5.687 6.398 0 4.266-1.996 6.508-5.687 6.508h-2.912v-12.906zM859 426.41l1.41-1.41 5.59 5.59 5.59-5.59 1.41 1.41-5.59 5.59 5.59 5.59-1.41 1.41-5.59-5.59-5.59 5.59-1.41-1.41 5.59-5.59-5.59-5.59z" fill="#fff"/>
  <g filter="url(#filter31_d)">
    <path transform="matrix(-1 0 0 1 682 412)" fill="url(#paint14_linear)" d="M0 0h164v110H0z"/>
  </g>
  <path d="M593.912 477h4.388l-6.863-19.729h-4.853L579.734 477h4.238l1.504-4.785h6.932l1.504 4.785zm-5.018-15.955h.096l2.529 8.08h-5.154l2.529-8.08zm11.79-3.774V477h7.533c5.92 0 9.406-3.678 9.406-9.939 0-6.262-3.486-9.79-9.406-9.79h-7.533zm4.129 3.405h2.912c3.637 0 5.687 2.269 5.687 6.398 0 4.266-1.996 6.508-5.687 6.508h-2.912v-12.906zM655 426.41l1.41-1.41 5.59 5.59 5.59-5.59 1.41 1.41-5.59 5.59 5.59 5.59-1.41 1.41-5.59-5.59-5.59 5.59-1.41-1.41 5.59-5.59-5.59-5.59z" fill="#fff"/>
  <g filter="url(#filter32_d)">
    <path transform="matrix(-1 0 0 1 478 412)" fill="url(#paint15_linear)" d="M0 0h164v110H0z"/>
  </g>
  <path d="M389.912 477h4.388l-6.863-19.729h-4.853L375.734 477h4.238l1.504-4.785h6.932l1.504 4.785zm-5.018-15.955h.096l2.529 8.08h-5.154l2.529-8.08zm11.79-3.774V477h7.533c5.92 0 9.406-3.678 9.406-9.939 0-6.262-3.486-9.79-9.406-9.79h-7.533zm4.129 3.405h2.912c3.637 0 5.687 2.269 5.687 6.398 0 4.266-1.996 6.508-5.687 6.508h-2.912v-12.906zM451 426.41l1.41-1.41 5.59 5.59 5.59-5.59 1.41 1.41-5.59 5.59 5.59 5.59-1.41 1.41-5.59-5.59-5.59 5.59-1.41-1.41 5.59-5.59-5.59-5.59z" fill="#fff"/>
  <g filter="url(#filter33_d)">
    <path transform="matrix(-1 0 0 1 274 412)" fill="url(#paint16_linear)" d="M0 0h164v110H0z"/>
  </g>
  <path d="M185.912 477h4.388l-6.863-19.729h-4.853L171.734 477h4.238l1.504-4.785h6.932l1.504 4.785zm-5.018-15.955h.096l2.529 8.08h-5.154l2.529-8.08zm11.79-3.774V477h7.533c5.92 0 9.406-3.678 9.406-9.939 0-6.262-3.486-9.79-9.406-9.79h-7.533zm4.129 3.405h2.912c3.637 0 5.687 2.269 5.687 6.398 0 4.266-1.996 6.508-5.687 6.508h-2.912v-12.906zM247 426.41l1.41-1.41 5.59 5.59 5.59-5.59 1.41 1.41-5.59 5.59 5.59 5.59-1.41 1.41-5.59-5.59-5.59 5.59-1.41-1.41 5.59-5.59-5.59-5.59z" fill="#fff"/>
  <path d="M1090 562l-12.5-7.217v14.434L1090 562zm-980 1.25h968.75v-2.5H110v2.5z" fill="#767676"/>
  <path d="M546.676 637h4.389l-6.864-19.729h-4.853L532.498 637h4.238l1.504-4.785h6.932l1.504 4.785zm-5.018-15.955h.096l2.529 8.08h-5.154l2.529-8.08zm11.79-3.774V637h7.533c5.92 0 9.406-3.678 9.406-9.939 0-6.262-3.486-9.79-9.406-9.79h-7.533zm4.129 3.405h2.912c3.637 0 5.687 2.269 5.687 6.398 0 4.266-1.996 6.508-5.687 6.508h-2.912v-12.906zm15.084 10.691c.124 3.719 3.254 5.961 7.958 5.961 4.935 0 7.957-2.433 7.957-6.289 0-2.994-1.819-4.676-5.989-5.51l-2.092-.424c-2.324-.464-3.281-1.216-3.281-2.433 0-1.449 1.367-2.406 3.405-2.406 2.078 0 3.541 1.011 3.677 2.693h3.897c-.069-3.623-2.967-6.029-7.574-6.029-4.389 0-7.534 2.392-7.534 6.002 0 2.939 1.928 4.826 5.866 5.605l2.078.41c2.474.506 3.404 1.244 3.404 2.543 0 1.449-1.504 2.516-3.705 2.516-2.242 0-3.91-.985-4.17-2.639h-3.897zm18.804-14.096V637h4.129v-6.221h3.691c4.156 0 7.041-2.707 7.041-6.754 0-4.06-2.789-6.754-6.836-6.754h-8.025zm4.129 3.268h2.802c2.366 0 3.733 1.258 3.733 3.5 0 2.256-1.381 3.514-3.746 3.514h-2.789v-7.014zm26.61 13.043h-8.942v-4.977h8.436v-3.171h-8.436v-4.758h8.942v-3.405h-13.071V637h13.071v-3.418zm7.291 3.418v-12.92h.123l9.229 12.92h3.418v-19.729h-3.951v12.852h-.11l-9.214-12.852h-3.446V637h3.951zm16.425-19.729V637h7.533c5.92 0 9.406-3.678 9.406-9.939 0-6.262-3.486-9.79-9.406-9.79h-7.533zm4.129 3.405h2.912c3.637 0 5.687 2.269 5.687 6.398 0 4.266-1.996 6.508-5.687 6.508h-2.912v-12.906z" fill="#fff"/>
  <defs>
    <filter id="filter0_i" x="156.861" y="355.861" width="70.2778" height="70.2778" filterUnits="userSpaceOnUse" color-interpolation-filters="sRGB">
      <feFlood flood-opacity="0" result="BackgroundImageFix"/>
      <feBlend in="SourceGraphic" in2="BackgroundImageFix" result="shape"/>
      <feColorMatrix in="SourceAlpha" values="0 0 0 0 0 0 0 0 0 0 0 0 0 0 0 0 0 0 127 0" result="hardAlpha"/>
      <feOffset/>
      <feGaussianBlur stdDeviation="7"/>
      <feComposite in2="hardAlpha" operator="arithmetic" k2="-1" k3="1"/>
      <feColorMatrix values="0 0 0 0 0 0 0 0 0 0 0 0 0 0 0 0 0 0 0.3 0"/>
      <feBlend in2="shape" result="effect1_innerShadow"/>
    </filter>
    <filter id="filter1_i" x="181.507" y="401.648" width="20.9886" height="9.39124" filterUnits="userSpaceOnUse" color-interpolation-filters="sRGB">
      <feFlood flood-opacity="0" result="BackgroundImageFix"/>
      <feBlend in="SourceGraphic" in2="BackgroundImageFix" result="shape"/>
      <feColorMatrix in="SourceAlpha" values="0 0 0 0 0 0 0 0 0 0 0 0 0 0 0 0 0 0 127 0" result="hardAlpha"/>
      <feOffset/>
      <feGaussianBlur stdDeviation="2"/>
      <feComposite in2="hardAlpha" operator="arithmetic" k2="-1" k3="1"/>
      <feColorMatrix values="0 0 0 0 0 0 0 0 0 0 0 0 0 0 0 0 0 0 0.4 0"/>
      <feBlend in2="shape" result="effect1_innerShadow"/>
    </filter>
    <filter id="filter2_i" x="174" y="382" width="9" height="11" filterUnits="userSpaceOnUse" color-interpolation-filters="sRGB">
      <feFlood flood-opacity="0" result="BackgroundImageFix"/>
      <feBlend in="SourceGraphic" in2="BackgroundImageFix" result="shape"/>
      <feColorMatrix in="SourceAlpha" values="0 0 0 0 0 0 0 0 0 0 0 0 0 0 0 0 0 0 127 0" result="hardAlpha"/>
      <feOffset/>
      <feGaussianBlur stdDeviation="2"/>
      <feComposite in2="hardAlpha" operator="arithmetic" k2="-1" k3="1"/>
      <feColorMatrix values="0 0 0 0 0 0 0 0 0 0 0 0 0 0 0 0 0 0 0.4 0"/>
      <feBlend in2="shape" result="effect1_innerShadow"/>
    </filter>
    <filter id="filter3_i" x="201" y="382" width="9" height="11" filterUnits="userSpaceOnUse" color-interpolation-filters="sRGB">
      <feFlood flood-opacity="0" result="BackgroundImageFix"/>
      <feBlend in="SourceGraphic" in2="BackgroundImageFix" result="shape"/>
      <feColorMatrix in="SourceAlpha" values="0 0 0 0 0 0 0 0 0 0 0 0 0 0 0 0 0 0 127 0" result="hardAlpha"/>
      <feOffset/>
      <feGaussianBlur stdDeviation="2"/>
      <feComposite in2="hardAlpha" operator="arithmetic" k2="-1" k3="1"/>
      <feColorMatrix values="0 0 0 0 0 0 0 0 0 0 0 0 0 0 0 0 0 0 0.4 0"/>
      <feBlend in2="shape" result="effect1_innerShadow"/>
    </filter>
    <filter id="filter4_i" x="360.861" y="355.861" width="70.2778" height="70.2778" filterUnits="userSpaceOnUse" color-interpolation-filters="sRGB">
      <feFlood flood-opacity="0" result="BackgroundImageFix"/>
      <feBlend in="SourceGraphic" in2="BackgroundImageFix" result="shape"/>
      <feColorMatrix in="SourceAlpha" values="0 0 0 0 0 0 0 0 0 0 0 0 0 0 0 0 0 0 127 0" result="hardAlpha"/>
      <feOffset/>
      <feGaussianBlur stdDeviation="7"/>
      <feComposite in2="hardAlpha" operator="arithmetic" k2="-1" k3="1"/>
      <feColorMatrix values="0 0 0 0 0 0 0 0 0 0 0 0 0 0 0 0 0 0 0.3 0"/>
      <feBlend in2="shape" result="effect1_innerShadow"/>
    </filter>
    <filter id="filter5_i" x="374.178" y="368.182" width="15.3074" height="8.61202" filterUnits="userSpaceOnUse" color-interpolation-filters="sRGB">
      <feFlood flood-opacity="0" result="BackgroundImageFix"/>
      <feBlend in="SourceGraphic" in2="BackgroundImageFix" result="shape"/>
      <feColorMatrix in="SourceAlpha" values="0 0 0 0 0 0 0 0 0 0 0 0 0 0 0 0 0 0 127 0" result="hardAlpha"/>
      <feOffset dy="1"/>
      <feGaussianBlur stdDeviation="1"/>
      <feComposite in2="hardAlpha" operator="arithmetic" k2="-1" k3="1"/>
      <feColorMatrix values="0 0 0 0 0 0 0 0 0 0 0 0 0 0 0 0 0 0 0.25 0"/>
      <feBlend in2="shape" result="effect1_innerShadow"/>
    </filter>
    <filter id="filter6_i" x="380.371" y="398.065" width="31.2889" height="12.166" filterUnits="userSpaceOnUse" color-interpolation-filters="sRGB">
      <feFlood flood-opacity="0" result="BackgroundImageFix"/>
      <feBlend in="SourceGraphic" in2="BackgroundImageFix" result="shape"/>
      <feColorMatrix in="SourceAlpha" values="0 0 0 0 0 0 0 0 0 0 0 0 0 0 0 0 0 0 127 0" result="hardAlpha"/>
      <feOffset/>
      <feGaussianBlur stdDeviation="2"/>
      <feComposite in2="hardAlpha" operator="arithmetic" k2="-1" k3="1"/>
      <feColorMatrix values="0 0 0 0 0 0 0 0 0 0 0 0 0 0 0 0 0 0 0.4 0"/>
      <feBlend in2="shape" result="effect1_innerShadow"/>
    </filter>
    <filter id="filter7_i" x="376.133" y="380.246" width="15.3547" height="12.0623" filterUnits="userSpaceOnUse" color-interpolation-filters="sRGB">
      <feFlood flood-opacity="0" result="BackgroundImageFix"/>
      <feBlend in="SourceGraphic" in2="BackgroundImageFix" result="shape"/>
      <feColorMatrix in="SourceAlpha" values="0 0 0 0 0 0 0 0 0 0 0 0 0 0 0 0 0 0 127 0" result="hardAlpha"/>
      <feOffset dy="1"/>
      <feGaussianBlur stdDeviation="1"/>
      <feComposite in2="hardAlpha" operator="arithmetic" k2="-1" k3="1"/>
      <feColorMatrix values="0 0 0 0 0 0 0 0 0 0 0 0 0 0 0 0 0 0 0.25 0"/>
      <feBlend in2="shape" result="effect1_innerShadow"/>
    </filter>
    <filter id="filter8_i" x="402.515" y="368.182" width="15.3074" height="8.61202" filterUnits="userSpaceOnUse" color-interpolation-filters="sRGB">
      <feFlood flood-opacity="0" result="BackgroundImageFix"/>
      <feBlend in="SourceGraphic" in2="BackgroundImageFix" result="shape"/>
      <feColorMatrix in="SourceAlpha" values="0 0 0 0 0 0 0 0 0 0 0 0 0 0 0 0 0 0 127 0" result="hardAlpha"/>
      <feOffset dy="1"/>
      <feGaussianBlur stdDeviation="1"/>
      <feComposite in2="hardAlpha" operator="arithmetic" k2="-1" k3="1"/>
      <feColorMatrix values="0 0 0 0 0 0 0 0 0 0 0 0 0 0 0 0 0 0 0.25 0"/>
      <feBlend in2="shape" result="effect1_innerShadow"/>
    </filter>
    <filter id="filter9_i" x="400.512" y="380.246" width="15.3547" height="12.0623" filterUnits="userSpaceOnUse" color-interpolation-filters="sRGB">
      <feFlood flood-opacity="0" result="BackgroundImageFix"/>
      <feBlend in="SourceGraphic" in2="BackgroundImageFix" result="shape"/>
      <feColorMatrix in="SourceAlpha" values="0 0 0 0 0 0 0 0 0 0 0 0 0 0 0 0 0 0 127 0" result="hardAlpha"/>
      <feOffset dy="1"/>
      <feGaussianBlur stdDeviation="1"/>
      <feComposite in2="hardAlpha" operator="arithmetic" k2="-1" k3="1"/>
      <feColorMatrix values="0 0 0 0 0 0 0 0 0 0 0 0 0 0 0 0 0 0 0.25 0"/>
      <feBlend in2="shape" result="effect1_innerShadow"/>
    </filter>
    <filter id="filter10_i" x="562.861" y="355.861" width="70.2778" height="70.2778" filterUnits="userSpaceOnUse" color-interpolation-filters="sRGB">
      <feFlood flood-opacity="0" result="BackgroundImageFix"/>
      <feBlend in="SourceGraphic" in2="BackgroundImageFix" result="shape"/>
      <feColorMatrix in="SourceAlpha" values="0 0 0 0 0 0 0 0 0 0 0 0 0 0 0 0 0 0 127 0" result="hardAlpha"/>
      <feOffset/>
      <feGaussianBlur stdDeviation="7"/>
      <feComposite in2="hardAlpha" operator="arithmetic" k2="-1" k3="1"/>
      <feColorMatrix values="0 0 0 0 0 0 0 0 0 0 0 0 0 0 0 0 0 0 0.3 0"/>
      <feBlend in2="shape" result="effect1_innerShadow"/>
    </filter>
    <filter id="filter11_i" x="577.889" y="372.417" width="13.1949" height="9.61154" filterUnits="userSpaceOnUse" color-interpolation-filters="sRGB">
      <feFlood flood-opacity="0" result="BackgroundImageFix"/>
      <feBlend in="SourceGraphic" in2="BackgroundImageFix" result="shape"/>
      <feColorMatrix in="SourceAlpha" values="0 0 0 0 0 0 0 0 0 0 0 0 0 0 0 0 0 0 127 0" result="hardAlpha"/>
      <feOffset dy="1"/>
      <feGaussianBlur stdDeviation="1"/>
      <feComposite in2="hardAlpha" operator="arithmetic" k2="-1" k3="1"/>
      <feColorMatrix values="0 0 0 0 0 0 0 0 0 0 0 0 0 0 0 0 0 0 0.25 0"/>
      <feBlend in2="shape" result="effect1_innerShadow"/>
    </filter>
    <filter id="filter12_i" x="604.916" y="372.417" width="13.1949" height="9.61154" filterUnits="userSpaceOnUse" color-interpolation-filters="sRGB">
      <feFlood flood-opacity="0" result="BackgroundImageFix"/>
      <feBlend in="SourceGraphic" in2="BackgroundImageFix" result="shape"/>
      <feColorMatrix in="SourceAlpha" values="0 0 0 0 0 0 0 0 0 0 0 0 0 0 0 0 0 0 127 0" result="hardAlpha"/>
      <feOffset dy="1"/>
      <feGaussianBlur stdDeviation="1"/>
      <feComposite in2="hardAlpha" operator="arithmetic" k2="-1" k3="1"/>
      <feColorMatrix values="0 0 0 0 0 0 0 0 0 0 0 0 0 0 0 0 0 0 0.25 0"/>
      <feBlend in2="shape" result="effect1_innerShadow"/>
    </filter>
    <filter id="filter13_i" x="580.75" y="399.75" width="36.5007" height="6.50033" filterUnits="userSpaceOnUse" color-interpolation-filters="sRGB">
      <feFlood flood-opacity="0" result="BackgroundImageFix"/>
      <feBlend in="SourceGraphic" in2="BackgroundImageFix" result="shape"/>
      <feColorMatrix in="SourceAlpha" values="0 0 0 0 0 0 0 0 0 0 0 0 0 0 0 0 0 0 127 0" result="hardAlpha"/>
      <feOffset dy="1"/>
      <feGaussianBlur stdDeviation="1"/>
      <feComposite in2="hardAlpha" operator="arithmetic" k2="-1" k3="1"/>
      <feColorMatrix values="0 0 0 0 0 0 0 0 0 0 0 0 0 0 0 0 0 0 0.25 0"/>
      <feBlend in2="shape" result="effect1_innerShadow"/>
    </filter>
    <filter id="filter14_i" x="577.125" y="385.285" width="16.2501" height="6.01231" filterUnits="userSpaceOnUse" color-interpolation-filters="sRGB">
      <feFlood flood-opacity="0" result="BackgroundImageFix"/>
      <feBlend in="SourceGraphic" in2="BackgroundImageFix" result="shape"/>
      <feColorMatrix in="SourceAlpha" values="0 0 0 0 0 0 0 0 0 0 0 0 0 0 0 0 0 0 127 0" result="hardAlpha"/>
      <feOffset dy="1"/>
      <feGaussianBlur stdDeviation="1"/>
      <feComposite in2="hardAlpha" operator="arithmetic" k2="-1" k3="1"/>
      <feColorMatrix values="0 0 0 0 0 0 0 0 0 0 0 0 0 0 0 0 0 0 0.25 0"/>
      <feBlend in2="shape" result="effect1_innerShadow"/>
    </filter>
    <filter id="filter15_i" x="602.625" y="385.285" width="16.2501" height="6.01231" filterUnits="userSpaceOnUse" color-interpolation-filters="sRGB">
      <feFlood flood-opacity="0" result="BackgroundImageFix"/>
      <feBlend in="SourceGraphic" in2="BackgroundImageFix" result="shape"/>
      <feColorMatrix in="SourceAlpha" values="0 0 0 0 0 0 0 0 0 0 0 0 0 0 0 0 0 0 127 0" result="hardAlpha"/>
      <feOffset dy="1"/>
      <feGaussianBlur stdDeviation="1"/>
      <feComposite in2="hardAlpha" operator="arithmetic" k2="-1" k3="1"/>
      <feColorMatrix values="0 0 0 0 0 0 0 0 0 0 0 0 0 0 0 0 0 0 0.25 0"/>
      <feBlend in2="shape" result="effect1_innerShadow"/>
    </filter>
    <filter id="filter16_di" x="598.085" y="394.287" width="38.0309" height="44.7082" filterUnits="userSpaceOnUse" color-interpolation-filters="sRGB">
      <feFlood flood-opacity="0" result="BackgroundImageFix"/>
      <feColorMatrix in="SourceAlpha" values="0 0 0 0 0 0 0 0 0 0 0 0 0 0 0 0 0 0 127 0"/>
      <feOffset dy="4"/>
      <feGaussianBlur stdDeviation="2"/>
      <feColorMatrix values="0 0 0 0 0 0 0 0 0 0 0 0 0 0 0 0 0 0 0.25 0"/>
      <feBlend in2="BackgroundImageFix" result="effect1_dropShadow"/>
      <feBlend in="SourceGraphic" in2="effect1_dropShadow" result="shape"/>
      <feColorMatrix in="SourceAlpha" values="0 0 0 0 0 0 0 0 0 0 0 0 0 0 0 0 0 0 127 0" result="hardAlpha"/>
      <feOffset dy="1"/>
      <feGaussianBlur stdDeviation="1.5"/>
      <feComposite in2="hardAlpha" operator="arithmetic" k2="-1" k3="1"/>
      <feColorMatrix values="0 0 0 0 0 0 0 0 0 0 0 0 0 0 0 0 0 0 0.15 0"/>
      <feBlend in2="shape" result="effect2_innerShadow"/>
    </filter>
    <filter id="filter17_di" x="561.772" y="393.942" width="38.0311" height="44.7082" filterUnits="userSpaceOnUse" color-interpolation-filters="sRGB">
      <feFlood flood-opacity="0" result="BackgroundImageFix"/>
      <feColorMatrix in="SourceAlpha" values="0 0 0 0 0 0 0 0 0 0 0 0 0 0 0 0 0 0 127 0"/>
      <feOffset dy="4"/>
      <feGaussianBlur stdDeviation="2"/>
      <feColorMatrix values="0 0 0 0 0 0 0 0 0 0 0 0 0 0 0 0 0 0 0.25 0"/>
      <feBlend in2="BackgroundImageFix" result="effect1_dropShadow"/>
      <feBlend in="SourceGraphic" in2="effect1_dropShadow" result="shape"/>
      <feColorMatrix in="SourceAlpha" values="0 0 0 0 0 0 0 0 0 0 0 0 0 0 0 0 0 0 127 0" result="hardAlpha"/>
      <feOffset dy="2"/>
      <feGaussianBlur stdDeviation="1.5"/>
      <feComposite in2="hardAlpha" operator="arithmetic" k2="-1" k3="1"/>
      <feColorMatrix values="0 0 0 0 0 0 0 0 0 0 0 0 0 0 0 0 0 0 0.15 0"/>
      <feBlend in2="shape" result="effect2_innerShadow"/>
    </filter>
    <filter id="filter18_i" x="972.861" y="355.861" width="70.2778" height="70.2778" filterUnits="userSpaceOnUse" color-interpolation-filters="sRGB">
      <feFlood flood-opacity="0" result="BackgroundImageFix"/>
      <feBlend in="SourceGraphic" in2="BackgroundImageFix" result="shape"/>
      <feColorMatrix in="SourceAlpha" values="0 0 0 0 0 0 0 0 0 0 0 0 0 0 0 0 0 0 127 0" result="hardAlpha"/>
      <feOffset/>
      <feGaussianBlur stdDeviation="7"/>
      <feComposite in2="hardAlpha" operator="arithmetic" k2="-1" k3="1"/>
      <feColorMatrix values="0 0 0 0 0 0 0 0 0 0 0 0 0 0 0 0 0 0 0.3 0"/>
      <feBlend in2="shape" result="effect1_innerShadow"/>
    </filter>
    <filter id="filter19_i" x="994" y="380" width="9" height="13" filterUnits="userSpaceOnUse" color-interpolation-filters="sRGB">
      <feFlood flood-opacity="0" result="BackgroundImageFix"/>
      <feBlend in="SourceGraphic" in2="BackgroundImageFix" result="shape"/>
      <feColorMatrix in="SourceAlpha" values="0 0 0 0 0 0 0 0 0 0 0 0 0 0 0 0 0 0 127 0" result="hardAlpha"/>
      <feOffset/>
      <feGaussianBlur stdDeviation="2"/>
      <feComposite in2="hardAlpha" operator="arithmetic" k2="-1" k3="1"/>
      <feColorMatrix values="0 0 0 0 0 0 0 0 0 0 0 0 0 0 0 0 0 0 0.4 0"/>
      <feBlend in2="shape" result="effect1_innerShadow"/>
    </filter>
    <filter id="filter20_i" x="1013" y="380" width="9" height="13" filterUnits="userSpaceOnUse" color-interpolation-filters="sRGB">
      <feFlood flood-opacity="0" result="BackgroundImageFix"/>
      <feBlend in="SourceGraphic" in2="BackgroundImageFix" result="shape"/>
      <feColorMatrix in="SourceAlpha" values="0 0 0 0 0 0 0 0 0 0 0 0 0 0 0 0 0 0 127 0" result="hardAlpha"/>
      <feOffset/>
      <feGaussianBlur stdDeviation="2"/>
      <feComposite in2="hardAlpha" operator="arithmetic" k2="-1" k3="1"/>
      <feColorMatrix values="0 0 0 0 0 0 0 0 0 0 0 0 0 0 0 0 0 0 0.4 0"/>
      <feBlend in2="shape" result="effect1_innerShadow"/>
    </filter>
    <filter id="filter21_i" x="990.889" y="370.061" width="13.1949" height="9.61154" filterUnits="userSpaceOnUse" color-interpolation-filters="sRGB">
      <feFlood flood-opacity="0" result="BackgroundImageFix"/>
      <feBlend in="SourceGraphic" in2="BackgroundImageFix" result="shape"/>
      <feColorMatrix in="SourceAlpha" values="0 0 0 0 0 0 0 0 0 0 0 0 0 0 0 0 0 0 127 0" result="hardAlpha"/>
      <feOffset dy="1"/>
      <feGaussianBlur stdDeviation="1"/>
      <feComposite in2="hardAlpha" operator="arithmetic" k2="-1" k3="1"/>
      <feColorMatrix values="0 0 0 0 0 0 0 0 0 0 0 0 0 0 0 0 0 0 0.25 0"/>
      <feBlend in2="shape" result="effect1_innerShadow"/>
    </filter>
    <filter id="filter22_i" x="1011.92" y="370.061" width="13.1949" height="9.61154" filterUnits="userSpaceOnUse" color-interpolation-filters="sRGB">
      <feFlood flood-opacity="0" result="BackgroundImageFix"/>
      <feBlend in="SourceGraphic" in2="BackgroundImageFix" result="shape"/>
      <feColorMatrix in="SourceAlpha" values="0 0 0 0 0 0 0 0 0 0 0 0 0 0 0 0 0 0 127 0" result="hardAlpha"/>
      <feOffset dy="1"/>
      <feGaussianBlur stdDeviation="1"/>
      <feComposite in2="hardAlpha" operator="arithmetic" k2="-1" k3="1"/>
      <feColorMatrix values="0 0 0 0 0 0 0 0 0 0 0 0 0 0 0 0 0 0 0.25 0"/>
      <feBlend in2="shape" result="effect1_innerShadow"/>
    </filter>
    <filter id="filter23_i" x="768.861" y="355.861" width="70.2778" height="70.2778" filterUnits="userSpaceOnUse" color-interpolation-filters="sRGB">
      <feFlood flood-opacity="0" result="BackgroundImageFix"/>
      <feBlend in="SourceGraphic" in2="BackgroundImageFix" result="shape"/>
      <feColorMatrix in="SourceAlpha" values="0 0 0 0 0 0 0 0 0 0 0 0 0 0 0 0 0 0 127 0" result="hardAlpha"/>
      <feOffset/>
      <feGaussianBlur stdDeviation="7"/>
      <feComposite in2="hardAlpha" operator="arithmetic" k2="-1" k3="1"/>
      <feColorMatrix values="0 0 0 0 0 0 0 0 0 0 0 0 0 0 0 0 0 0 0.3 0"/>
      <feBlend in2="shape" result="effect1_innerShadow"/>
    </filter>
    <filter id="filter24_i" x="790" y="382" width="9" height="13" filterUnits="userSpaceOnUse" color-interpolation-filters="sRGB">
      <feFlood flood-opacity="0" result="BackgroundImageFix"/>
      <feBlend in="SourceGraphic" in2="BackgroundImageFix" result="shape"/>
      <feColorMatrix in="SourceAlpha" values="0 0 0 0 0 0 0 0 0 0 0 0 0 0 0 0 0 0 127 0" result="hardAlpha"/>
      <feOffset/>
      <feGaussianBlur stdDeviation="2"/>
      <feComposite in2="hardAlpha" operator="arithmetic" k2="-1" k3="1"/>
      <feColorMatrix values="0 0 0 0 0 0 0 0 0 0 0 0 0 0 0 0 0 0 0.4 0"/>
      <feBlend in2="shape" result="effect1_innerShadow"/>
    </filter>
    <filter id="filter25_i" x="809" y="382" width="9" height="13" filterUnits="userSpaceOnUse" color-interpolation-filters="sRGB">
      <feFlood flood-opacity="0" result="BackgroundImageFix"/>
      <feBlend in="SourceGraphic" in2="BackgroundImageFix" result="shape"/>
      <feColorMatrix in="SourceAlpha" values="0 0 0 0 0 0 0 0 0 0 0 0 0 0 0 0 0 0 127 0" result="hardAlpha"/>
      <feOffset/>
      <feGaussianBlur stdDeviation="2"/>
      <feComposite in2="hardAlpha" operator="arithmetic" k2="-1" k3="1"/>
      <feColorMatrix values="0 0 0 0 0 0 0 0 0 0 0 0 0 0 0 0 0 0 0.4 0"/>
      <feBlend in2="shape" result="effect1_innerShadow"/>
    </filter>
    <filter id="filter26_i" x="786.889" y="371.417" width="13.1949" height="9.61154" filterUnits="userSpaceOnUse" color-interpolation-filters="sRGB">
      <feFlood flood-opacity="0" result="BackgroundImageFix"/>
      <feBlend in="SourceGraphic" in2="BackgroundImageFix" result="shape"/>
      <feColorMatrix in="SourceAlpha" values="0 0 0 0 0 0 0 0 0 0 0 0 0 0 0 0 0 0 127 0" result="hardAlpha"/>
      <feOffset dy="1"/>
      <feGaussianBlur stdDeviation="1"/>
      <feComposite in2="hardAlpha" operator="arithmetic" k2="-1" k3="1"/>
      <feColorMatrix values="0 0 0 0 0 0 0 0 0 0 0 0 0 0 0 0 0 0 0.25 0"/>
      <feBlend in2="shape" result="effect1_innerShadow"/>
    </filter>
    <filter id="filter27_i" x="807.916" y="371.417" width="13.1949" height="9.61154" filterUnits="userSpaceOnUse" color-interpolation-filters="sRGB">
      <feFlood flood-opacity="0" result="BackgroundImageFix"/>
      <feBlend in="SourceGraphic" in2="BackgroundImageFix" result="shape"/>
      <feColorMatrix in="SourceAlpha" values="0 0 0 0 0 0 0 0 0 0 0 0 0 0 0 0 0 0 127 0" result="hardAlpha"/>
      <feOffset dy="1"/>
      <feGaussianBlur stdDeviation="1"/>
      <feComposite in2="hardAlpha" operator="arithmetic" k2="-1" k3="1"/>
      <feColorMatrix values="0 0 0 0 0 0 0 0 0 0 0 0 0 0 0 0 0 0 0.25 0"/>
      <feBlend in2="shape" result="effect1_innerShadow"/>
    </filter>
    <filter id="filter28_i" x="792.819" y="401.917" width="22.3617" height="5.02805" filterUnits="userSpaceOnUse" color-interpolation-filters="sRGB">
      <feFlood flood-opacity="0" result="BackgroundImageFix"/>
      <feBlend in="SourceGraphic" in2="BackgroundImageFix" result="shape"/>
      <feColorMatrix in="SourceAlpha" values="0 0 0 0 0 0 0 0 0 0 0 0 0 0 0 0 0 0 127 0" result="hardAlpha"/>
      <feOffset dy="1"/>
      <feGaussianBlur stdDeviation="1"/>
      <feComposite in2="hardAlpha" operator="arithmetic" k2="-1" k3="1"/>
      <feColorMatrix values="0 0 0 0 0 0 0 0 0 0 0 0 0 0 0 0 0 0 0.25 0"/>
      <feBlend in2="shape" result="effect1_innerShadow"/>
    </filter>
    <filter id="filter29_d" x="908" y="390" width="200" height="146" filterUnits="userSpaceOnUse" color-interpolation-filters="sRGB">
      <feFlood flood-opacity="0" result="BackgroundImageFix"/>
      <feColorMatrix in="SourceAlpha" values="0 0 0 0 0 0 0 0 0 0 0 0 0 0 0 0 0 0 127 0"/>
      <feOffset dy="-4"/>
      <feGaussianBlur stdDeviation="9"/>
      <feColorMatrix values="0 0 0 0 0 0 0 0 0 0 0 0 0 0 0 0 0 0 0.4 0"/>
      <feBlend in2="BackgroundImageFix" result="effect1_dropShadow"/>
      <feBlend in="SourceGraphic" in2="effect1_dropShadow" result="shape"/>
    </filter>
    <filter id="filter30_d" x="704" y="390" width="200" height="146" filterUnits="userSpaceOnUse" color-interpolation-filters="sRGB">
      <feFlood flood-opacity="0" result="BackgroundImageFix"/>
      <feColorMatrix in="SourceAlpha" values="0 0 0 0 0 0 0 0 0 0 0 0 0 0 0 0 0 0 127 0"/>
      <feOffset dy="-4"/>
      <feGaussianBlur stdDeviation="9"/>
      <feColorMatrix values="0 0 0 0 0 0 0 0 0 0 0 0 0 0 0 0 0 0 0.4 0"/>
      <feBlend in2="BackgroundImageFix" result="effect1_dropShadow"/>
      <feBlend in="SourceGraphic" in2="effect1_dropShadow" result="shape"/>
    </filter>
    <filter id="filter31_d" x="500" y="390" width="200" height="146" filterUnits="userSpaceOnUse" color-interpolation-filters="sRGB">
      <feFlood flood-opacity="0" result="BackgroundImageFix"/>
      <feColorMatrix in="SourceAlpha" values="0 0 0 0 0 0 0 0 0 0 0 0 0 0 0 0 0 0 127 0"/>
      <feOffset dy="-4"/>
      <feGaussianBlur stdDeviation="9"/>
      <feColorMatrix values="0 0 0 0 0 0 0 0 0 0 0 0 0 0 0 0 0 0 0.4 0"/>
      <feBlend in2="BackgroundImageFix" result="effect1_dropShadow"/>
      <feBlend in="SourceGraphic" in2="effect1_dropShadow" result="shape"/>
    </filter>
    <filter id="filter32_d" x="296" y="390" width="200" height="146" filterUnits="userSpaceOnUse" color-interpolation-filters="sRGB">
      <feFlood flood-opacity="0" result="BackgroundImageFix"/>
      <feColorMatrix in="SourceAlpha" values="0 0 0 0 0 0 0 0 0 0 0 0 0 0 0 0 0 0 127 0"/>
      <feOffset dy="-4"/>
      <feGaussianBlur stdDeviation="9"/>
      <feColorMatrix values="0 0 0 0 0 0 0 0 0 0 0 0 0 0 0 0 0 0 0.4 0"/>
      <feBlend in2="BackgroundImageFix" result="effect1_dropShadow"/>
      <feBlend in="SourceGraphic" in2="effect1_dropShadow" result="shape"/>
    </filter>
    <filter id="filter33_d" x="92" y="390" width="200" height="146" filterUnits="userSpaceOnUse" color-interpolation-filters="sRGB">
      <feFlood flood-opacity="0" result="BackgroundImageFix"/>
      <feColorMatrix in="SourceAlpha" values="0 0 0 0 0 0 0 0 0 0 0 0 0 0 0 0 0 0 127 0"/>
      <feOffset dy="-4"/>
      <feGaussianBlur stdDeviation="9"/>
      <feColorMatrix values="0 0 0 0 0 0 0 0 0 0 0 0 0 0 0 0 0 0 0.4 0"/>
      <feBlend in2="BackgroundImageFix" result="effect1_dropShadow"/>
      <feBlend in="SourceGraphic" in2="effect1_dropShadow" result="shape"/>
    </filter>
    <linearGradient id="paint0_linear" x1="192" y1="355.861" x2="192" y2="426.139" gradientUnits="userSpaceOnUse">
      <stop stop-color="#F3DC34"/>
      <stop offset="1" stop-color="#C8B319"/>
    </linearGradient>
    <linearGradient id="paint1_linear" x1="192" y1="359" x2="192" y2="423" gradientUnits="userSpaceOnUse">
      <stop stop-color="#fff"/>
      <stop offset="1" stop-color="#fff" stop-opacity="0"/>
    </linearGradient>
    <linearGradient id="paint2_linear" x1="396" y1="355.861" x2="396" y2="426.139" gradientUnits="userSpaceOnUse">
      <stop stop-color="#F3DC34"/>
      <stop offset="1" stop-color="#C8B319"/>
    </linearGradient>
    <linearGradient id="paint3_linear" x1="396" y1="359" x2="396" y2="423" gradientUnits="userSpaceOnUse">
      <stop stop-color="#fff"/>
      <stop offset="1" stop-color="#fff" stop-opacity="0"/>
    </linearGradient>
    <linearGradient id="paint4_linear" x1="598" y1="355.861" x2="598" y2="426.139" gradientUnits="userSpaceOnUse">
      <stop stop-color="#F3DC34"/>
      <stop offset="1" stop-color="#C8B319"/>
    </linearGradient>
    <linearGradient id="paint5_linear" x1="598" y1="359" x2="598" y2="423" gradientUnits="userSpaceOnUse">
      <stop stop-color="#fff"/>
      <stop offset="1" stop-color="#fff" stop-opacity="0"/>
    </linearGradient>
    <linearGradient id="paint6_linear" x1="596.146" y1="414.658" x2="617.932" y2="402.896" gradientUnits="userSpaceOnUse">
      <stop/>
      <stop offset="1" stop-color="#fff" stop-opacity="0"/>
    </linearGradient>
    <linearGradient id="paint7_linear" x1="595.758" y1="419.022" x2="577.551" y2="410.96" gradientUnits="userSpaceOnUse">
      <stop/>
      <stop offset="1" stop-color="#fff" stop-opacity="0"/>
    </linearGradient>
    <linearGradient id="paint8_linear" x1="1008" y1="355.861" x2="1008" y2="426.139" gradientUnits="userSpaceOnUse">
      <stop stop-color="#FF8B1C"/>
      <stop offset="1" stop-color="#D3610E"/>
    </linearGradient>
    <linearGradient id="paint9_linear" x1="1008" y1="359" x2="1008" y2="423" gradientUnits="userSpaceOnUse">
      <stop stop-color="#fff" stop-opacity=".51"/>
      <stop offset="1" stop-color="#fff" stop-opacity="0"/>
    </linearGradient>
    <linearGradient id="paint10_linear" x1="804" y1="355.861" x2="804" y2="426.139" gradientUnits="userSpaceOnUse">
      <stop stop-color="#FF9E0C"/>
      <stop offset="1" stop-color="#D3850E"/>
    </linearGradient>
    <linearGradient id="paint11_linear" x1="804" y1="359" x2="804" y2="423" gradientUnits="userSpaceOnUse">
      <stop stop-color="#fff"/>
      <stop offset="1" stop-color="#fff" stop-opacity="0"/>
    </linearGradient>
    <linearGradient id="paint12_linear" x1="0" y1="55" x2="164" y2="55" gradientUnits="userSpaceOnUse">
      <stop stop-color="#E44D26"/>
      <stop offset="1" stop-color="#F16529"/>
    </linearGradient>
    <linearGradient id="paint13_linear" x1="0" y1="55" x2="164" y2="55" gradientUnits="userSpaceOnUse">
      <stop stop-color="#E44D26"/>
      <stop offset="1" stop-color="#F16529"/>
    </linearGradient>
    <linearGradient id="paint14_linear" x1="0" y1="55" x2="164" y2="55" gradientUnits="userSpaceOnUse">
      <stop stop-color="#E44D26"/>
      <stop offset="1" stop-color="#F16529"/>
    </linearGradient>
    <linearGradient id="paint15_linear" x1="0" y1="55" x2="164" y2="55" gradientUnits="userSpaceOnUse">
      <stop stop-color="#E44D26"/>
      <stop offset="1" stop-color="#F16529"/>
    </linearGradient>
    <linearGradient id="paint16_linear" x1="0" y1="55" x2="164" y2="55" gradientUnits="userSpaceOnUse">
      <stop stop-color="#E44D26"/>
      <stop offset="1" stop-color="#F16529"/>
    </linearGradient>
  </defs>
</svg>
