<svg width="1090" height="520" fill="none" xmlns="http://www.w3.org/2000/svg">
  <path fill="#111" d="M0 0h1090v520H0z"/>
  <path transform="matrix(-1 0 0 1 627 205)" fill="url(#paint0_linear)" d="M0 0h164v110H0z"/>
  <path d="M538.912 270h4.389l-6.864-19.729h-4.853L524.734 270h4.238l1.504-4.785h6.932l1.504 4.785zm-5.018-15.955h.096l2.529 8.08h-5.154l2.529-8.08zM545.684 250.271V270h7.533c5.92 0 9.406-3.678 9.406-9.939 0-6.262-3.486-9.79-9.406-9.79h-7.533zm4.129 3.405h2.912c3.637 0 5.687 2.269 5.687 6.398 0 4.266-1.996 6.508-5.687 6.508h-2.912v-12.906zM600 219.41l1.41-1.41 5.59 5.59 5.59-5.59 1.41 1.41-5.59 5.59 5.59 5.59-1.41 1.41-5.59-5.59-5.59 5.59-1.41-1.41 5.59-5.59-5.59-5.59z" fill="#fff"/>
  <path d="M383 260l-12.5-7.217v14.434L383 260zm-140 1.25h128.75v-2.5H243v2.5zM807 260l-12.5-7.217v14.434L807 260zm-140 1.25h128.75v-2.5H667v2.5z" fill="#767676"/>
  <path d="M144.839 270v-7.369l6.877-12.36h-4.43l-4.429 8.422h-.096l-4.416-8.422h-4.498l6.863 12.36V270h4.129zM161.811 249.93c-5.852 0-9.516 3.924-9.516 10.213 0 6.275 3.664 10.185 9.516 10.185 5.837 0 9.515-3.91 9.515-10.185 0-6.289-3.678-10.213-9.515-10.213zm0 3.445c3.226 0 5.291 2.625 5.291 6.768 0 4.128-2.065 6.74-5.291 6.74-3.241 0-5.305-2.612-5.305-6.74 0-4.143 2.078-6.768 5.305-6.768zM178.481 250.271h-4.129v12.756c0 4.348 3.213 7.301 8.272 7.301 5.045 0 8.258-2.953 8.258-7.301v-12.756h-4.129v12.346c0 2.529-1.491 4.184-4.129 4.184-2.653 0-4.143-1.655-4.143-4.184v-12.346zM894.191 253v-7.369l6.876-12.36h-4.429l-4.43 8.422h-.096l-4.416-8.422h-4.498l6.864 12.36V253h4.129zM911.162 232.93c-5.852 0-9.516 3.924-9.516 10.213 0 6.275 3.664 10.185 9.516 10.185 5.838 0 9.515-3.91 9.515-10.185 0-6.289-3.677-10.213-9.515-10.213zm0 3.445c3.226 0 5.291 2.625 5.291 6.768 0 4.128-2.065 6.74-5.291 6.74-3.24 0-5.305-2.612-5.305-6.74 0-4.143 2.078-6.768 5.305-6.768zM927.832 233.271h-4.129v12.756c0 4.348 3.213 7.301 8.272 7.301 5.045 0 8.258-2.953 8.258-7.301v-12.756h-4.129v12.346c0 2.529-1.49 4.184-4.129 4.184-2.652 0-4.143-1.655-4.143-4.184v-12.346zM948.017 245.781h3.308l3.678 7.219h4.676l-4.157-7.834c2.27-.889 3.583-3.076 3.583-5.605 0-3.897-2.598-6.29-7.137-6.29h-8.08V253h4.129v-7.219zm0-9.283h3.513c2.051 0 3.336 1.231 3.336 3.145 0 1.955-1.217 3.144-3.295 3.144h-3.554v-6.289zM852.986 287v-19.729h-4.129V287h4.129zM860.578 287v-12.92h.123L869.93 287h3.418v-19.729h-3.951v12.852h-.11l-9.215-12.852h-3.445V287h3.951zM885.848 287v-16.324h5.715v-3.405h-15.545v3.405h5.702V287h4.128zM907.277 283.582h-8.942v-4.977h8.436v-3.171h-8.436v-4.758h8.942v-3.405h-13.071V287h13.071v-3.418zM914.568 287v-12.92h.123L923.92 287h3.418v-19.729h-3.951v12.852h-.11l-9.214-12.852h-3.446V287h3.951zM939.839 287v-16.324h5.714v-3.405h-15.545v3.405h5.702V287h4.129zM952.326 287v-19.729h-4.129V287h4.129zM964.867 266.93c-5.851 0-9.515 3.924-9.515 10.213 0 6.275 3.664 10.185 9.515 10.185 5.838 0 9.516-3.91 9.516-10.185 0-6.289-3.678-10.213-9.516-10.213zm0 3.445c3.227 0 5.291 2.625 5.291 6.768 0 4.128-2.064 6.74-5.291 6.74-3.24 0-5.305-2.612-5.305-6.74 0-4.143 2.079-6.768 5.305-6.768zM981.36 287v-12.92h.123l9.229 12.92h3.418v-19.729h-3.952v12.852h-.109l-9.215-12.852h-3.445V287h3.951z" fill="#fff"/>
  <defs>
    <linearGradient id="paint0_linear" x1="0" y1="55" x2="164" y2="55" gradientUnits="userSpaceOnUse">
      <stop stop-color="#E44D26"/>
      <stop offset="1" stop-color="#F16529"/>
    </linearGradient>
  </defs>
</svg>
