<svg width="636" height="446" fill="none" xmlns="http://www.w3.org/2000/svg">
  <g clip-path="url(#clip0)">
    <path fill="#111" d="M0 0h636v445.2H0z"/>
    <path transform="matrix(-1 0 0 1 638 346)" fill="url(#paint0_linear)" style="mix-blend-mode:multiply" d="M0 0h636v96H0z"/>
    <path d="M616 416h-6v2h4v4h2v-6zM616 426h-2v4h-4v2h6v-6zM602 422v-4h4v-2h-6v6h2zM600 426v6h6v-2h-4v-4h-2z" fill="#EAEAEA"/>
    <path d="M616.5 416v-.5h-7v3h4v4h3V416zm0 10v-.5h-3v4h-4v3h7V426zm-14.5-3.5h.5v-4h4v-3h-7v7h2.5zm-2 3h-.5v7h7v-3h-4v-4H600z" stroke="#000" stroke-opacity=".1"/>
    <mask id="a" maskUnits="userSpaceOnUse" x="560" y="414" width="24" height="20" fill="#000">
      <path fill="#fff" d="M560 414h24v20h-24z"/>
      <path fill-rule="evenodd" clip-rule="evenodd" d="M562 415c-.552 0-1 .448-1 1v3c0 .552.448 1 1 1s1-.448 1-1v-1c0-.552.448-1 1-1h16c.552 0 1 .448 1 1v12c0 .552-.448 1-1 1h-5c-.552 0-1 .448-1 1s.448 1 1 1h7c.552 0 1-.448 1-1v-16c0-.552-.448-1-1-1h-20zm7.945 17.002c.061.549.503.998 1.055.998.552 0 1.005-.449.955-.999-.475-5.278-4.678-9.481-9.956-9.956-.55-.05-.999.403-.999.955 0 .552.45.994.998 1.055 4.173.46 7.487 3.774 7.947 7.947zM567 433c.552 0 1.008-.45.93-.997-.438-3.068-2.865-5.495-5.933-5.933-.547-.078-.997.378-.997.93s.452.99.994 1.099c1.964.396 3.511 1.943 3.907 3.907.109.542.547.994 1.099.994zm-6-2c0-.552.46-1.016.982-.836.867.301 1.554.987 1.854 1.854.18.522-.284.982-.836.982h-1c-.552 0-1-.448-1-1v-1z"/>
    </mask>
    <path fill-rule="evenodd" clip-rule="evenodd" d="M562 415c-.552 0-1 .448-1 1v3c0 .552.448 1 1 1s1-.448 1-1v-1c0-.552.448-1 1-1h16c.552 0 1 .448 1 1v12c0 .552-.448 1-1 1h-5c-.552 0-1 .448-1 1s.448 1 1 1h7c.552 0 1-.448 1-1v-16c0-.552-.448-1-1-1h-20zm7.945 17.002c.061.549.503.998 1.055.998.552 0 1.005-.449.955-.999-.475-5.278-4.678-9.481-9.956-9.956-.55-.05-.999.403-.999.955 0 .552.45.994.998 1.055 4.173.46 7.487 3.774 7.947 7.947zM567 433c.552 0 1.008-.45.93-.997-.438-3.068-2.865-5.495-5.933-5.933-.547-.078-.997.378-.997.93s.452.99.994 1.099c1.964.396 3.511 1.943 3.907 3.907.109.542.547.994 1.099.994zm-6-2c0-.552.46-1.016.982-.836.867.301 1.554.987 1.854 1.854.18.522-.284.982-.836.982h-1c-.552 0-1-.448-1-1v-1z" fill="#EAEAEA"/>
    <path d="M561.982 430.164l-.327.945.327-.945zm1.854 1.854l-.945.327.945-.327zm2.065-.012l-.98.198.98-.198zm-3.907-3.907l-.198.98.198-.98zm5.936 3.904l-.99.141.99-.141zm-5.933-5.933l-.141.99.141-.99zm9.958 5.931l-.996.089.996-.089zM562 416v-2c-1.105 0-2 .896-2 2h2zm0 3v-3h-2v3h2zm0-1v1h2v-1h-2zm18-2h-16v2h16v-2zm2 14v-12h-2v12h2zm-7 2h5v-2h-5v2zm7 0h-7v2h7v-2zm0 0v2c1.105 0 2-.896 2-2h-2zm0-16v16h2v-16h-2zm0 0h2c0-1.104-.895-2-2-2v2zm-20 0h20v-2h-20v2zm-.09 7.041c4.796.432 8.617 4.253 9.049 9.049l1.992-.179c-.518-5.759-5.103-10.344-10.862-10.862l-.179 1.992zm9.029 8.851c-.512-4.638-4.192-8.319-8.831-8.831l-.219 1.988c3.707.409 6.653 3.355 7.062 7.062l1.988-.219zm-9.083-4.832c2.628.375 4.709 2.456 5.084 5.084l1.98-.282c-.501-3.508-3.273-6.281-6.782-6.782l-.282 1.98zm5.026 4.749c-.476-2.359-2.332-4.215-4.691-4.691l-.395 1.961c1.57.316 2.809 1.555 3.125 3.125l1.961-.395zm-2.101-.118c-.401-1.157-1.315-2.071-2.472-2.472l-.654 1.89c.577.2 1.036.659 1.236 1.236l1.89-.654zM562 434h1v-2h-1v2zm-2-3v1h2v-1h-2zm2 1h-2c0 1.105.895 2 2 2v-2zm.309-2.781c-.641-.222-1.262-.034-1.683.346-.401.361-.626.89-.626 1.435h2s0 .003-.002.009c-.002.004-.01.02-.033.041-.024.022-.068.051-.133.066-.07.016-.134.008-.177-.007l.654-1.89zm.582 3.126c-.015-.043-.023-.107-.007-.177.015-.065.045-.109.066-.133.021-.023.037-.03.041-.033.006-.002.009-.002.009-.002v2c.545 0 1.074-.225 1.436-.626.379-.421.567-1.042.345-1.683l-1.89.654zm2.03-.141c.179.886.937 1.796 2.079 1.796v-2h0c-.003-.002-.014-.007-.03-.022-.035-.033-.073-.094-.088-.169l-1.961.395zM560 427c0 1.143.91 1.9 1.796 2.079l.395-1.961c-.075-.015-.136-.053-.169-.088-.015-.016-.02-.027-.022-.03v-.001.001h-2zm6.94 5.144c-.003-.02-.002-.047.008-.075.009-.027.021-.044.031-.054.016-.017.026-.015.021-.015v2c1.06 0 2.097-.893 1.92-2.138l-1.98.282zm-4.802-7.064c-1.245-.177-2.138.86-2.138 1.92h2c0-.005.002.005-.015.021-.01.01-.027.022-.054.031-.028.01-.055.011-.075.008l.282-1.98zM573 432c0 1.105.895 2 2 2v-2h-2zm2-2c-1.105 0-2 .895-2 2h2v-2zm5 0v2c1.105 0 2-.895 2-2h-2zm-20-7c0 1.129.903 1.94 1.889 2.049l.219-1.988c-.042-.005-.077-.025-.096-.045-.009-.009-.011-.015-.012-.016 0 0 0 .001 0 0h-2zm20-5h2c0-1.105-.895-2-2-2v2zm-17.911 3.049c-1.195-.108-2.089.872-2.089 1.951h2c0-.003.001.004-.01.014-.005.005-.016.014-.033.02s-.035.008-.047.007l.179-1.992zM564 418v-2c-1.105 0-2 .895-2 2h2zm7 14c-.001 0 0 0 0 0-.001 0-.007-.003-.016-.012-.02-.019-.04-.054-.045-.096l-1.988.219c.109.986.92 1.889 2.049 1.889v-2zm-9-11c1.105 0 2-.895 2-2h-2v2zm9 13c1.079 0 2.059-.894 1.951-2.089l-1.992.179c-.001-.012.001-.029.007-.047.007-.017.015-.027.02-.033.01-.011.017-.01.014-.01v2zm-11-15c0 1.105.895 2 2 2v-2h-2z" fill="#000" fill-opacity=".1" mask="url(#a)"/>
    <mask id="b" maskUnits="userSpaceOnUse" x="525" y="416" width="22" height="16" fill="#000">
      <path fill="#fff" d="M525 416h22v16h-22z"/>
      <path fill-rule="evenodd" clip-rule="evenodd" d="M546 417h-20v14h20v-14zm-2 2h-16v10h16v-10z"/>
    </mask>
    <path fill-rule="evenodd" clip-rule="evenodd" d="M546 417h-20v14h20v-14zm-2 2h-16v10h16v-10z" fill="#EAEAEA"/>
    <path d="M526 417v-1h-1v1h1zm20 0h1v-1h-1v1zm-20 14h-1v1h1v-1zm20 0v1h1v-1h-1zm-18-12v-1h-1v1h1zm16 0h1v-1h-1v1zm-16 10h-1v1h1v-1zm16 0v1h1v-1h-1zm-18-11h20v-2h-20v2zm1 13v-14h-2v14h2zm19-1h-20v2h20v-2zm-1-13v14h2v-14h-2zm-17 3h16v-2h-16v2zm1 9v-10h-2v10h2zm15-1h-16v2h16v-2zm-1-9v10h2v-10h-2z" fill="#000" fill-opacity=".1" mask="url(#b)"/>
    <mask id="c" maskUnits="userSpaceOnUse" x="492" y="415" width="17" height="18" fill="#000">
      <path fill="#fff" d="M492 415h17v18h-17z"/>
      <path fill-rule="evenodd" clip-rule="evenodd" d="M498.308 417c0-.552.447-1 1-1h2c.552 0 1 .448 1 1v.634c0 .424.271.794.651.982.08.039.159.081.237.124.372.204.831.214 1.179-.029l.52-.364c.452-.317 1.076-.207 1.392.245l1.148 1.638c.316.453.206 1.076-.246 1.393l-.52.364c-.347.243-.495.678-.431 1.096.046.299.07.605.07.917 0 .312-.024.618-.07.917-.064.418.084.853.431 1.096l.52.364c.452.316.562.94.246 1.392l-1.148 1.639c-.316.452-.94.562-1.392.245l-.52-.364c-.348-.243-.807-.233-1.179-.029-.078.043-.157.084-.237.124-.38.188-.651.558-.651.982V431c0 .552-.448 1-1 1h-2c-.553 0-1-.448-1-1v-.634c0-.424-.271-.794-.651-.982-.081-.04-.16-.081-.238-.124-.371-.204-.831-.214-1.178.029l-.52.364c-.453.317-1.076.207-1.393-.245l-1.147-1.639c-.317-.452-.207-1.076.246-1.392l.519-.364c.347-.243.495-.678.431-1.096-.046-.299-.069-.605-.069-.917 0-.312.024-.618.069-.917.065-.418-.083-.853-.43-1.096l-.52-.364c-.453-.317-.563-.94-.246-1.393l1.147-1.638c.317-.452.94-.562 1.393-.245l.52.364c.347.243.807.233 1.178.029.078-.043.157-.085.238-.124.38-.188.651-.558.651-.982V417zm2 9c1.104 0 2-.895 2-2s-.896-2-2-2c-1.105 0-2 .895-2 2s.895 2 2 2z"/>
    </mask>
    <path fill-rule="evenodd" clip-rule="evenodd" d="M498.308 417c0-.552.447-1 1-1h2c.552 0 1 .448 1 1v.634c0 .424.271.794.651.982.08.039.159.081.237.124.372.204.831.214 1.179-.029l.52-.364c.452-.317 1.076-.207 1.392.245l1.148 1.638c.316.453.206 1.076-.246 1.393l-.52.364c-.347.243-.495.678-.431 1.096.046.299.07.605.07.917 0 .312-.024.618-.07.917-.064.418.084.853.431 1.096l.52.364c.452.316.562.94.246 1.392l-1.148 1.639c-.316.452-.94.562-1.392.245l-.52-.364c-.348-.243-.807-.233-1.179-.029-.078.043-.157.084-.237.124-.38.188-.651.558-.651.982V431c0 .552-.448 1-1 1h-2c-.553 0-1-.448-1-1v-.634c0-.424-.271-.794-.651-.982-.081-.04-.16-.081-.238-.124-.371-.204-.831-.214-1.178.029l-.52.364c-.453.317-1.076.207-1.393-.245l-1.147-1.639c-.317-.452-.207-1.076.246-1.392l.519-.364c.347-.243.495-.678.431-1.096-.046-.299-.069-.605-.069-.917 0-.312.024-.618.069-.917.065-.418-.083-.853-.43-1.096l-.52-.364c-.453-.317-.563-.94-.246-1.393l1.147-1.638c.317-.452.94-.562 1.393-.245l.52.364c.347.243.807.233 1.178.029.078-.043.157-.085.238-.124.38-.188.651-.558.651-.982V417zm2 9c1.104 0 2-.895 2-2s-.896-2-2-2c-1.105 0-2 .895-2 2s.895 2 2 2z" fill="#EAEAEA"/>
    <path d="M493.427 421.623l.573-.819-.573.819zm-.246-1.393l-.819-.573.819.573zm1.196 2.853l-.988-.151.988.151zm-.43-1.096l-.574.819.574-.819zm.43 2.93l-.988.151.988-.151zm-1.196 2.852l.819-.573-.819.573zm2.54 1.884l.573.819-.573-.819zm-1.393-.245l-.819.573.819-.573zm3.091-.148l.482-.876-.482.876zm5.54.124l-.443-.897.443.897zm3.328.024l-.819-.574.819.574zm-1.392.245l.573-.819-.573.819zm2.54-1.884l-.82-.573.82.573zm-1.197-2.852l.989.151-.989-.151zm.431 1.096l.574-.82-.574.82zm.766-5.783l.819-.573-.819.573zm-1.148-1.638l-.819.574.819-.574zm-3.091.148l-.482.876.482-.876zm1.179-.029l-.574-.819.574.819zm-1.416-.095l-.443.897.443-.897zm1.416 10.673l.573-.819-.573.819zm-1.179-.029l-.482-.876.482.876zM501.308 415h-2v2h2v-2zm2 2.634V417h-2v.634h2zm.37.23c-.091-.051-.183-.099-.277-.145l-.885 1.794c.067.033.133.067.198.103l.964-1.752zm.643-.337l-.52.365 1.147 1.638.52-.364-1.147-1.639zm3.933 2.13l-1.147-1.638-1.639 1.147 1.147 1.638 1.639-1.147zm-1.011 3.149l.52-.364-1.148-1.638-.52.364 1.148 1.638zm.065 1.194c0-.363-.028-.719-.081-1.068l-1.977.303c.038.249.058.504.058.765h2zm-.081 1.068c.053-.349.081-.705.081-1.068h-2c0 .261-.02.516-.058.765l1.977.303zm.536.489l-.52-.364-1.148 1.639.52.364 1.148-1.639zm-.656 4.424l1.147-1.638-1.639-1.147-1.147 1.638 1.639 1.147zm-3.306.127l.52.364 1.147-1.638-.52-.364-1.147 1.638zm-.4.173c.094-.046.186-.095.278-.145l-.965-1.752c-.065.036-.131.07-.198.103l.885 1.794zm-.093.719v-.634h-2V431h2zm-4 2h2v-2h-2v2zm-2-2.634V431h2v-.634h-2zm-.371-.23c.091.05.183.099.277.145l.885-1.794c-.067-.033-.133-.067-.198-.103l-.964 1.752zm-.643.336l.52-.364-1.147-1.638-.52.364 1.147 1.638zm-3.932-2.129l1.147 1.638 1.638-1.147-1.147-1.638-1.638 1.147zm1.011-3.15l-.52.364 1.147 1.639.52-.364-1.147-1.639zm-.065-1.193c0 .363.027.719.081 1.068l1.977-.303c-.038-.249-.058-.504-.058-.765h-2zm.081-1.068c-.054.349-.081.705-.081 1.068h2c0-.261.02-.516.058-.765l-1.977-.303zm-.536-.49l.52.364 1.147-1.638-.52-.364-1.147 1.638zm.656-4.423l-1.147 1.638 1.638 1.147 1.147-1.638-1.638-1.147zm3.306-.127l-.521-.365-1.147 1.639.52.364 1.148-1.638zm.399-.173c-.093.046-.186.094-.277.145l.964 1.752c.065-.036.131-.07.198-.103l-.885-1.794zm.094-.719v.634h2V417h-2zm4 7c0 .552-.448 1-1 1v2c1.657 0 3-1.343 3-3h-2zm-1-1c.552 0 1 .448 1 1h2c0-1.657-1.343-3-3-3v2zm-1 1c0-.552.447-1 1-1v-2c-1.657 0-3 1.343-3 3h2zm1 1c-.553 0-1-.448-1-1h-2c0 1.657 1.343 3 3 3v-2zm-2.209-5.487c.66-.326 1.209-1.01 1.209-1.879h-2c0-.006.003-.002-.009.016-.014.02-.042.048-.085.069l.885 1.794zM494 420.804l-1.638-1.147c-.634.905-.414 2.152.491 2.785l1.147-1.638zm1.366 2.431c.111-.727-.135-1.569-.846-2.067l-1.147 1.638c-.005-.003 0-.003.008.017.008.023.015.062.008.109l1.977.303zm-.846 3.597c.711-.498.957-1.34.846-2.067l-1.977.303c.007.047 0 .086-.008.109-.008.02-.013.02-.008.016l1.147 1.639zm-.52.364l-1.147-1.639c-.905.634-1.125 1.881-.491 2.786l1.638-1.147zm1.147 1.638l-1.638 1.147c.633.905 1.881 1.125 2.785.491l-1.147-1.638zm2.754-.45c-.645-.355-1.522-.413-2.234.086l1.147 1.638c-.005.004-.003-.001.019-.001.024-.001.062.006.104.029l.964-1.752zm1.407 1.982c0-.869-.549-1.553-1.209-1.879l-.885 1.794c.043.021.071.049.085.069.012.018.009.022.009.016h2zm0 .634h-2c0 1.105.895 2 2 2v-2zm2 0v2c1.104 0 2-.895 2-2h-2zm1.208-2.513c-.659.326-1.208 1.01-1.208 1.879h2c0 .006-.003.002.009-.016.014-.02.042-.048.084-.069l-.885-1.794zm2.952.347l-1.147 1.638c.905.634 2.152.414 2.786-.491l-1.639-1.147zm1.147-1.638l1.639 1.147c.633-.905.413-2.152-.491-2.786l-1.148 1.639zm-1.365-2.431c-.112.727.134 1.569.845 2.067l1.148-1.639c.005.004-.001.004-.008-.016-.009-.023-.016-.062-.008-.109l-1.977-.303zm.845-3.597c-.711.498-.957 1.34-.845 2.067l1.977-.303c-.008-.047-.001-.086.008-.109.007-.02.013-.02.008-.017l-1.148-1.638zm.52-.364l1.148 1.638c.904-.633 1.124-1.88.491-2.785l-1.639 1.147zm-1.147-1.638l1.639-1.147c-.634-.905-1.881-1.125-2.786-.492l1.147 1.639zm-2.754.45c.646.355 1.522.413 2.234-.086l-1.147-1.638c.005-.004.003.001-.018.001-.025 0-.063-.007-.105-.029l-.964 1.752zm-1.406-1.982c0 .869.549 1.553 1.208 1.879l.885-1.794c-.042-.021-.07-.049-.084-.069-.012-.018-.009-.022-.009-.016h-2zm-5.641 1.896c.712.499 1.589.441 2.234.086l-.964-1.752c-.041.022-.08.029-.104.029-.022 0-.024-.005-.018-.001l-1.148 1.638zm3.641-4.53c-1.105 0-2 .895-2 2h2v-2zm5.64 13.47c-.712-.499-1.588-.441-2.234-.086l.965 1.752c.041-.023.08-.03.104-.029.021 0 .023.005.018.001l1.147-1.638zm-9.801-9.304l1.147-1.639c-.904-.633-2.151-.413-2.785.492l1.638 1.147zm6.161-2.166h2c0-1.105-.896-2-2-2v2z" fill="#000" fill-opacity=".1" mask="url(#c)"/>
    <rect x="500" y="416" width="13" height="9" rx="1" fill="#EE1A26"/>
    <g filter="url(#filter0_d)" fill="#F1F2F1">
      <path d="M502 418h1v2h2v-2h1v5h-1v-2h-2v2h-1v-5zM507 418h3v1h-2v3h2v1h-3v-5zM510 422v-3h1v3h-1z"/>
    </g>
    <mask id="d" maskUnits="userSpaceOnUse" x="454" y="416" width="20" height="16" fill="#000">
      <path fill="#fff" d="M454 416h20v16h-20z"/>
      <path fill-rule="evenodd" clip-rule="evenodd" d="M455 419c0-1.105.896-2 2-2h14c1.105 0 2 .895 2 2v10c0 1.105-.895 2-2 2h-14c-1.104 0-2-.895-2-2v-10zm12 2h2c.552 0 1 .448 1 1s-.448 1-1 1h-1c-.552 0-1 .448-1 1s.448 1 1 1h1c.552 0 1 .448 1 1s-.448 1-1 1h-2c-1.104 0-2-.895-2-2v-2c0-1.105.896-2 2-2zm-5 0h-2c-1.104 0-2 .895-2 2v2c0 1.105.896 2 2 2h2c.552 0 1-.448 1-1s-.448-1-1-1h-1c-.552 0-1-.448-1-1s.448-1 1-1h1c.552 0 1-.448 1-1s-.448-1-1-1z"/>
    </mask>
    <path fill-rule="evenodd" clip-rule="evenodd" d="M455 419c0-1.105.896-2 2-2h14c1.105 0 2 .895 2 2v10c0 1.105-.895 2-2 2h-14c-1.104 0-2-.895-2-2v-10zm12 2h2c.552 0 1 .448 1 1s-.448 1-1 1h-1c-.552 0-1 .448-1 1s.448 1 1 1h1c.552 0 1 .448 1 1s-.448 1-1 1h-2c-1.104 0-2-.895-2-2v-2c0-1.105.896-2 2-2zm-5 0h-2c-1.104 0-2 .895-2 2v2c0 1.105.896 2 2 2h2c.552 0 1-.448 1-1s-.448-1-1-1h-1c-.552 0-1-.448-1-1s.448-1 1-1h1c.552 0 1-.448 1-1s-.448-1-1-1z" fill="#EAEAEA"/>
    <path d="M457 416c-1.657 0-3 1.343-3 3h2c0-.552.448-1 1-1v-2zm14 0h-14v2h14v-2zm3 3c0-1.657-1.343-3-3-3v2c.552 0 1 .448 1 1h2zm0 10v-10h-2v10h2zm-3 3c1.657 0 3-1.343 3-3h-2c0 .552-.448 1-1 1v2zm-14 0h14v-2h-14v2zm-3-3c0 1.657 1.343 3 3 3v-2c-.552 0-1-.448-1-1h-2zm0-10v10h2v-10h-2zm15 1h-2v2h2v-2zm2 2c0-1.105-.895-2-2-2v2h2zm-2 2c1.105 0 2-.895 2-2h-2v2zm-1 0h1v-2h-1v2zm0 0v-2c-1.104 0-2 .895-2 2h2zm0 0h-2c0 1.105.896 2 2 2v-2zm1 0h-1v2h1v-2zm2 2c0-1.105-.895-2-2-2v2h2zm-2 2c1.105 0 2-.895 2-2h-2v2zm-2 0h2v-2h-2v2zm-3-3c0 1.657 1.343 3 3 3v-2c-.552 0-1-.448-1-1h-2zm0-2v2h2v-2h-2zm3-3c-1.657 0-3 1.343-3 3h2c0-.552.448-1 1-1v-2zm-7 2h2v-2h-2v2zm-1 1c0-.552.448-1 1-1v-2c-1.657 0-3 1.343-3 3h2zm0 2v-2h-2v2h2zm1 1c-.552 0-1-.448-1-1h-2c0 1.657 1.343 3 3 3v-2zm2 0h-2v2h2v-2zm0 0v2c1.105 0 2-.895 2-2h-2zm0 0h2c0-1.105-.895-2-2-2v2zm-1 0h1v-2h-1v2zm-2-2c0 1.105.896 2 2 2v-2h-2zm2-2c-1.104 0-2 .895-2 2h2v-2zm1 0h-1v2h1v-2zm0 0v2c1.105 0 2-.895 2-2h-2zm0 0h2c0-1.105-.895-2-2-2v2z" fill="#000" fill-opacity=".1" mask="url(#d)"/>
    <path d="M140.517 419.91c1.176 0 2.027.485 2.551 1.454.407.749.61 1.775.61 3.078 0 1.236-.184 2.258-.552 3.066-.534 1.16-1.405 1.74-2.616 1.74-1.091 0-1.904-.474-2.437-1.422-.445-.792-.667-1.854-.667-3.187 0-1.032.134-1.919.4-2.66.5-1.379 1.403-2.069 2.711-2.069zm-.013 8.297c.592 0 1.064-.263 1.415-.788.352-.524.527-1.502.527-2.932 0-1.033-.127-1.881-.381-2.546-.253-.668-.746-1.003-1.479-1.003-.672 0-1.165.318-1.479.953-.308.63-.463 1.561-.463 2.793 0 .926.1 1.671.298 2.234.305.859.826 1.289 1.562 1.289zM145.807 422.291h1.327v1.383h-1.327v-1.383zm0 5.325h1.327V429h-1.327v-1.384zM151.631 419.91c1.177 0 2.027.485 2.552 1.454.406.749.609 1.775.609 3.078 0 1.236-.184 2.258-.552 3.066-.533 1.16-1.405 1.74-2.615 1.74-1.092 0-1.904-.474-2.438-1.422-.444-.792-.666-1.854-.666-3.187 0-1.032.133-1.919.4-2.66.499-1.379 1.403-2.069 2.71-2.069zm-.013 8.297c.593 0 1.065-.263 1.416-.788.351-.524.527-1.502.527-2.932 0-1.033-.127-1.881-.381-2.546-.254-.668-.747-1.003-1.479-1.003-.673 0-1.166.318-1.479.953-.309.63-.463 1.561-.463 2.793 0 .926.099 1.671.298 2.234.305.859.825 1.289 1.561 1.289zM162.279 420.062v.997c-.292.284-.681.777-1.168 1.479-.482.703-.91 1.46-1.282 2.273-.368.791-.647 1.512-.838 2.164-.123.419-.281 1.094-.476 2.025h-1.263c.288-1.735.922-3.462 1.904-5.18.58-1.007 1.189-1.876 1.828-2.609h-5.027v-1.149h6.322zM169.553 419.675h.965L167.56 429h-.965l2.958-9.325zM177.608 419.91c1.177 0 2.027.485 2.552 1.454.406.749.609 1.775.609 3.078 0 1.236-.184 2.258-.552 3.066-.533 1.16-1.405 1.74-2.615 1.74-1.092 0-1.904-.474-2.438-1.422-.444-.792-.666-1.854-.666-3.187 0-1.032.133-1.919.4-2.66.499-1.379 1.403-2.069 2.71-2.069zm-.012 8.297c.592 0 1.064-.263 1.415-.788.351-.524.527-1.502.527-2.932 0-1.033-.127-1.881-.381-2.546-.254-.668-.747-1.003-1.479-1.003-.673 0-1.166.318-1.479.953-.309.63-.463 1.561-.463 2.793 0 .926.099 1.671.298 2.234.305.859.825 1.289 1.562 1.289zM182.899 422.291h1.327v1.383h-1.327v-1.383zm0 5.325h1.327V429h-1.327v-1.384zM186.45 422.563v-.875c.826-.081 1.401-.214 1.727-.4.326-.191.569-.637.73-1.34h.901V429h-1.219v-6.437h-2.139zM194.178 426.683c.077.652.379 1.102.908 1.352.271.127.584.191.94.191.677 0 1.178-.216 1.504-.648.326-.432.489-.91.489-1.434 0-.635-.195-1.126-.584-1.473-.385-.347-.849-.521-1.39-.521-.394 0-.732.077-1.016.229-.279.152-.518.364-.717.635l-.99-.057.691-4.895h4.723v1.105h-3.866l-.387 2.526c.212-.16.413-.281.603-.361.339-.14.73-.21 1.175-.21.833 0 1.54.269 2.12.806.579.538.869 1.219.869 2.044 0 .859-.266 1.617-.8 2.273-.529.656-1.375.984-2.539.984-.74 0-1.396-.208-1.967-.623-.567-.418-.885-1.06-.953-1.923h1.187z" fill="#EAEAEA"/>
    <path fill-rule="evenodd" clip-rule="evenodd" d="M142.065 421.941c-.253-.668-.746-1.003-1.479-1.003-.672 0-1.165.318-1.479.953-.308.63-.463 1.561-.463 2.793 0 .926.1 1.671.298 2.234.305.859.826 1.289 1.562 1.289.592 0 1.064-.263 1.415-.788.352-.524.527-1.502.527-2.932 0-1.033-.127-1.881-.381-2.546zm-2.18 4.643c.112.316.233.463.313.529.064.053.147.094.306.094.233 0 .404-.075.584-.344.068-.101.167-.325.242-.747.074-.411.116-.95.116-1.629 0-.961-.119-1.677-.315-2.189v-.002c-.069-.181-.142-.249-.187-.279-.046-.032-.145-.079-.358-.079-.173 0-.27.039-.333.079-.065.042-.155.127-.248.315-.209.426-.361 1.175-.361 2.352 0 .868.095 1.487.241 1.9zm3.241.924c-.534 1.16-1.405 1.74-2.616 1.74-1.091 0-1.904-.474-2.437-1.422-.445-.792-.667-1.854-.667-3.187 0-1.032.134-1.919.4-2.66.5-1.379 1.403-2.069 2.711-2.069 1.176 0 2.027.485 2.551 1.454.407.749.61 1.775.61 3.078 0 1.236-.184 2.258-.552 3.066zm.822-6.62c.516.952.73 2.165.73 3.554 0 1.327-.197 2.502-.642 3.481l-.002.003c-.327.711-.787 1.306-1.408 1.719-.625.416-1.345.603-2.116.603-.694 0-1.35-.152-1.932-.492-.582-.34-1.037-.836-1.377-1.44-.558-.995-.795-2.247-.795-3.677 0-1.114.144-2.121.459-2.998l.001-.002c.296-.818.743-1.516 1.386-2.006.651-.498 1.426-.723 2.265-.723.726 0 1.411.151 2.015.495.607.346 1.076.855 1.416 1.483zm.859.403h3.312c.291-.668.698-1.239 1.247-1.658.652-.498 1.426-.723 2.265-.723.727 0 1.412.151 2.015.495.547.311.982.755 1.311 1.299v-1.642h8.322v2.42l-.303.295c-.218.211-.561.636-1.042 1.329-.448.652-.847 1.359-1.196 2.121l-.002.005c-.353.758-.612 1.432-.785 2.024-.111.378-.263 1.021-.457 1.949l-.166.795h-3.256l.193-1.164c.31-1.865.99-3.704 2.023-5.512l.001-.003c.224-.387.452-.757.686-1.11h-3.418c.163.673.235 1.423.235 2.231 0 1.327-.196 2.502-.642 3.481l-.001.003c-.328.711-.788 1.306-1.409 1.719-.624.416-1.345.603-2.115.603-.694 0-1.35-.152-1.932-.492-.583-.34-1.037-.836-1.377-1.44-.065-.115-.126-.235-.182-.357V430h-3.327v-3.384h2.897c-.124-.599-.181-1.249-.183-1.942h-2.714v-3.383zm16.177-.08c-.217.249-.431.514-.641.795-.001.001-.002.002-.002.003-.05.066-.1.134-.15.202-.233.323-.463.666-.688 1.029-.117.188-.232.382-.347.58-.793 1.388-1.359 2.781-1.7 4.18-.081.333-.149.666-.204 1h1.263c.195-.931.353-1.606.476-2.025.191-.652.47-1.373.838-2.164.168-.366.346-.721.536-1.064.232-.42.481-.823.746-1.209.196-.282.376-.53.54-.745.242-.318.451-.561.625-.731l.003-.003v-.997h-6.322v1.149h5.027zm-7.804.73c-.254-.668-.747-1.003-1.479-1.003-.673 0-1.166.318-1.479.953-.309.63-.463 1.561-.463 2.793 0 .926.099 1.671.298 2.234.305.859.825 1.289 1.561 1.289.593 0 1.065-.263 1.416-.788.351-.524.527-1.502.527-2.932 0-1.033-.127-1.881-.381-2.546zm-2.18 4.643c.112.316.233.463.312.529.065.053.148.094.306.094.234 0 .405-.075.585-.344.068-.101.166-.325.242-.747.074-.411.116-.95.116-1.629 0-.961-.12-1.677-.315-2.189l-.001-.002c-.069-.181-.142-.249-.186-.279-.047-.032-.146-.079-.358-.079-.174 0-.271.039-.333.079-.065.042-.156.127-.249.315-.208.426-.36 1.175-.36 2.352 0 .868.095 1.486.241 1.9zm-1.813 1.242c-.444-.792-.666-1.854-.666-3.187 0-1.032.133-1.919.4-2.66.499-1.379 1.403-2.069 2.71-2.069 1.177 0 2.027.485 2.552 1.454.406.749.609 1.775.609 3.078 0 1.236-.184 2.258-.552 3.066-.533 1.16-1.405 1.74-2.615 1.74-1.092 0-1.904-.474-2.438-1.422zm19.634-9.151h3.064L168.292 430h-3.063l3.592-11.325zM167.56 429h-.965l2.958-9.325h.965L167.56 429zm11.597-7.059c-.254-.668-.747-1.003-1.479-1.003-.673 0-1.166.318-1.479.953-.309.63-.463 1.561-.463 2.793 0 .926.099 1.671.298 2.234.305.859.825 1.289 1.562 1.289.592 0 1.064-.263 1.415-.788.351-.524.527-1.502.527-2.932 0-1.033-.127-1.881-.381-2.546zm-2.18 4.644c.112.316.233.462.312.528.065.053.148.094.307.094.233 0 .404-.075.584-.344.068-.101.166-.325.242-.747.074-.411.116-.95.116-1.629 0-.961-.12-1.677-.315-2.189l-.001-.002c-.069-.181-.142-.249-.186-.279-.047-.032-.146-.079-.358-.079-.173 0-.271.039-.333.079-.065.042-.156.127-.248.315-.209.426-.361 1.175-.361 2.352 0 .868.095 1.487.241 1.901zm4.15 1.338l-.001.003c-.327.711-.788 1.306-1.409 1.719-.624.416-1.344.603-2.115.603-.694 0-1.35-.152-1.932-.492-.583-.34-1.037-.836-1.377-1.44-.559-.995-.795-2.247-.795-3.677 0-1.114.143-2.121.459-2.998l.001-.002c.296-.818.742-1.516 1.385-2.006.652-.498 1.427-.723 2.265-.723.727 0 1.412.151 2.016.495.607.346 1.076.855 1.415 1.483.517.952.73 2.165.73 3.554 0 1.327-.196 2.502-.642 3.481zm-.967-6.559c-.525-.969-1.375-1.454-2.552-1.454-1.307 0-2.211.69-2.71 2.069-.267.741-.4 1.628-.4 2.66 0 1.333.222 2.395.666 3.187.534.948 1.346 1.422 2.438 1.422 1.21 0 2.082-.58 2.615-1.74.368-.808.552-1.83.552-3.066 0-1.303-.203-2.329-.609-3.078zm1.739-.073h3.327v3.383h-3.327v-3.383zm0 5.325h3.327V430h-3.327v-3.384zm3.551-3.053v-2.783l.903-.088c.775-.075 1.163-.189 1.307-.262.011-.011.034-.04.066-.099.064-.117.138-.31.206-.606l.178-.777h2.698V430h-3.219v-6.437h-2.139zm3.139-1V429h1.219v-9.052h-.901c-.03.131-.063.253-.099.367-.156.493-.366.818-.631.973-.194.11-.475.202-.845.275-.253.051-.547.092-.882.125v.875h2.139zm6.479 3.12l.104.884c.041.357.166.481.34.563.115.054.278.096.514.096.451 0 .616-.132.706-.25.199-.264.287-.532.287-.832 0-.417-.119-.61-.25-.727l-.004-.003c-.192-.174-.414-.264-.72-.264-.263 0-.431.05-.54.108-.142.079-.271.189-.387.348l-.057.077h.007zm.729-1.522c.08-.007.163-.011.248-.011.541 0 1.005.174 1.39.521.389.347.584.838.584 1.473 0 .524-.163 1.002-.489 1.434-.279.37-.688.582-1.226.634-.058.006-.118.01-.179.012-.033.001-.066.002-.099.002-.356 0-.669-.064-.94-.191-.529-.25-.831-.7-.908-1.352h-1.187c.03.375.107.709.23 1 .161.379.402.687.723.923.571.415 1.227.623 1.967.623.084 0 .167-.002.248-.006.08-.003.159-.008.237-.015.917-.081 1.602-.402 2.054-.963.534-.656.8-1.414.8-2.273 0-.825-.29-1.506-.869-2.044-.58-.537-1.287-.806-2.12-.806-.212 0-.411.016-.598.047-.031.006-.061.011-.09.017-.173.035-.335.083-.487.146-.152.064-.31.153-.475.268-.002.001-.003.003-.005.004-.031.021-.062.043-.093.067-.01.007-.02.015-.03.022l.387-2.526h3.866v-1.105h-4.723l-.691 4.895.99.057c.005-.007.009-.013.014-.02.192-.256.42-.458.686-.605.005-.004.011-.007.017-.01.13-.07.27-.123.423-.161.002-.001.005-.001.008-.002.107-.026.219-.044.337-.055zm-3.588 1.522h-.299l.085 1.078c.084 1.081.502 2.02 1.354 2.65l.007.005c.751.545 1.615.813 2.555.813 1.344 0 2.533-.384 3.317-1.355.68-.837 1.022-1.818 1.022-2.902 0-1.09-.396-2.041-1.19-2.777-.616-.571-1.344-.912-2.155-1.028h2.831v-3.105h-6.591l-.936 6.621zm-46.402-3.392v1.383h1.327v-1.383h-1.327zm0 5.325V429h1.327v-1.384h-1.327zm37.092-5.325v1.383h1.327v-1.383h-1.327zm0 5.325V429h1.327v-1.384h-1.327z" fill="#000" fill-opacity=".1"/>
    <mask id="e" maskUnits="userSpaceOnUse" x="103" y="413" width="16" height="22" fill="#000">
      <path fill="#fff" d="M103 413h16v22h-16z"/>
      <path fill-rule="evenodd" clip-rule="evenodd" d="M104 421h4l5-5v16l-5-5h-4v-6zm11-1v8l1.65-2.2c.8-1.067.8-2.533 0-3.6L115 420z"/>
    </mask>
    <path fill-rule="evenodd" clip-rule="evenodd" d="M104 421h4l5-5v16l-5-5h-4v-6zm11-1v8l1.65-2.2c.8-1.067.8-2.533 0-3.6L115 420z" fill="#EAEAEA"/>
    <path d="M108 421v1h.414l.293-.293L108 421zm-4 0v-1h-1v1h1zm9-5h1v-2.414l-1.707 1.707.707.707zm0 16l-.707.707 1.707 1.707V432h-1zm-5-5l.707-.707-.293-.293H108v1zm-4 0h-1v1h1v-1zm11 1h-1v3l1.8-2.4-.8-.6zm0-8l.8-.6-1.8-2.4v3h1zm1.65 5.8l-.8-.6.8.6zm0-3.6l-.8.6.8-.6zM108 420h-4v2h4v-2zm4.293-4.707l-5 5 1.414 1.414 5-5-1.414-1.414zM114 432v-16h-2v16h2zm-6.707-4.293l5 5 1.414-1.414-5-5-1.414 1.414zM104 428h4v-2h-4v2zm-1-7v6h2v-6h-2zm13 7v-8h-2v8h2zm-.15-2.8l-1.65 2.2 1.6 1.2 1.65-2.2-1.6-1.2zm0-2.4c.533.711.533 1.689 0 2.4l1.6 1.2c1.067-1.422 1.067-3.378 0-4.8l-1.6 1.2zm-1.65-2.2l1.65 2.2 1.6-1.2-1.65-2.2-1.6 1.2z" fill="#000" fill-opacity=".1" mask="url(#e)"/>
    <mask id="f" maskUnits="userSpaceOnUse" x="71.0001" y="416" width="14" height="16" fill="#000">
      <path fill="#fff" d="M71.0001 416h14v16h-14z"/>
      <path fill-rule="evenodd" clip-rule="evenodd" d="M72.0001 418l8 6-8 6v-12zm12 0h-2v12h2v-12z"/>
    </mask>
    <path fill-rule="evenodd" clip-rule="evenodd" d="M72.0001 418l8 6-8 6v-12zm12 0h-2v12h2v-12z" fill="#EAEAEA"/>
    <path d="M80.0001 424l.6.8 1.0666-.8-1.0666-.8-.6.8zm-8-6l.6-.8-1.6-1.2v2h1zm0 12h-1v2l1.6-1.2-.6-.8zm10-12v-1h-1v1h1zm2 0h1v-1h-1v1zm-2 12h-1v1h1v-1zm2 0v1h1v-1h-1zm-3.4-6.8l-8-6-1.2 1.6 8 6 1.2-1.6zm-8 7.6l8-6-1.2-1.6-8 6 1.2 1.6zm-1.6-12.8v12h2v-12h-2zm11 1h2v-2h-2v2zm1 11v-12h-2v12h2zm1-1h-2v2h2v-2zm-1-11v12h2v-12h-2z" fill="#000" fill-opacity=".1" mask="url(#f)"/>
    <path d="M31.0001 432v-16l13 8-13 8z" fill="#EAEAEA"/>
    <path d="M30.5001 432v.895l.762-.469 13-8 .692-.426-.692-.426-13-8-.762-.469V432z" stroke="#000" stroke-opacity=".1"/>
    <path fill="#EAEAEA" fill-opacity=".2" d="M14.0001 403h612v3h-612z"/>
    <path fill="#EAEAEA" fill-opacity=".5" d="M8 403h618v3H8z"/>
    <path fill="#FCE40D" d="M8 403h366v3H8z"/>
    <path d="M24.5742 391h1.1074l-3.1171-8.455h-1.043L18.4043 391h1.1074l.8496-2.42h3.3633l.8496 2.42zm-2.5781-7.09h.0937l1.3243 3.774h-2.7422l1.3242-3.774zM29.0215 391.111c.873 0 1.623-.416 2.0215-1.119h.0937V391h.961v-8.824h-1.0079v3.504h-.0878c-.3575-.692-1.1016-1.108-1.9805-1.108-1.6055 0-2.6543 1.289-2.6543 3.27 0 1.986 1.0371 3.269 2.6543 3.269zm.2344-5.631c1.1425 0 1.8574.915 1.8574 2.362 0 1.459-.709 2.361-1.8574 2.361-1.1543 0-1.8457-.885-1.8457-2.361 0-1.471.6972-2.362 1.8457-2.362zM39.2461 389.148c.8027 0 1.4238-.621 1.4238-1.423 0-.803-.6211-1.424-1.4238-1.424s-1.4238.621-1.4238 1.424c0 .802.6211 1.423 1.4238 1.423zM49.1719 391.199c1.8984 0 2.9883-1.605 2.9883-4.412 0-2.801-1.1075-4.441-2.9883-4.441-1.8926 0-3 1.634-3 4.424 0 2.812 1.0957 4.429 3 4.429zm0-.92c-1.2481 0-1.9395-1.248-1.9395-3.509 0-2.233.7031-3.499 1.9395-3.499 1.2363 0 1.9277 1.254 1.9277 3.499 0 2.267-.6797 3.509-1.9277 3.509zM54.7266 385.264c.4218 0 .7617-.346.7617-.762 0-.422-.3399-.762-.7617-.762-.4161 0-.7618.34-.7618.762 0 .416.3457.762.7618.762zm0 4.535c.4218 0 .7617-.346.7617-.762 0-.422-.3399-.762-.7617-.762-.4161 0-.7618.34-.7618.762 0 .416.3457.762.7618.762zM60.293 391.199c1.8984 0 2.9882-1.605 2.9882-4.412 0-2.801-1.1074-4.441-2.9882-4.441-1.8926 0-3 1.634-3 4.424 0 2.812 1.0957 4.429 3 4.429zm0-.92c-1.2481 0-1.9395-1.248-1.9395-3.509 0-2.233.7031-3.499 1.9395-3.499 1.2363 0 1.9277 1.254 1.9277 3.499 0 2.267-.6797 3.509-1.9277 3.509zM67.8223 391.199c1.7285 0 2.9062-1.195 2.9062-2.935 0-1.676-1.1719-2.789-2.5898-2.789-.8438 0-1.4707.257-1.8809.767h-.0937l.2636-2.754h3.8672v-.943h-4.6933l-.4864 4.834h.9903c.334-.627.9668-.996 1.7695-.996 1.0664 0 1.7988.767 1.7988 1.91 0 1.184-.7324 1.98-1.8398 1.98-.9961 0-1.7227-.603-1.8164-1.505h-1.0371c.0937 1.447 1.2422 2.431 2.8418 2.431z" fill="#fff"/>
    <path fill="#333" d="M475 345h151v46H475z"/>
    <mask id="g" maskUnits="userSpaceOnUse" x="593" y="356" width="22" height="24" fill="#000">
      <path fill="#fff" d="M593 356h22v24h-22z"/>
      <path fill-rule="evenodd" clip-rule="evenodd" d="M594 358l13.333 10L594 378v-20zm20 0h-3.333v20H614v-20z"/>
    </mask>
    <path fill-rule="evenodd" clip-rule="evenodd" d="M594 358l13.333 10L594 378v-20zm20 0h-3.333v20H614v-20z" fill="#EAEAEA"/>
    <path d="M607.333 368l.6.8L609 368l-1.067-.8-.6.8zM594 358l.6-.8-1.6-1.2v2h1zm0 20h-1v2l1.6-1.2-.6-.8zm16.667-20v-1h-1v1h1zm3.333 0h1v-1h-1v1zm-3.333 20h-1v1h1v-1zm3.333 0v1h1v-1h-1zm-6.067-10.8l-13.333-10-1.2 1.6 13.333 10 1.2-1.6zM594.6 378.8l13.333-10-1.2-1.6-13.333 10 1.2 1.6zM593 358v20h2v-20h-2zm17.667 1H614v-2h-3.333v2zm1 19v-20h-2v20h2zm2.333-1h-3.333v2H614v-2zm-1-19v20h2v-20h-2z" fill="#000" fill-opacity=".1" mask="url(#g)"/>
    <path d="M500.602 362.727h2.387c-.11-3.072-2.944-5.369-6.881-5.369-3.898 0-6.96 2.267-6.96 5.687 0 2.745 1.988 4.375 5.17 5.29l2.506.716c2.148.597 4.057 1.352 4.057 3.381 0 2.227-2.148 3.699-4.972 3.699-2.426 0-4.574-1.074-4.773-3.381h-2.545c.239 3.341 2.943 5.608 7.318 5.608 4.693 0 7.358-2.585 7.358-5.886 0-3.819-3.619-5.052-5.727-5.608l-2.068-.557c-1.512-.398-3.938-1.193-3.938-3.381 0-1.949 1.79-3.381 4.494-3.381 2.466 0 4.336 1.174 4.574 3.182zM506.603 378h2.347v-5.717l1.64-1.522 5.718 7.239h2.983l-6.931-8.75 6.453-6.523h-2.903l-6.682 6.801h-.278v-11.892h-2.347V378zm14.831 0h2.346v-15.273h-2.346V378zm1.193-17.818c.915 0 1.67-.716 1.67-1.591s-.755-1.591-1.67-1.591c-.915 0-1.671.716-1.671 1.591s.756 1.591 1.671 1.591zm5.051 23.545h2.347v-8.074h.199c.517.836 1.511 2.665 4.454 2.665 3.818 0 6.483-3.062 6.483-7.915 0-4.812-2.665-7.875-6.523-7.875-2.983 0-3.897 1.83-4.414 2.625h-.279v-2.426h-2.267v21zm2.307-13.363c0-3.421 1.511-5.728 4.375-5.728 2.983 0 4.455 2.506 4.455 5.728 0 3.261-1.512 5.846-4.455 5.846-2.824 0-4.375-2.386-4.375-5.846zM552.969 378l2.048-5.767h8.233l2.049 5.767h2.585l-7.477-20.364h-2.546L550.384 378h2.585zm2.824-7.955l3.261-9.187h.159l3.262 9.187h-6.682zm20.312 8.273c2.943 0 3.937-1.829 4.454-2.665h.279V378h2.267v-20.364h-2.347v7.517h-.199c-.517-.795-1.432-2.625-4.415-2.625-3.858 0-6.522 3.063-6.522 7.875 0 4.853 2.664 7.915 6.483 7.915zm.318-2.108c-2.943 0-4.455-2.585-4.455-5.846 0-3.222 1.472-5.728 4.455-5.728 2.863 0 4.375 2.307 4.375 5.728 0 3.46-1.551 5.846-4.375 5.846z" fill="#fff"/>
    <path transform="matrix(-1 0 0 1 365.076 135.973)" fill="url(#paint1_linear)" d="M0 0h90.1597v60.473H0z"/>
    <path d="M316.649 171.707h2.413l-3.773-10.846h-2.668l-3.766 10.846h2.33l.827-2.631h3.811l.826 2.631zm-2.758-8.772h.052l1.391 4.442H312.5l1.391-4.442zM320.372 160.861v10.846h4.142c3.254 0 5.171-2.022 5.171-5.465 0-3.442-1.917-5.381-5.171-5.381h-4.142zm2.27 1.871h1.601c1.999 0 3.127 1.248 3.127 3.518 0 2.345-1.097 3.578-3.127 3.578h-1.601v-7.096zM350.233 143.894l.775-.775 3.073 3.073 3.073-3.073.775.775-3.073 3.073 3.073 3.074-.775.775-3.073-3.073-3.073 3.073-.775-.775 3.073-3.074-3.073-3.073zM312.237 243.175h2.413l-3.773-10.846h-2.669l-3.765 10.846h2.33l.827-2.631h3.81l.827 2.631zm-2.758-8.772h.052l1.391 4.443h-2.834l1.391-4.443zM315.96 232.329v10.846h4.142c3.254 0 5.171-2.022 5.171-5.464 0-3.443-1.917-5.382-5.171-5.382h-4.142zm2.27 1.872h1.601c1.999 0 3.127 1.247 3.127 3.517 0 2.345-1.098 3.578-3.127 3.578h-1.601v-7.095zM326.523 240.078c.067 2.045 1.789 3.277 4.374 3.277 2.714 0 4.375-1.338 4.375-3.457 0-1.646-1-2.571-3.292-3.029l-1.15-.233c-1.278-.256-1.804-.669-1.804-1.338 0-.797.751-1.323 1.871-1.323 1.143 0 1.947.556 2.022 1.481h2.142c-.037-1.992-1.631-3.315-4.164-3.315-2.412 0-4.141 1.315-4.141 3.3 0 1.616 1.06 2.653 3.224 3.081l1.143.226c1.36.278 1.871.684 1.871 1.398 0 .797-.827 1.383-2.037 1.383-1.232 0-2.149-.541-2.292-1.451h-2.142zM88.5892 232.329v10.846h2.2699v-3.42h2.0294c2.2849 0 3.8708-1.488 3.8708-3.713 0-2.232-1.5333-3.713-3.7581-3.713h-4.412zm2.2699 1.796h1.5408c1.3003 0 2.0519.692 2.0519 1.925 0 1.24-.7591 1.931-2.0594 1.931h-1.5333v-3.856zM105.315 241.296h-4.742v-8.967h-2.2704v10.846h7.0124v-1.879zM113.961 243.175h2.413l-3.773-10.846h-2.668l-3.766 10.846h2.33l.827-2.631h3.811l.826 2.631zm-2.758-8.772h.052l1.391 4.443h-2.834l1.391-4.443zM121.074 243.175v-8.974h3.142v-1.872h-8.546v1.872h3.134v8.974h2.27zM127.939 243.175v-4.269h4.412v-1.797h-4.412v-2.908h4.833v-1.872h-7.103v10.846h2.27zM139.208 232.141c-3.217 0-5.231 2.157-5.231 5.615 0 3.45 2.014 5.599 5.231 5.599 3.209 0 5.231-2.149 5.231-5.599 0-3.458-2.022-5.615-5.231-5.615zm0 1.894c1.774 0 2.909 1.443 2.909 3.721 0 2.27-1.135 3.705-2.909 3.705-1.781 0-2.916-1.435-2.916-3.705 0-2.278 1.142-3.721 2.916-3.721zM148.373 239.206h1.819l2.022 3.969h2.57l-2.285-4.307c1.248-.488 1.969-1.691 1.969-3.082 0-2.142-1.428-3.457-3.923-3.457h-4.442v10.846h2.27v-3.969zm0-5.103h1.931c1.128 0 1.834.676 1.834 1.729 0 1.074-.669 1.728-1.811 1.728h-1.954v-3.457zM167.647 243.175v-10.846h-2.631l-3.082 7.787h-.06l-3.081-7.787h-2.631v10.846h2.022v-7.321h.06l2.946 7.321h1.428l2.947-7.321h.06v7.321h2.022zM169.235 240.078c.068 2.045 1.789 3.277 4.375 3.277 2.713 0 4.374-1.338 4.374-3.457 0-1.646-1-2.571-3.292-3.029l-1.15-.233c-1.278-.256-1.804-.669-1.804-1.338 0-.797.752-1.323 1.872-1.323 1.142 0 1.946.556 2.021 1.481h2.142c-.037-1.992-1.631-3.315-4.163-3.315-2.413 0-4.142 1.315-4.142 3.3 0 1.616 1.06 2.653 3.225 3.081l1.142.226c1.36.278 1.872.684 1.872 1.398 0 .797-.827 1.383-2.037 1.383-1.233 0-2.15-.541-2.293-1.451h-2.142zM461.967 240.078c.067 2.045 1.789 3.277 4.374 3.277 2.713 0 4.374-1.338 4.374-3.457 0-1.646-.999-2.571-3.292-3.029l-1.15-.233c-1.277-.256-1.803-.669-1.803-1.338 0-.797.751-1.323 1.871-1.323 1.143 0 1.947.556 2.022 1.481h2.142c-.038-1.992-1.631-3.315-4.164-3.315-2.413 0-4.141 1.315-4.141 3.3 0 1.616 1.059 2.653 3.224 3.081l1.143.226c1.36.278 1.871.684 1.871 1.398 0 .797-.827 1.383-2.037 1.383-1.232 0-2.149-.541-2.292-1.451h-2.142zM474.574 243.175v-3.315l1.014-1.217 3.217 4.532h2.714l-4.292-6.036 4.014-4.81h-2.526l-4.074 4.946h-.067v-4.946h-2.27v10.846h2.27zM489.864 241.296h-4.915v-2.736h4.637v-1.744h-4.637v-2.615h4.915v-1.872h-7.185v10.846h7.185v-1.879zM491.701 232.329v10.846h2.269v-3.42H496c2.285 0 3.871-1.488 3.871-3.713 0-2.232-1.534-3.713-3.758-3.713h-4.412zm2.269 1.796h1.541c1.301 0 2.052.692 2.052 1.925 0 1.24-.759 1.931-2.059 1.931h-1.534v-3.856zM506.277 243.175v-8.974h3.142v-1.872h-8.546v1.872h3.134v8.974h2.27zM513.142 243.175v-10.846h-2.27v10.846h2.27zM519.939 243.355c2.661 0 4.517-1.526 4.773-3.946h-2.21c-.241 1.286-1.21 2.075-2.556 2.075-1.736 0-2.826-1.428-2.826-3.743 0-2.285 1.105-3.721 2.819-3.721 1.323 0 2.345.872 2.555 2.202h2.21c-.173-2.427-2.157-4.081-4.765-4.081-3.142 0-5.134 2.112-5.134 5.607 0 3.503 1.977 5.607 5.134 5.607zM528.585 243.175v-10.846h-2.27v10.846h2.27zM530.173 240.078c.068 2.045 1.789 3.277 4.375 3.277 2.713 0 4.374-1.338 4.374-3.457 0-1.646-1-2.571-3.292-3.029l-1.15-.233c-1.278-.256-1.804-.669-1.804-1.338 0-.797.752-1.323 1.872-1.323 1.142 0 1.946.556 2.022 1.481h2.142c-.038-1.992-1.631-3.315-4.164-3.315-2.413 0-4.142 1.315-4.142 3.3 0 1.616 1.06 2.653 3.225 3.081l1.142.226c1.361.278 1.872.684 1.872 1.398 0 .797-.827 1.383-2.037 1.383-1.233 0-2.15-.541-2.293-1.451h-2.142zM551.995 243.175v-10.846h-2.63l-3.082 7.787h-.06l-3.082-7.787h-2.63v10.846h2.021v-7.321h.061l2.946 7.321h1.428l2.946-7.321h.06v7.321h2.022z" fill="#fff"/>
    <path fill-rule="evenodd" clip-rule="evenodd" d="M175.16 138.973H91v9.393h84.16v-9.393zM88 148.366v48.08h90.16v-60.473H88v12.393zm87.16 45.08v-42.08h-64.919v42.08h64.919zm-67.919 0H91v-42.08h16.241v42.08zm-9.6203-49.914c0 1.138-.923 2.061-2.0616 2.061-1.1386 0-2.0616-.923-2.0616-2.061 0-1.139.923-2.062 2.0616-2.062 1.1386 0 2.0616.923 2.0616 2.062zm4.8103 2.061c1.139 0 2.062-.923 2.062-2.061 0-1.139-.923-2.062-2.062-2.062-1.139 0-2.062.923-2.062 2.062 0 1.138.923 2.061 2.062 2.061z" fill="#767676"/>
    <path d="M234.235 167.858h-6.597v6.597h-2.199v-6.597h-6.598v-2.199h6.598v-6.597h2.199v6.597h6.597v2.199zM405.758 168.958h15.3931v2.19901H405.758zM405.758 162.36h15.3931v2.19902H405.758z" fill="#767676"/>
    <path d="M506.851 143.333L498.809 158l15.415 8-7.373 16" stroke="#767676" stroke-width="3"/>
    <path d="M505.706 142.293l1.146 1.355 1.145-1.355c3.558-4.208 8.894-6.793 14.538-6.793 9.974 0 17.668 7.698 17.668 17.683 0 6.134-2.728 11.777-7.829 18.014-4.995 6.107-12.114 12.607-20.82 20.558-.218.198-.436.398-.655.598-.002.001-.003.003-.005.004l-4.043 3.628-4.042-3.628c-.002-.001-.003-.003-.005-.004-.219-.2-.437-.399-.654-.597-8.707-7.951-15.826-14.452-20.821-20.559-5.101-6.237-7.829-11.88-7.829-18.014 0-9.985 7.693-17.683 17.668-17.683 5.644 0 10.98 2.585 14.538 6.793z" stroke="#767676" stroke-width="3"/>
  </g>
  <defs>
    <linearGradient id="paint0_linear" x1="318" y1="0" x2="318" y2="96" gradientUnits="userSpaceOnUse">
      <stop stop-opacity="0"/>
      <stop offset="1" stop-opacity=".5"/>
    </linearGradient>
    <linearGradient id="paint1_linear" x1="0" y1="30.2365" x2="90.1597" y2="30.2365" gradientUnits="userSpaceOnUse">
      <stop stop-color="#E44D26"/>
      <stop offset="1" stop-color="#F16529"/>
    </linearGradient>
    <clipPath id="clip0">
      <path fill="#fff" d="M0 0h636v445.2H0z"/>
    </clipPath>
    <filter id="filter0_d" x="502" y="418" width="9" height="6" filterUnits="userSpaceOnUse" color-interpolation-filters="sRGB">
      <feFlood flood-opacity="0" result="BackgroundImageFix"/>
      <feColorMatrix in="SourceAlpha" values="0 0 0 0 0 0 0 0 0 0 0 0 0 0 0 0 0 0 127 0"/>
      <feOffset dy="1"/>
      <feColorMatrix values="0 0 0 0 0.337255 0 0 0 0 0.0392157 0 0 0 0 0.0588235 0 0 0 1 0"/>
      <feBlend in2="BackgroundImageFix" result="effect1_dropShadow"/>
      <feBlend in="SourceGraphic" in2="effect1_dropShadow" result="shape"/>
    </filter>
  </defs>
</svg>
