<svg width="170" height="85" viewBox="0 0 400 200" fill="none" xmlns="http://www.w3.org/2000/svg"><path fill-rule="evenodd" clip-rule="evenodd" d="M142.477 116.672c.14.346.281.691.421 1.028 1.092 3.111 1.428 6.054.756 8.997-.924 6.222-5.042 11.603-10.924 13.958-2.101.925-4.454 1.345-6.807 1.345-.672 0-1.513-.084-2.185-.168-2.773-.337-5.63-1.261-8.403-2.859-3.362-1.934-6.723-4.709-10.421-8.745-3.697 4.036-6.974 6.811-10.42 8.745-2.773 1.598-5.63 2.522-8.403 2.859-.672.084-1.513.168-2.185.168-2.353 0-4.622-.42-6.807-1.345-5.798-2.355-10-7.652-10.924-13.958-.42-3.027-.084-5.97 1.008-9.081.42-1.093.84-2.102 1.261-3.027.306-.691.613-1.363.912-2.018.356-.782.7-1.539 1.02-2.271l.085-.168c5.798-12.613 12.1-25.393 18.571-38.006l.252-.504c.672-1.262 1.345-2.607 2.017-3.952.84-1.514 1.765-3.111 3.025-4.625C97.1 59.85 100.881 58 105.083 58c4.117 0 7.983 1.85 10.672 5.213 1.24 1.396 2.051 2.863 2.829 4.27l.196.355c.672 1.345 1.345 2.69 2.017 3.952l.252.504A877.196 877.196 0 0 1 139.62 110.3l.084.084c.32.732.665 1.489 1.021 2.271h.001l.001.003c.298.654.604 1.326.91 2.015.28.616.56 1.308.84 1.999ZM208 78.5a5.49 5.49 0 0 1-5.5 5.5 5.49 5.49 0 0 1-5.5-5.5c0-3.046 2.369-5.5 5.5-5.5 3.131.085 5.5 2.538 5.5 5.5ZM185.124 90v1.333S182.554 88 177.083 88C168.047 88 161 94.917 161 104.5c0 9.5 6.964 16.5 16.083 16.5 5.554 0 8.041-3.417 8.041-3.417V119c0 .667.498 1.167 1.161 1.167H193V88.833h-6.715c-.663 0-1.161.584-1.161 1.167Zm-6.804 23c2.969 0 5.443-1.583 6.68-3.417V98.417c-1.155-1.75-3.794-3.417-6.68-3.417-5.279 0-9.32 3.333-9.32 9s4.041 9 9.32 9ZM198 88h8v32h-8V88Zm112.959 2.862s2.57-3.386 8.041-3.386c8.953 0 16 7.111 16 16.762S327.953 121 318.917 121c-5.471 0-8.041-3.471-8.041-3.471v1.439c0 .593-.498 1.185-1.161 1.185H303V73h7.959v17.862ZM317.68 113c-3.051 0-5.443-1.583-6.68-3.417V98.417c1.237-1.667 3.876-3.417 6.68-3.417 5.279 0 9.32 3.333 9.32 9s-4.041 9-9.32 9ZM298 120v-19.101c0-5.372-1.096-8.442-3.962-10.83-2.361-2.046-5.311-3.069-8.852-3.069-3.119 0-6.238.938-8.599 3.41v-1.364c0-.596-.506-1.193-1.18-1.193H269v32.062h8.093V97.574c1.602-1.876 4.131-3.155 6.576-3.155 4.552 0 6.238 2.131 6.238 7.418V120H298Zm-48-32.524c-5.472 0-8.042 3.386-8.042 3.386V73H234v47.153h6.715c.663 0 1.16-.592 1.16-1.185v-1.439s2.57 3.471 8.042 3.471c9.036 0 16.082-7.111 16.082-16.762.083-9.65-6.963-16.762-15.999-16.762Zm-8 22.107c1.237 1.834 3.629 3.417 6.68 3.417 5.279 0 9.32-3.333 9.32-9s-4.041-9-9.32-9c-2.804 0-5.443 1.75-6.68 3.417v11.166ZM226.301 87c2.438 0 3.699.426 3.699.426v7.59s-6.726-2.303-10.929 2.558V120H211V87.853h6.81c.672 0 1.177.597 1.177 1.194v1.364C220.5 88.62 223.779 87 226.301 87ZM105 122c-4.598-5.718-7.579-11.099-8.6-15.64-.427-1.934-.512-3.615-.256-5.129.17-1.345.681-2.522 1.362-3.531C99.124 95.43 101.85 94 105 94s5.961 1.345 7.494 3.7c.681 1.009 1.192 2.186 1.362 3.531.256 1.514.171 3.28-.255 5.129-1.022 4.457-4.003 9.838-8.601 15.64Zm26.241 12.997c4.099-1.675 7.026-5.442 7.611-9.795.335-2.177.084-4.27-.585-6.446-.174-.582-.43-1.164-.709-1.802-.123-.28-.251-.571-.378-.877a47.661 47.661 0 0 1-.962-2.093c-.314-.712-.628-1.424-.962-2.093v-.084a1111.847 1111.847 0 0 0-18.317-37.673l-.251-.502c-.335-.628-.67-1.277-1.004-1.925-.335-.65-.669-1.298-1.004-1.926-.669-1.34-1.422-2.595-2.342-3.684-1.756-2.009-4.098-3.097-6.691-3.097s-4.935 1.088-6.691 3.097c-.92 1.089-1.673 2.345-2.342 3.684-.335.628-.67 1.277-1.004 1.926-.335.648-.67 1.297-1.004 1.925l-.25.502c-6.44 12.39-12.63 25.115-18.402 37.589l-.083.168a171.229 171.229 0 0 0-1.924 4.186 50.86 50.86 0 0 1-.378.877c-.28.638-.535 1.22-.71 1.802-.836 2.344-1.003 4.437-.752 6.529.585 4.354 3.513 8.121 7.611 9.795a13.363 13.363 0 0 0 6.357.838c2.091-.252 4.182-.921 6.357-2.177 3.01-1.674 6.105-4.27 9.535-8.121-5.437-6.781-8.866-13.06-10.12-18.585-.67-2.511-.754-4.939-.419-7.116.335-2.093 1.087-4.018 2.258-5.692 2.593-3.684 6.943-5.945 11.794-5.945 4.851 0 9.2 2.177 11.793 5.945 1.171 1.674 1.924 3.6 2.258 5.692.251 2.177.168 4.521-.418 7.116-1.254 5.525-4.6 11.721-10.12 18.502 3.513 3.851 6.524 6.446 9.535 8.12 2.174 1.256 4.265 1.926 6.356 2.177 2.175.251 4.35 0 6.357-.837Z" fill="#fff"></path></svg>