<svg width="170" height="85" viewBox="0 0 400 200" fill="none" xmlns="http://www.w3.org/2000/svg"><path d="M196.255 71.216c1.187 2.196 3.745 15.947-3.235 30.981-.019-.479-.037-.959-.051-1.439-.057-24.423 3.057-29.967 3.286-29.542Zm-34.723 54.413c-2.82 5.788-9.033 5.438-8.945-.872.09-6.464 8.16-10.526 10.327-6.028.178.37.297.784.413 1.193-.375 1.189-.527 3.105-1.795 5.707Zm138.295 2.548a1.38 1.38 0 0 0-1.872-.535l-.006.004c-1.447.8-6.261 2.403-7.783 2.949-5.706.929-12.693.721-16.135-7.591-1.037-2.505-2.063-4.76-3.837-7.132-2.004-2.68-8.57-5.869-14.701-.116-1.593 1.454-2.768 3.065-3.788 4.67-.416.656-.8 1.317-1.163 1.978-.024-.088-.046-.175-.071-.263-.541-1.86-2.274-8.742-9.481-9.861-.99-.08-5.001-.53-10.548 5.539-1.939 2.106-3.553 4.345-5.057 6.611l-.005.009c-.264-1.232-.584-2.352-.903-2.844-4.714-7.234-11.853-1.459-14.928.697-6.891 4.831-10.086 11.325-14.286-3.428a61.248 61.248 0 0 1-1.304-6.341c4.186-7.092 12.707-28.67 7.817-43.137-.319-.914-2.023-5.585-6.116-5.284-.588.057-5.252-.43-7.799 12.566-2.387 12.563-1.86 28.756-1.281 34.125.065.556.187 1.656.405 3.092-4.035 6.886-9.333 14.714-12.561 15.079-4.195.475-3.027-3.381-5.586-11.946-.442-1.111-1.855-6.406-8.221-6.142-3.111.128-6.407.936-10.907 5.845-7.305 7.969-23.969 19.957-35.887 12.423-1.295-1.002-7.734-6.251-5.362-21.982.703-4.312 2.033-8.572 3.823-12.548 1.794-3.976 4.008-7.697 6.546-10.992 12.243-14.997 22.848-16.749 24.94-16.66 5.367.003 6.761 6.93 6.757 6.867a2.218 2.218 0 0 0 2.424 1.988 2.215 2.215 0 0 0 1.994-2.417c-.009-.062.01-2.265-.907-4.357-.842-2.726-3.261-5.259-4.67-6.193-6.726-4.672-21.913-.906-36.619 16.022-2.974 3.728-5.622 7.923-7.689 12.486-2.073 4.558-3.637 9.45-4.464 14.533-3.968 27.891 13.054 32.326 15.955 32.87 14.919 1.734 25.907-6.363 31.099-11.329 1.874 9.308 11.206 9.421 15.299 5.217 1.045-1.073 1.88-2.39 2.531-3.762 2.427 8.799 10.2 5.802 11.114 5.412 4.335-1.619 8.866-7.637 12.069-12.683 2.036 6.92 5.966 14.337 13.516 13.542 4.55-.11 15.956-12.2 17.01-10.623 1.054 1.306 1.333 3.701 1.264 7.277-.069 3.576 2.778 3.756 4.069 3.4 1.992-.548 3.245-4.466 5.332-7.87 1.636-2.669 2.854-4.181 4.477-5.958.818-.878 4.522-4.7 7.134-3.402s2.879 3.964 3.059 5.438c.201 1.48.203 3.049.266 4.764-.077 5.922 2.713 6.759 3.501 6.977 6.455 1.738 6.854-10.363 11.59-14.856.443-.457 4.58-4.717 6.943 2.233 3.413 12.56 13.915 17.255 28.052 10.272 2.623-1.295 3.137-1.803 4.568-2.865a1.37 1.37 0 0 0 .383-1.768" fill="#fff"></path></svg>