<svg width="170" height="85" viewBox="0 0 400 200" fill="none" xmlns="http://www.w3.org/2000/svg"><path fill-rule="evenodd" clip-rule="evenodd" d="M259.066 117.404h15.235v14.481h-40.198V68.1h40.198v14.48h-15.235v6.974h15.235v14.658h-15.235v13.192ZM203.853 82.58h-15.502V68.1h43.397c0 .266.045.533.045.755v11.949c0 .4-.089.8-.267 1.199-5.463 11.504-10.971 23.009-16.435 34.513-.133.267-.222.533-.4.933h17.057v14.525h-44.907c0-.267-.044-.533-.044-.8v-12.17c0-.445.088-.889.311-1.244a11626.98 11626.98 0 0 1 16.212-33.892c.178-.444.311-.799.533-1.288ZM333.467 81.648c0-1.11-.045-2.221-.178-3.332-.578-5.02-3.331-8.306-8.262-9.46a27.444 27.444 0 0 0-6.574-.8c-13.592-.09-27.14-.045-40.732-.045-.311 0-.577.044-.932.044v63.919h.844c13.858 0 27.717 0 41.575-.045 1.688-.044 3.332-.177 4.975-.533 4.708-.844 7.729-3.598 8.706-8.35.355-1.777.578-3.643.578-5.464.044-11.948.044-23.941 0-35.934Zm-25.363 31.581v.666c-.134 2.488-1.155 3.421-3.643 3.421h-2.665V82.58c1.555.045 3.065-.222 4.575.356.889.355 1.333 1.066 1.511 1.954.133.622.222 1.244.222 1.91.044 8.795.044 17.59 0 26.429ZM123.634 81.78a23.2 23.2 0 0 0-.311-3.908c-.711-4.753-3.332-7.906-8.04-8.972a31.563 31.563 0 0 0-6.752-.845c-13.547-.088-27.095-.044-40.643-.044H67v63.963h41.442c1.688 0 3.332-.134 4.975-.356 5.508-.755 8.573-3.597 9.684-8.972.355-1.732.533-3.509.533-5.286.044-11.86.044-23.72 0-35.58ZM98.271 112.83c0 .755-.09 1.555-.267 2.31-.266 1.288-1.022 1.999-2.354 2.088-1.2.089-2.443 0-3.731 0v-34.78c1.466.089 2.887.089 4.22.355 1.332.223 1.776 1.377 1.998 2.577.09.577.134 1.155.134 1.732v25.718ZM174.004 68.055h-39.133l-11.237 63.83h25.762l1.422-13.77c2.309 0 4.53 0 6.751.045.178 0 .444.355.444.621.267 2.31.489 4.664.711 6.974.222 2.043.444 4.131.666 6.174h25.852l-11.238-63.874Zm-22.209 35.935 2.576-20.965h.178l2.487 20.965h-5.241Z" fill="#fff"></path></svg>