<svg width="170" height="85" viewBox="0 0 400 200" fill="none" xmlns="http://www.w3.org/2000/svg"><path d="M56.88 77.203C56.88 61.723 63.61 49 78.6 49c3.428.099 6.814.772 10.02 1.992 1.376.537 3.135 1.457 3.135 0v-.536c0-.69.23-.766.535-.766.23 0 .536.153.536.766V67.93c0 .536-.23.69-.612.69-.306 0-.46-.154-.46-.69v-.843c0-12.033-5.888-17.32-13.077-17.32-9.942 0-11.09 7.357-11.625 16.17a148.746 148.746 0 0 0 0 22.61c.612 7.97 1.836 15.633 11.32 15.633 5.735 0 9.1-2.681 9.1-8.583v-9.35c0-2.376-.076-3.296-.765-3.296h-5.353c-.46 0-.689-.076-.689-.383 0-.383.153-.46.689-.46h18.431c.535 0 .765.077.765.384 0 .382-.153.459-.765.459h-3.594c-.689 0-.765.92-.765 3.296v17.168c0 .613-.23.765-.459.765-.306 0-.536-.076-.536-.765v-.231c0-.843-.611-1.379-2.676-1.379-4.59 0-7.19 3.142-13.384 3.142-14.148 0-21.49-13.029-21.49-27.744Zm45.584 26.441c0-.383.153-.46.688-.46h.229c2.448 0 4.513-2.146 8.413-14.638l12.237-39.01a.598.598 0 0 1 .688-.46h1.988c.459 0 .689.154.765.46l16.978 49.586c1.148 3.449 1.606 4.062 2.906 4.062h1.377c.535 0 .765.077.765.383 0 .384-.153.461-.765.461h-16.902c-.458 0-.688-.077-.688-.384 0-.383.153-.46.688-.46h3.212c1.454 0 1.912-.766.765-4.062l-5.2-15.251a.532.532 0 0 0-.401-.45.53.53 0 0 0-.211-.01h-14.913c-.459 0-.536.153-.689.46l-1.453 4.752c-3.594 10.96-1.3 14.561 2.677 14.561h1.835c.459 0 .689.077.689.383 0 .384-.153.461-.689.461h-14.301c-.459 0-.688-.077-.688-.384Zm13.154-21.152h13.69c.458 0 .688-.307.611-.614l-7.571-23.605h-.153l-7.265 23.759c-.077.23.076.46.688.46Zm33.116-14.409c.306 0 .459-.153.459-.69v-1.532c0-8.507 3.595-15.099 11.166-15.099h5.048c.535 0 .764.23.764.537v48.513c0 2.452-.076 3.372-.764 3.372h-3.748c-.612 0-.688.154-.688.383 0 .23.076.461.688.461h16.902c.612 0 .688-.231.688-.461 0-.229-.076-.383-.688-.383h-3.671c-.765 0-.842-.92-.842-3.372V51.299c0-.307.307-.536.842-.536h4.971c7.571 0 11.166 6.59 11.166 15.098v1.532c0 .537.153.69.459.69.306 0 .535-.153.535-.69V50.456c0-.383-.229-.537-.688-.537h-42.446c-.459 0-.688.154-.688.537v16.937c0 .537.229.69.535.69Zm55.525 35.101h-3.671c-.535 0-.688.077-.688.46 0 .307.229.384.688.384h16.749c.536 0 .689-.077.689-.461 0-.306-.153-.383-.689-.383h-3.594c-.689 0-.765-.92-.765-3.372V77.05c0-.46.152-.613.612-.613h20.343c.536 0 .688.23.688.613v22.762c0 2.452-.076 3.372-.765 3.372h-3.594c-.535 0-.688.077-.688.46 0 .307.229.384.688.384h16.749c.535 0 .688-.077.688-.461 0-.306-.23-.383-.688-.383h-3.672c-.687 0-.764-.92-.764-3.372V54.135c0-2.453.077-3.372.764-3.372h3.672c.535 0 .688-.077.688-.46 0-.307-.23-.383-.688-.383h-16.749c-.535 0-.688.076-.688.46 0 .306.229.383.688.383h3.594c.689 0 .766.92.766 3.372V74.98c0 .383-.153.613-.689.613H213.59c-.46 0-.612-.23-.612-.613V54.135c0-2.453.076-3.372.765-3.372h3.594c.536 0 .689-.077.689-.46 0-.307-.153-.383-.689-.383h-16.749c-.535 0-.688.076-.688.46 0 .306.229.383.688.383h3.671c.688 0 .765.92.765 3.372v45.677c0 2.452-.077 3.372-.765 3.372Zm56.367 0h-3.671c-.535 0-.689.077-.689.46 0 .307.23.384.689.384h35.333c.535 0 .688-.154.688-.461v-16.63c0-.537-.229-.69-.535-.69-.306 0-.459.153-.459.69v.69c0 5.747-2.906 15.557-14.301 15.557h-7.648c-.535 0-.688-.23-.688-.459V76.59c0-.306.229-.46.764-.46h5.048c4.053 0 7.189 3.066 7.189 7.51v.614c0 .537.153.69.458.69.306 0 .46-.153.46-.69V67.317c0-.537-.154-.69-.46-.69-.305 0-.458.153-.458.69v.69a7.1 7.1 0 0 1-4.383 6.826 7.07 7.07 0 0 1-2.806.53h-5.124c-.535 0-.688-.152-.688-.382V51.222c0-.306.306-.46.764-.46h8.107c7.648 0 11.319 6.668 11.319 14.945v.767c0 .536.153.69.459.69.306 0 .535-.154.535-.69V50.456c0-.383-.229-.537-.688-.537h-32.886c-.535 0-.689.077-.689.46 0 .307.23.384.689.384h3.671c.689 0 .765.92.765 3.372v45.677c0 2.452-.076 3.372-.765 3.372Zm46.959-3.372V54.135c0-2.453-.076-3.372-.764-3.372h-3.671c-.612 0-.689-.154-.689-.384s.077-.46.689-.46h21.567c7.112 0 15.907 2.913 15.907 13.106 0 7.434-6.653 11.956-13.077 12.569v.076c7.418.997 12.542 6.132 12.466 15.022v9.12c0 1.533 0 3.909 2.447 3.909a3.918 3.918 0 0 0 2.098-.87 3.939 3.939 0 0 0 1.267-1.889c.153-.383.229-.767.688-.69.459.077.459.46.306.843-.688 2.146-2.753 3.832-5.889 3.832-5.277 0-8.948-3.525-8.948-8.737 0-3.832.077-6.437.077-10.27 0-5.825-1.454-9.886-7.649-9.886h-8.106c-.535 0-.765.23-.765.46v23.298c0 2.452.077 3.372.765 3.372h3.594c.536 0 .689.077.689.383 0 .384-.153.461-.689.461H303.15c-.459 0-.689-.077-.689-.384 0-.383.154-.46.689-.46h3.671c.688 0 .764-.92.764-3.372Zm7.954-24.985c0 .23.153.46.688.46h8.872c4.206 0 7.265-2.529 7.265-12.109 0-10.116-3.365-12.415-7.494-12.415h-8.566c-.535 0-.765.23-.765.46v23.604Zm-175.035 70.546h-4.205c-.133 0-.17.019-.17.114 0 .076.057.095.17.095h.947c.171 0 .189.227.189.834v11.066a1.16 1.16 0 0 1-.31.974 1.157 1.157 0 0 1-.959.354c-.567 0-1.098-.171-1.098-.607 0-.475.606-.607.606-1.405a1.159 1.159 0 0 0-.75-1.1 1.155 1.155 0 0 0-.462-.076 1.19 1.19 0 0 0-1.124.791 1.192 1.192 0 0 0-.069.481c0 1.404 1.629 2.106 2.897 2.106 2.065 0 3.239-1.727 3.239-3.739v-8.844c0-.608.019-.835.19-.835h.909c.132 0 .17-.019.17-.114 0-.076-.057-.095-.17-.095Zm21.722 6.643c0 3.833-1.724 6.984-5.379 6.984-3.503 0-5.416-3.131-5.416-6.87 0-3.835 1.704-6.984 5.359-6.984 3.523 0 5.436 3.131 5.436 6.87Zm-2.519-2.81c-.151-1.916-.454-3.871-2.822-3.871-2.557 0-2.822 1.822-2.955 4.005a39.468 39.468 0 0 0 .02 5.598c.132 1.917.454 3.872 2.821 3.872 2.557 0 2.822-1.822 2.936-4.004a36.86 36.86 0 0 0 0-5.6Zm24.809-3.833h-3.39c-.152 0-.171.057-.171.114s.019.095.171.095h.246c1.326 0 1.686 1.025 1.686 4.403v4.858c0 2.335-.796 3.91-3.864 3.91-1.742 0-2.897-.891-2.897-2.713v-9.623c0-.608.018-.835.189-.835h1.08c.151 0 .17-.038.17-.095s-.019-.114-.17-.114h-4.319c-.151 0-.17.057-.17.114s.019.095.17.095h.89c.171 0 .19.227.19.835v8.825c0 1.879 1.761 3.758 4.734 3.758 3.353 0 4.243-1.765 4.243-4.137v-5.011c0-3.587.265-4.27 1.174-4.27h.038c.151 0 .171-.038.171-.095s-.02-.114-.171-.114Zm21.931 12.678a1.437 1.437 0 0 1-1.459.949 2.081 2.081 0 0 1-2.069-1.309 2.094 2.094 0 0 1-.147-.854c0-.95.019-1.595.019-2.544 0-1.443-.36-2.448-1.894-2.448h-2.007c-.133 0-.19.057-.19.114v5.769c0 .608.019.835.19.835h.89c.132 0 .17.019.17.096 0 .094-.038.114-.17.114h-4.148c-.113 0-.17-.02-.17-.096 0-.095.037-.114.17-.114h.909c.17 0 .19-.227.19-.835v-11.311c0-.608-.02-.835-.19-.835h-.909c-.151 0-.17-.038-.17-.095s.019-.114.17-.114h5.341c1.761 0 3.939.721 3.939 3.245 0 1.842-1.648 2.961-3.238 3.113v.019a3.4 3.4 0 0 1 2.951 2.391c.132.43.178.881.136 1.329v2.258c0 .38 0 .968.606.968a.98.98 0 0 0 .52-.215.987.987 0 0 0 .314-.468c.036-.094.056-.19.17-.171.113.02.113.114.076.209Zm-5.379-6.396c1.041 0 1.799-.627 1.799-2.999 0-2.505-.833-3.074-1.856-3.074h-2.121c-.133 0-.19.057-.19.114v5.846c0 .056.038.113.171.113h2.197Zm27.158-6.282h-3.636c-.133 0-.171.019-.171.114 0 .075.057.095.171.095h.227c1.515 0 1.969 1.309 1.969 4.403v6.206h-.038l-6.364-10.704a.262.262 0 0 0-.083-.076.265.265 0 0 0-.106-.038h-2.916c-.152 0-.19.019-.19.114 0 .075.057.095.19.095h.909c.17 0 .189.227.189.834v7.877c0 3.587-.265 4.27-1.155 4.27h-.038c-.133 0-.17.019-.17.114 0 .076.056.096.17.096h3.656c.15 0 .17-.057.17-.114s-.02-.096-.17-.096h-.247c-1.515 0-1.988-1.309-1.988-4.402v-7.744h.018l7.463 12.45a.181.181 0 0 0 .189.114h.568c.152 0 .189-.057.189-.114v-9.015c0-3.587.266-4.27 1.156-4.27h.038c.132 0 .17-.02.17-.114 0-.057-.038-.095-.17-.095Zm21.987 13.286c0 .094-.038.114-.189.114h-4.186c-.113 0-.17-.02-.17-.096 0-.095.037-.114.17-.114h.796c.36 0 .473-.19.189-1.005l-1.288-3.777a.131.131 0 0 0-.052-.089.134.134 0 0 0-.048-.023.152.152 0 0 0-.052-.002h-3.693c-.114 0-.132.037-.17.114l-.36 1.177c-.89 2.713-.322 3.605.663 3.605h.454c.114 0 .171.019.171.096 0 .094-.038.114-.171.114h-3.541c-.114 0-.171-.02-.171-.096 0-.095.038-.114.171-.114h.057c.606 0 1.117-.531 2.083-3.625l3.03-9.66a.15.15 0 0 1 .062-.091.148.148 0 0 1 .108-.022h.493c.113 0 .17.037.19.113l4.203 12.28c.285.854.399 1.005.72 1.005h.342c.132 0 .189.019.189.096Zm-4.848-5.372-1.875-5.845h-.039l-1.799 5.883c-.019.057.019.114.171.114h3.389c.114 0 .171-.075.153-.152Zm24.202.342c-.056 0-.113.019-.113.171v.531c0 1.784-.777 4.232-3.561 4.232H264c-.133 0-.171-.056-.171-.113v-12.033c0-.608.019-.835.189-.835h1.212c.133 0 .171-.019.171-.114 0-.076-.057-.095-.171-.095h-4.47c-.132 0-.17.019-.17.114 0 .076.057.095.17.095h.91c.17 0 .189.227.189.835v11.311c0 .608-.019.835-.189.835h-.91c-.113 0-.17.019-.17.096 0 .094.038.114.17.114h8.77c.151 0 .17-.057.17-.114V153.8c0-.133-.076-.171-.133-.171ZM53 118.162v9.489h295v-9.489H53Z" fill="#fff"></path></svg>