<svg width="170" height="85" viewBox="0 0 400 200" fill="none" xmlns="http://www.w3.org/2000/svg"><path fill-rule="evenodd" clip-rule="evenodd" d="M70.54 99.667C70.54 93.174 77.845 89 89.553 89c11.709 0 19.016 4.174 19.016 10.667 0 6.68-7.033 10.854-19.015 10.854-11.983 0-19.016-4.166-19.016-10.854Zm28.553.031c0-2.921-3.735-4.832-9.538-4.832-5.804 0-9.54 1.91-9.54 4.832 0 3.109 3.517 4.957 9.54 4.957 6.022 0 9.538-1.848 9.538-4.957ZM32 100.043C32 93.675 38.054 89 50.357 89c11.803 0 16.572 3.61 16.572 7.941 0 .104-.022.315-.047.563l-.016.158h-7.91v-.157c0-1.284-2.098-2.733-8.16-2.733-6.336 0-9.382 2.224-9.382 5.302 0 2.921 2.639 5.208 9.257 5.208 5.176 0 7.659-1.598 7.659-2.545v-.094h-8.881v-3.204h17.919v10.636h-7.19c.063-.846.157-2.412.22-3.83h-.063c-1.128 2.608-4.895 4.268-11.52 4.268-11.607.016-16.815-4.597-16.815-10.47ZM130.349 89c-11.708 0-19.015 4.174-19.015 10.667 0 6.688 7.033 10.854 19.015 10.854 11.983 0 19.016-4.174 19.016-10.854 0-6.493-7.307-10.667-19.016-10.667Zm0 5.866c5.804 0 9.539 1.91 9.539 4.832 0 3.109-3.516 4.957-9.539 4.957-6.022 0-9.539-1.848-9.539-4.957 0-2.921 3.736-4.832 9.539-4.832Zm22.375-5.427h15.155c12.366 0 17.417 4.017 17.417 10.322 0 6.774-5.051 10.322-16.196 10.322h-16.383V89.439h.007Zm15.883 14.778c5.302 0 7.597-1.567 7.597-4.456 0-2.577-2.193-4.457-7.879-4.457h-6.492v8.913h6.774Zm59.184-14.778h-26.926v20.652h9.101v-6.939h14.527v-4.08h-14.527v-3.768h17.825V89.44Zm23.816 17.072h-14.779l-2.443 3.58h-10.134l15.248-20.652h11.074l15.248 20.652h-11.794l-2.42-3.58Zm-2.577-3.861-4.707-7.001h-.062l-4.801 7.001h9.57ZM283.364 89c-11.795 0-18.076 4.425-18.076 10.792 0 5.842 5.341 10.737 18.17 10.729 11.959 0 16.791-4.205 16.791-8.755 0-.063 0-.345-.032-.564h-7.941v.156c0 1.762-2.545 3.297-8.286 3.297-6.743 0-9.225-2.161-9.225-4.863 0-2.859 2.952-4.926 9.163-4.926 5.936 0 8.223 1.887 8.223 3.391v.125h7.941c.031-.219.031-.5.031-.657-.062-4.112-4.518-8.725-16.759-8.725Zm20.37.439h27.207v5.709h-18.107v2.858h13.4v3.423h-13.4v2.952h18.514v5.71h-27.614V89.439Zm38.727 13.713h-8.035c0 2.232.94 7.377 16.415 7.377 15.256 0 17.167-4.55 17.167-7.597 0-2.044-1.191-3.61-3.83-4.362-2.725-.752-6.586-.94-10.51-1.096l-1.636-.075c-2.937-.133-6.03-.273-7.057-.458-1.19-.188-1.629-.595-1.629-1.127 0-1.034 2.201-1.786 7.722-1.786 5.968 0 7.816.877 7.816 2.161h7.847c0-3.328-1.981-7.189-15.788-7.189-11.834 0-16.729 3.485-16.729 7.315 0 2.232 1.293 3.579 3.391 4.331 2.319.845 7.088 1.159 10.166 1.284l1.279.049c2.901.11 6.045.23 7.571.421 1.597.188 2.13.626 2.13 1.222 0 1.002-1.159 1.879-8.129 1.879-6.783 0-8.161-1.034-8.161-2.349Z" fill="#fff"></path></svg>