<svg width="170" height="85" viewBox="0 0 400 200" fill="none" xmlns="http://www.w3.org/2000/svg"><path fill-rule="evenodd" clip-rule="evenodd" d="M48.278 114.976c-11.297 0-20.791-9.191-20.791-20.488C27.487 83.192 36.98 74 48.278 74c6.247 0 10.69 2.445 14.046 5.64L58.362 83.6c-2.392-2.248-5.64-3.997-10.101-3.997-8.246 0-14.69 6.639-14.69 14.884 0 8.245 6.444 14.884 14.69 14.884 5.353 0 8.387-2.141 10.35-4.105 1.606-1.605 2.642-3.89 3.053-7.049H48.278v-5.48h18.828c.197 1 .304 2.071.304 3.374 0 4.194-1.143 9.387-4.854 13.1-3.588 3.765-8.192 5.764-14.278 5.764Zm171.12.998c-5.097 0-9.371-1.726-12.823-5.177-3.451-3.452-5.177-7.758-5.177-12.92 0-5.16 1.726-9.466 5.177-12.917 3.452-3.451 7.726-5.177 12.823-5.177 5.224 0 9.466 1.887 12.725 5.66l-3.098 3c-2.355-2.935-5.564-4.403-9.627-4.403-3.775 0-6.96 1.274-9.556 3.823-2.597 2.548-3.896 5.886-3.896 10.015 0 4.129 1.299 7.468 3.896 10.016 2.596 2.548 5.781 3.823 9.556 3.823 4.16 0 7.708-1.678 10.644-5.032l3.096 3.096c-1.581 1.903-3.564 3.411-5.951 4.524-2.387 1.112-4.984 1.669-7.789 1.669Zm18.192-35.418h4.451v10.935l-.194 3.29h.194c.646-1.129 1.662-2.088 3.048-2.879a8.848 8.848 0 0 1 4.452-1.185c2.935 0 5.176.903 6.725 2.71 1.549 1.806 2.323 4.225 2.323 7.258V115.2h-4.452v-13.839c0-4.386-1.951-6.58-5.854-6.58-1.839 0-3.339.734-4.5 2.201-1.161 1.469-1.742 3.171-1.742 5.106V115.2h-4.451V80.556Zm30.675 21.677V115.2h-4.451V91.491h4.259v3.871h.192c.452-1.29 1.379-2.354 2.782-3.193 1.404-.839 2.767-1.259 4.09-1.259 1.321 0 2.434.194 3.338.581l-1.693 4.162c-.581-.226-1.372-.339-2.372-.339-1.613 0-3.04.637-4.281 1.91-1.243 1.275-1.864 2.945-1.864 5.009Zm15.193-7.91c2.291-2.404 5.21-3.606 8.758-3.606 3.548 0 6.467 1.201 8.757 3.605 2.29 2.403 3.435 5.41 3.435 9.023 0 3.613-1.145 6.621-3.435 9.025-2.29 2.402-5.209 3.604-8.757 3.604s-6.467-1.202-8.758-3.604c-2.29-2.404-3.435-5.412-3.435-9.025 0-3.613 1.145-6.62 3.435-9.023Zm3.315 15.239c1.532 1.566 3.346 2.348 5.443 2.348 2.096 0 3.91-.782 5.442-2.348 1.533-1.564 2.3-3.636 2.3-6.217 0-2.58-.767-4.652-2.3-6.217-1.532-1.564-3.346-2.347-5.442-2.347-2.097 0-3.911.782-5.443 2.347-1.533 1.565-2.299 3.637-2.299 6.217 0 2.581.766 4.653 2.299 6.217Zm26.151 5.638h-4.451V91.491h4.259v3.29h.192c.678-1.129 1.718-2.088 3.121-2.879 1.404-.79 2.799-1.185 4.185-1.185 3.677 0 6.177 1.516 7.5 4.549 1.936-3.033 4.694-4.55 8.275-4.55 2.805 0 4.918.896 6.337 2.686 1.42 1.79 2.129 4.218 2.129 7.283V115.2h-4.452v-13.839c0-2.387-.435-4.08-1.306-5.08-.87-1-2.193-1.5-3.967-1.5-1.742 0-3.185.742-4.331 2.226-1.144 1.484-1.717 3.178-1.717 5.081V115.2h-4.452v-13.839c0-2.387-.435-4.08-1.306-5.08-.87-1-2.193-1.5-3.968-1.5-1.741 0-3.184.742-4.33 2.226-1.145 1.484-1.718 3.178-1.718 5.081V115.2Zm47.514.774c-3.58 0-6.492-1.194-8.734-3.581-2.241-2.387-3.362-5.403-3.362-9.048 0-3.451 1.089-6.419 3.265-8.903 2.178-2.483 4.96-3.725 8.347-3.725 3.516 0 6.33 1.145 8.443 3.436 2.113 2.29 3.17 5.354 3.17 9.192l-.048.823h-18.726c.129 2.387.927 4.274 2.395 5.662 1.468 1.387 3.186 2.08 5.153 2.08 3.193 0 5.354-1.355 6.483-4.064l3.968 1.645c-.774 1.838-2.048 3.378-3.822 4.62s-3.951 1.863-6.532 1.863Zm-7.354-15.483h13.74c-.097-1.355-.717-2.645-1.862-3.871s-2.847-1.839-5.105-1.839c-1.644 0-3.072.516-4.282 1.548-1.209 1.033-2.039 2.42-2.491 4.162ZM83.079 114.976c7.281 0 13.207-5.585 13.207-13.189 0-7.656-5.926-13.188-13.207-13.188-7.281 0-13.206 5.55-13.206 13.188 0 7.585 5.925 13.189 13.206 13.189Zm0-21.184c3.98 0 7.425 3.248 7.425 7.995 0 4.694-3.445 7.996-7.425 7.996s-7.423-3.302-7.423-7.996c0-4.747 3.444-7.995 7.423-7.995Zm41.762 7.995c0 7.604-5.925 13.189-13.206 13.189-7.283 0-13.207-5.604-13.207-13.189 0-7.638 5.924-13.188 13.207-13.188 7.281 0 13.206 5.532 13.206 13.188Zm-5.783 0c0-4.747-3.444-7.995-7.423-7.995-3.981 0-7.425 3.248-7.425 7.995 0 4.694 3.444 7.996 7.425 7.996 3.979 0 7.423-3.302 7.423-7.996Zm32.731 11.297V89.402h-5.496v2.14h-.196c-1.303-1.552-3.802-2.943-6.943-2.943-6.603 0-12.351 5.8-12.351 13.242 0 7.388 5.748 13.135 12.351 13.135 3.141 0 5.64-1.391 6.943-2.998h.196v1.891c0 5.051-2.695 7.747-7.051 7.747-3.533 0-5.746-2.554-6.638-4.695l-5.051 2.106c1.445 3.498 5.3 7.799 11.689 7.799 6.8 0 12.547-3.997 12.547-13.742Zm-12.153-19.292c3.944 0 7.049 3.409 7.049 8.049 0 4.587-3.087 7.942-7.049 7.942-3.998 0-7.05-3.337-7.05-7.942 0-4.658 3.052-8.049 7.05-8.049Zm21.077-18.4v38.781h-5.8v-38.78h5.8Zm26.2 33.73-4.498-2.998c-1.5 2.213-3.553 3.659-6.496 3.659-2.945 0-5.033-1.356-6.389-3.998l17.632-7.3-.607-1.498c-1.107-2.945-4.444-8.388-11.297-8.388-6.799 0-12.439 5.336-12.439 13.188 0 7.389 5.604 13.189 13.1 13.189 6.05 0 9.547-3.711 10.994-5.854Zm-6.551-12.636-11.796 4.891c-.143-5.086 3.944-7.692 6.907-7.692 2.283 0 4.246 1.16 4.889 2.801Z" fill="#fff"></path></svg>