<svg width="32" height="32" viewBox="0 0 32 32" version="1.1" aria-hidden="false" xmlns="http://www.w3.org/2000/svg"><path fill="white" d="M29.2 10.5c-.1-1.4-.3-2.4-.6-3.2-.3-.9-.8-1.6-1.5-2.4-.7-.7-1.5-1.2-2.4-1.5-.8-.3-1.8-.6-3.2-.6-1.4-.1-1.9-.1-5.5-.1s-4.1 0-5.5.1c-1.4 0-2.4.2-3.2.6-.9.3-1.7.8-2.4 1.5S3.7 6.4 3.4 7.3c-.4.8-.6 1.8-.7 3.2-.1 1.4-.1 1.9-.1 5.5s0 4.1.1 5.5c.1 1.4.3 2.4.6 3.2.3.9.8 1.6 1.5 2.4.7.7 1.5 1.2 2.4 1.5.8.3 1.8.6 3.2.6 1.4.1 1.9.1 5.5.1s4.1 0 5.5-.1c1.4-.1 2.4-.3 3.2-.6.9-.3 1.6-.8 2.4-1.5.7-.7 1.2-1.5 1.5-2.4.3-.8.6-1.8.6-3.2.1-1.4.1-1.9.1-5.5.1-3.6.1-4.1 0-5.5zm-2.4 10.9c-.1 1.3-.3 2-.5 2.5-.2.6-.5 1.1-1 1.5-.5.5-.9.8-1.5 1-.5.2-1.2.4-2.5.5-1.4.1-1.8.1-5.4.1-3.6 0-4 0-5.4-.1-1.3-.1-2-.3-2.5-.5-.6-.2-1.1-.5-1.5-1-.5-.5-.8-.9-1-1.5-.2-.5-.4-1.2-.5-2.5.1-1.4.1-1.8.1-5.4s0-4 .1-5.4c.1-1.3.3-2 .5-2.5.2-.6.5-1.1 1-1.5.5-.5.9-.8 1.5-1 .5-.2 1.2-.4 2.5-.5H16c3.6 0 4 0 5.4.1 1.3.1 2 .3 2.5.5.6.2 1.1.5 1.5 1 .5.5.8.9 1 1.5.2.5.4 1.2.5 2.5.1 1.4.1 1.8.1 5.4s-.1 3.9-.2 5.3zM16 9.2c-3.8 0-6.8 3.1-6.8 6.8 0 3.8 3.1 6.8 6.8 6.8 3.8 0 6.8-3.1 6.8-6.8s-3-6.8-6.8-6.8zm0 11.2c-2.5 0-4.4-2-4.4-4.4s2-4.4 4.4-4.4c2.5 0 4.4 2 4.4 4.4s-2 4.4-4.4 4.4zm8.7-11.5c0 .9-.7 1.6-1.6 1.6s-1.6-.7-1.6-1.6.7-1.6 1.6-1.6 1.6.7 1.6 1.6z"></path></svg>