<svg width="170" height="85" viewBox="0 0 400 200" fill="none" xmlns="http://www.w3.org/2000/svg"><path fill-rule="evenodd" clip-rule="evenodd" d="M266.204 100.115c0 36.496-29.601 66.085-66.104 66.085-36.509 0-66.1-29.589-66.1-66.085C134 63.601 163.591 34 200.1 34c36.503 0 66.104 29.6 66.104 66.115Zm-120.572 11.532c0 .765 1.339 2.131 3.398 2.068 2.696-.083 5.93-2.67 5.93-2.67s-2.742-1.092-5.93-1.266c-1.321-.091-3.398.174-3.398 1.868Zm36.755-33.868c.201-1.748-.592-3.688-2.988-3.688-5.839 0-8.371 16.305-8.371 16.305s10.193-2.35 11.359-12.617Zm21.98 38.614c32.647.4 49.753-5.557 49.753-5.557l.775 2.551s-23.547 7.433-51.466 7.433c-21.334 0-41.783-7.725-41.783-7.725s-3.78 3.926-11.049 3.926c-3.726 0-9.064-1.995-8.699-6.24.136-1.639 2.022-4.253 7.524-4.253 4.235 0 7.651 1.129 7.651 1.129s3.698-9.018 4.445-13.782c0 0-3.78-.4-6.376-1.63l.884-2.396s2.168.783 6.021 1.312c0 0 .018-.064.063-.283.044-.173.097-.394.159-.657 1.032-4.34 4.781-20.111 16.538-19.656 3.571.155 7.187 2.66 7.187 6.55 0 12.288-15.476 16.605-15.476 16.605s-2.66 9.337-4.919 13.937c-.364.729-.92 1.813-.92 1.813s17.171 6.649 39.688 6.923Zm30.77-13.527c0 .637 0 2.842 2.004 2.842 4.381 0 5.301-8.763 5.301-8.964 0-.965-.819-2.259-2.35-2.259-3.634 0-4.955 6.696-4.955 8.381Zm-47.413-6.896c.037-.802-.701-1.585-1.794-1.648-3.726-.228-4.764 6.02-4.764 6.02s6.377.802 6.558-4.372Zm61.987 9.137c1.221 0 2.942-1.239 2.942-1.239l.775 2.55s-3.334 3.134-7.779 3.134c-3.644 0-4.838-2.742-4.838-2.742s-2.24 2.742-6.421 2.742c-5.347 0-6.795-4.118-6.795-4.118s-4.145 4.363-9.547 4.363c-5.283 0-7.596-3.834-7.596-3.834s-4.163 3.99-9.474 3.99c-5.146 0-5.502-3.99-5.502-3.99s-6.367 3.99-12.889 3.99c-5.748 0-10.211-2.241-10.211-7.461 0-5.72 5.447-10.539 13.217-10.539 4.208 0 7.533 1.266 7.533 4.591 0 5.821-9.509 6.476-10.275 6.476-.983 0-2.295-.082-2.295-.082v.474c0 1.148 1.111 3.097 4.327 2.879 6.239-.447 10.703-3.681 10.703-3.681l2.905-10.293 8.144-.118s-3.115 10.603-3.115 11.341c0 .546 0 1.776 1.575 1.776 2.305 0 4.081-2.04 4.318-2.332-.005-.023 0-.095.011-.255.01-.156.026-.396.044-.756.173-4.873 5.091-10.284 12.297-10.275 3.343.009 4.982 1.285 4.982 1.285l-1.038 3.397s-1.175-1.667-3.097-1.667c-3.525 0-4.773 5.939-4.773 7.442 0 1.385.428 3.553 3.015 3.553 3.234 0 5.866-2.997 6.039-3.198 0 0 .009-.118.046-.938.173-3.78 4.263-10.202 11.714-10.202 3.844 0 4.91 2.16 4.91 2.16l.382-1.276 7.324-.1s-2.997 9.418-2.997 11.331c0 .847.51 1.622 1.439 1.622Zm-45.535-22.563c-2.597 0-4.509 1.056-4.509 3.488 0 2.46 2.213 3.134 4.509 3.134 2.304 0 4.408-1.084 4.408-3.59 0-2.513-2.532-3.032-4.408-3.032Z" fill="#fff"></path></svg>