<svg width="170" height="85" viewBox="0 0 400 200" fill="none" xmlns="http://www.w3.org/2000/svg"><g fill-rule="evenodd" clip-rule="evenodd" fill="#fff"><path d="M60.717 135.103h43.108V65.746H60.717v69.357ZM51.981 57h60.611v86.845h-60.61V57ZM152.853 95.964h-3.75c-4.924-6.957-9.809-13.87-14.687-21.682h-.036v21.682h-4.146V65.733h3.753c4.925 6.909 9.802 13.773 14.635 21.544h.087V65.733h4.144v30.23ZM164.685 65.733l-10.445 30.23h4.491l2.628-8.25h9.119l2.373 8.25h5.79l-9.634-30.23h-4.322Zm-1.981 18.265c1.203-3.972 2.414-7.644 3.495-12.31h.087c1.207 4.666 2.288 8.338 3.411 12.31h-6.993ZM183.517 95.964V69.786h-7.95v-4.053h21.074v4.053h-7.943v26.178h-5.181ZM198.321 65.733h5.146v30.23h-5.146v-30.23ZM219.446 96.476c7.901 0 12.821-7.035 12.821-16.067 0-8.46-5.433-15.198-12.821-15.198-7.381 0-12.839 6.738-12.839 15.198 0 9.032 4.932 16.067 12.839 16.067Zm0-4.319c-5.404 0-7.303-5.959-7.303-11.748 0-5.569 2.159-10.88 7.303-10.88 5.138 0 7.289 5.311 7.289 10.88 0 5.79-1.895 11.748-7.289 11.748ZM258.048 95.964h-3.754c-4.928-6.957-9.809-13.87-14.684-21.682h-.043v21.682h-4.14V65.733h3.753c4.92 6.909 9.802 13.773 14.628 21.544h.092V65.733h4.148v30.23ZM269.885 65.733l-10.45 30.23h4.494l2.627-8.25h9.113l2.378 8.25h5.786l-9.632-30.23h-4.316Zm-1.991 18.265c1.212-3.972 2.413-7.644 3.501-12.31h.086c1.209 4.666 2.286 8.338 3.406 12.31h-6.993ZM285.337 65.733h5.149v26.17h10.229v4.06h-15.378v-30.23ZM149.668 121.25v12.478c-2.766 1.08-5.661 1.856-8.59 1.856-8.898 0-14.512-6.912-14.512-15.807 0-8.252 5.614-15.462 14.681-15.462 2.802 0 5.612 1.043 7.339 2.334l-1.684 3.585c-1.38-.857-3.544-1.592-5.528-1.592-5.522 0-9.284 4.36-9.284 11.229 0 7.163 4.322 11.393 8.77 11.393 1.375 0 2.547-.165 3.632-.732v-9.282h5.176ZM168.201 108.903h-8.647v8.287h8.465v4.06h-8.465v9.754h10.193v4.065h-15.378v-30.233h13.832v4.067ZM184.178 135.584c7.898 0 12.818-7.038 12.818-16.066 0-8.462-5.437-15.203-12.818-15.203-7.394 0-12.83 6.741-12.83 15.203 0 9.028 4.914 16.066 12.83 16.066Zm0-4.32c-5.404 0-7.307-5.954-7.307-11.746 0-5.564 2.16-10.876 7.307-10.876 5.135 0 7.289 5.312 7.289 10.876 0 5.792-1.902 11.746-7.289 11.746ZM221.867 121.25v12.478c-2.77 1.08-5.654 1.856-8.594 1.856-8.892 0-14.51-6.912-14.51-15.807 0-8.252 5.618-15.462 14.688-15.462 2.809 0 5.611 1.043 7.335 2.334l-1.689 3.585c-1.379-.857-3.524-1.592-5.515-1.592-5.535 0-9.293 4.36-9.293 11.229 0 7.163 4.323 11.393 8.77 11.393 1.388 0 2.546-.165 3.631-.732v-9.282h5.177ZM244.935 135.069l-6.1-12.52c3.323-1.766 5.236-5.359 5.236-8.987 0-5.88-3.591-8.726-9.382-8.726h-8.072v30.233h5.194v-11.402h2.33l4.87 11.402h5.924Zm-13.124-26.166h2.282c3.06 0 4.791 1.763 4.791 4.876 0 4.057-2.458 5.868-4.922 5.998-.518.052-1.73.094-2.151.132v-11.006ZM255.466 104.836l-10.453 30.233h4.49l2.639-8.253h9.117l2.361 8.253h5.798l-9.634-30.233h-4.318Zm-1.983 18.269c1.204-3.979 2.41-7.646 3.498-12.31h.084c1.21 4.664 2.288 8.331 3.411 12.31h-6.993ZM278.403 119.777c-.539.048-1.807.089-2.165.124v-10.998h2.326c3.022 0 4.757 1.763 4.757 4.876 0 4.057-2.454 5.868-4.918 5.998Zm.726-14.941h-8.075v30.233h5.184v-11.402h2.326c6.179 0 9.94-5.011 9.94-10.105 0-5.88-3.587-8.726-9.375-8.726ZM312.511 135.069h-5.181V120.52h-10.761v14.549h-5.124v-30.233h5.124v11.617h10.761v-11.531h5.181v30.147ZM317.472 104.836h5.151v30.233h-5.151v-30.233ZM345.932 110.326c-1.254-.78-3.316-1.684-5.315-1.684-5.274 0-9.106 4.36-9.106 11.229 0 7.163 4.229 11.393 9.241 11.393a9.777 9.777 0 0 0 5.18-1.513l1.43 3.76c-1.564 1.077-4.319 2.073-6.82 2.073-8.899 0-14.517-6.912-14.517-15.807 0-8.252 5.569-15.462 14.592-15.462 2.685 0 5.181 1.13 6.962 2.334l-1.647 3.677Z"></path></g></svg>