<svg width="170" height="85" viewBox="0 0 400 200" fill="none" xmlns="http://www.w3.org/2000/svg"><path d="M130.524 131.056c-5.273-.209-9.588-1.652-12.962-4.333-.644-.512-2.178-2.047-2.693-2.694-1.368-1.721-2.298-3.395-2.919-5.253-1.909-5.718-.926-13.221 2.811-21.4563 3.199-7.0502 8.136-14.0426 16.75-23.727C132.779 72.1676 136.558 68 136.582 68c.009 0-.197.3567-.456.7911-2.239 3.7513-4.156 8.17-5.2 11.9953-1.677 6.1382-1.474 11.4057.593 15.4903 1.426 2.8139 3.87 5.2513 6.619 6.5983 4.813 2.358 11.858 2.553 20.463.571.592-.137 29.947-7.9297 65.233-17.317C259.12 76.7407 287.996 69.0656 288 69.0719c.01.0082-81.98 35.0921-124.542 53.2931-6.74 2.882-8.543 3.61-11.712 4.722-8.1 2.845-15.356 4.202-21.222 3.969z" fill="#fff"></path></svg>