<svg width="32" height="32" viewBox="0 0 32 32" version="1.1" aria-hidden="false" xmlns="http://www.w3.org/2000/svg"><path fill="white" d="M29.3 7.9c-.8 1.1-1.6 2.1-2.7 2.9v.7c0 7.2-5.6 15.5-15.7 15.2-3.1 0-6-.8-8.4-2.4.4.1.9.1 1.3.1 2.5 0 4.9-.9 6.8-2.4-2.4 0-4.4-1.6-5-3.7.4.1.7.1 1.1.1.5 0 1.1 0 1.5-.1-2.5-.5-4.4-2.6-4.4-5.3v-.1c.8.4 1.6.7 2.4.7-1.4-1-2.3-2.7-2.3-4.6 0-.9.3-1.9.8-2.6 2.7 3.2 6.6 5.4 11.1 5.6-.1-.4-.1-.8-.1-1.2 0-3 2.4-5.4 5.4-5.4 1.6 0 3.1.7 4 1.6 1.2-.3 2.4-.7 3.4-1.3-.4 1.3-1.3 2.4-2.4 3 1.2-.2 2.3-.5 3.2-.8z"></path></svg>