<svg width="170" height="85" viewBox="0 0 400 200" fill="none" xmlns="http://www.w3.org/2000/svg"><path fill-rule="evenodd" clip-rule="evenodd" d="M304.967 76.7586c.229.898-.779 1.7607-1.303 2.4207-4.396 5.4992-9.27 12.0049-15.127 16.1818.423 2.1874.198 5.0909-.566 6.6939 1.534 1.952 3.162 3.8 4.11 6.327-1.248 6.6-4.145 11.72-8.777 15.067-4.521 3.262-10.63 4.549-17.56 6.138-13.4 3.076-35.447 6.109-45.388-1.862-10.764 6.288-32.517 7.118-42.585-.373-7.156 9.021-35.388 8.229-31.188-9.671-5.236 3.948-12.977 9.391-20.363 12.464-8.565 3.56-24.784 3.159-23.163-8.929.196-1.44.807-2.253 1.496-3.535-2.506-4.354-4.089-7.376-5.6043-11.161-1.4511-3.63-3.6643-7.7623-3.9239-12.8325-.5427-10.7862 7.9002-17.6243 16.2572-20.8371 4.264-1.6382 7.727-4.0118 11.951-5.2022 6.312-1.7914 11.722 1.6665 12.14 7.4391 7.338-2.1685 16.274-4.561 25.964-3.1609 7.716-5.9753 22.784-2.284 32.687.554 2.239.6435 5.252 2.3052 6.911 2.2345 1.404-.0565 3.94-1.954 5.413-2.6046 6.948-3.069 16.033-6.336 25.964-4.6506 1.88.3158 3.601 1.3082 5.601 1.485 1.36.1249 3.021-.2994 4.484-.3678 23.21-1.129 42.535 5.075 62.572 8.1817h-.002zm-65.535-.1262c-2.369.2814-4.05 2.8515-5.598 3.7003.113-.0117.219-.0304.183-.1876.283-1.2615.825-2.2675.934-3.6979-12.417-4.3381-24.502 2.0026-33.395 6.8448-7.114 3.8692-13.459 8.4183-17.914 12.9511 1.61-2.7202 3.319-5.4121 5.225-7.954 1.933-2.5818 4.085-4.9173 5.787-7.2154-3.719-.9661-7.448-1.9861-11.201-2.7787-5.331-1.1256-12.747-2.9898-17.164-.5534-1.278.7035-2.324 2.4364-3.545 2.5911-1.011.129-2.675-.6026-3.92-.7386-4.559-.5042-8.754-.0844-12.874.7386-3.859.7668-12.017 2.1269-13.063 5.7334-.67 2.3168.825 4.5609.561 6.8519-.255 2.2511-2.438 5.2338-3.545 7.03-1.356 2.204-2.735 4.155-5.04 5.18-1.395-6.8941.123-13.0261 1.308-18.872.731-3.6041 2.204-7.2927.936-10.9203-3.559-.4901-6.555 2.3027-10.079 3.698-6.619 2.6263-13.989 5.0204-14.925 12.5852-.528 4.2607 1.087 6.9691 2.239 9.9941 2.278 6.052 5.353 11.777 9.146 17.024-.99 1.801-3.317 2.27-3.55 4.807 1.054 1.477 3.246 1.674 5.412 1.667 6.26-.014 11.394-3.137 16.045-5.735 10.126-5.652 16.928-14.349 24.073-22.5749 1.254-1.4468 2.286-3.1891 3.919-4.0707 1.603 7.3086-1.515 11.2176-3.736 17.2066-.855 2.308-3.554 9.53-2.239 12.951 1.443 3.764 13.725 3.928 16.981 1.487 1.64-1.231 2.293-4.01 3.175-5.738 1.124-2.223 2.097-4.141 2.984-6.106.049 8.106 6.121 10.486 12.686 12.212 13.953 3.658 28.025-2.877 35.639-7.398-.953 6.005 1.4 6.608 6.159 7.586 12.304 2.518 24.695-.387 34.703-2.779 9.176-2.19 16.554-3.738 17.914-12.77-1.468-1.26-5.138-1.102-7.649-.737-7.401 1.074-14.567 4.784-24.443 4.069-1.803-.129-5.694-.753-5.975-1.848-.434-1.707 2.649-2.903 5.233-3.33 7.401-1.243 18.102.012 24.063-2.227 2.862-1.07 6.315-4.16 5.968-7.584-.226-2.312-3.269-3.522-6.156-3.6979-8.165-.5065-14.001 4.2209-22.569 2.5888 1.07-1.3413 1.263-3.5526 2.607-4.6242 6.267-.1313 12.355 1.1021 18.286.7387 8.245-.5112 12.893-3.9559 16.794-8.5121.417-.4925 1.464-1.0201 1.12-1.8478-14.322-2.162-33.846-7.886-51.503-5.7381h.003zM211.308 90c-.929 4.1947-2.868 8.9962-3.956 13.651 5.988.085 12.305-1.128 18.462-1.496.833-1.104 1.243-2.6303 1.697-4.1139 1.235 1.7348 2.104 4.9819.943 7.4799-9.352-.131-16.073 7.472-25.246 7.479-4.108.005-7.599-2.339-5.655-6.92 2.747-6.4582 9.559-10.9705 13.755-16.08zm21.618-6c1.798 1.9036 5.732 1.8221 8.074 3.2187-3.16.7537-7.139.7492-10 1.7813.675-1.6388 1.28-3.3364 1.926-4.9977V84z" fill="#fff"></path></svg>