<svg width="170" height="85" viewBox="0 0 400 200" fill="none" xmlns="http://www.w3.org/2000/svg"><path d="M129.464 71.9886l-18.077 57.4694-21.0277-57.4694H85v-.5804h20.361v.5804h-4.997l15.192 41.5704 12.813-41.5704h-5.045v-.5804h10.985v.5804h-4.845zm40.922 7.1075c4.75 5.8801 7.111 13.4919 7.111 20.9989 0 7.193-2.151 14.453-6.549 20.2-4.312 5.604-10.814 9.705-18.029 9.705-6.759 0-13.222-3.787-17.411-8.953-4.769-5.871-7.091-13.464-7.091-20.971 0-7.2121 2.132-14.4718 6.549-20.2187 4.35-5.6518 10.899-9.686 18.181-9.686 6.692 0 13.118 3.8249 17.239 8.9248zm-3.227 20.9799c0-8.3063-2.97-29.0484-14.202-29.0484-11.28 0-14.203 20.7231-14.203 29.0484 0 8.326 2.951 29.068 14.203 29.068 11.232 0 14.202-20.771 14.202-29.068zm43.96 5.138h5.226v15.433c0 1.028-.039 2.027-.591 2.931-2.113 3.453-6.339 5.461-10.309 5.461-4.997 0-7.701-2.36-9.567-7.174-2.655-6.86-3.246-14.405-3.246-21.732 0-8.173 1.086-29.6097 13.051-29.6097 5.207 0 9.205 4.5576 11.718 8.6109 2.113 3.4728 3.322 7.2978 4.189 11.2274h.456v-19.962h-.456c-1.4 1.0466-3.037 2.236-4.855 2.236-1.466 0-2.951-.4758-4.312-.98l-1.19-.4567C209.615 70.5423 207.882 70 206.121 70c-4.493 0-8.719 1.9886-12.213 4.6813-7.787 6.0038-11.442 16.2702-11.442 25.8707 0 13.13 7.91 28.963 22.76 28.963 3.246 0 6.045-.942 8.977-2.236l1.294-.714c1.438-.799 3.056-1.379 4.703-1.379 2.275 0 4.055 1.236 5.188 3.111h.399v-23.083h4.474v-.609h-19.142v.609zm104.405 1.446c-.105 2.094-.276 4.206-.628 6.271-.648 3.701-2.513 7.136-5.188 9.762-3.141 3.092-7.549 5.014-11.985 5.014h-8.557V99.4481c1.028-.0856 2.027-.1427 3.055-.1427 6.511 0 8.958 5.9376 9.853 11.4846h.523V87.5833h-.523c-.315 6.1084-2.18 11.0466-9.348 11.0466-1.19 0-2.389-.0857-3.56-.2093v-26.432h5.711c5.293 0 10.443.4186 14.231 4.7098 3.741 4.2436 4.788 9.8287 5.398 15.2616h.399V71.3987h-52.707v.5804h6.397v43.9199c0 6.879-5.673 11.561-12.403 11.561-6.255 0-13.413-4.225-13.413-11.171V71.9886h5.416v-.5804h-20.418v.5804h5.588v42.2834c0 10.495 10.128 14.957 19.314 14.957 8.12 0 16.782-4.034 16.782-13.149V71.9886h10.128v55.7274h-4.788v.59H316V106.66h-.476z" fill="#fff"></path></svg>